<?xml version="1.0" encoding="utf-8"?>
<!-- Generator: Adobe Illustrator 21.1.0, SVG Export Plug-In . SVG Version: 6.00 Build 0)  -->
<!DOCTYPE svg PUBLIC "-//W3C//DTD SVG 1.1//EN" "http://www.w3.org/Graphics/SVG/1.1/DTD/svg11.dtd">
<svg version="1.1" id="Layer_1" xmlns="http://www.w3.org/2000/svg" xmlns:xlink="http://www.w3.org/1999/xlink" x="0px" y="0px"
	 viewBox="0 0 91.7 54.4" style="enable-background:new 0 0 91.7 54.4;" xml:space="preserve">
<style type="text/css">
	.st0{fill:#53B748;}
	.st1{fill:#016B9F;}
</style>
<g id="Group_105" transform="translate(-157.591 5885.454)">
	<g id="Group_104" transform="translate(0 -0.144)">
		<path id="Path_424" class="st0" d="M159.7-5837.1c1,0,1.8,0.8,1.8,1.8c0,0.1,0,0.1,0,0.2c0,0.1,0,0.3,0,0.3h-3.4
			c0,0.9,0.7,1.7,1.6,1.7c0,0,0.1,0,0.1,0c0.5,0,1-0.2,1.3-0.5l0.3,0.5c-0.5,0.4-1,0.6-1.6,0.6c-1.2,0-2.2-0.9-2.3-2.1
			c0-0.1,0-0.1,0-0.2c-0.1-1.2,0.8-2.2,2-2.3C159.6-5837.1,159.7-5837.1,159.7-5837.1z M161-5835.3c0.1-0.7-0.4-1.3-1.1-1.3
			c0,0-0.1,0-0.1,0c-0.8,0-1.4,0.6-1.5,1.3L161-5835.3z"/>
		<path id="Path_425" class="st0" d="M162.7-5837h0.6v0.7c0,0.2,0,0.3,0,0.3h0c0.3-0.6,0.9-1.1,1.6-1.1c0.7-0.1,1.3,0.4,1.3,1
			c0,0,0,0,0,0.1h0c0.3-0.6,0.9-1.1,1.6-1.1c1.1,0,1.4,0.6,1.4,1.7v2.8h-0.6v-2.6c0-0.7-0.1-1.3-1-1.3c-0.7,0.1-1.2,0.6-1.4,1.2
			c-0.1,0.2-0.1,0.4-0.1,0.6v2.1h-0.6v-2.6c0-0.7-0.1-1.3-0.9-1.3c-0.7,0.1-1.3,0.6-1.4,1.3c0,0.2-0.1,0.4-0.1,0.6v2.1h-0.6
			L162.7-5837L162.7-5837z"/>
		<path id="Path_426" class="st0" d="M170.6-5837h0.6v0.4c0,0.2,0,0.3,0,0.3h0c0.3-0.6,0.9-0.9,1.5-0.9c1.2,0,1.9,0.9,1.9,2.3
			c0.1,1.1-0.7,2.1-1.8,2.3c-0.1,0-0.1,0-0.2,0c-0.6,0-1.2-0.3-1.4-0.8h0c0,0,0,0.2,0,0.4v2.1h-0.6L170.6-5837L170.6-5837z
			 M172.6-5833.1c0.8,0,1.4-0.7,1.4-1.8c0-1.1-0.6-1.7-1.4-1.7c-0.7,0-1.4,0.5-1.4,1.8C171.1-5834,171.7-5833.2,172.6-5833.1
			C172.6-5833.1,172.6-5833.1,172.6-5833.1L172.6-5833.1z"/>
		<path id="Path_427" class="st0" d="M177.7-5837.1c1.2,0,2.3,1,2.3,2.2c0,0,0,0,0,0.1c0,1.3-1,2.3-2.3,2.4c-1.3,0-2.3-1-2.4-2.3
			C175.4-5836.1,176.4-5837.1,177.7-5837.1C177.7-5837.1,177.7-5837.1,177.7-5837.1z M177.7-5833.1c1,0,1.7-0.8,1.7-1.7c0,0,0,0,0,0
			c0-0.9-0.8-1.7-1.7-1.7c-0.9,0-1.7,0.8-1.7,1.7C176-5833.9,176.7-5833.1,177.7-5833.1C177.7-5833.1,177.7-5833.1,177.7-5833.1z"/>
		<path id="Path_428" class="st0" d="M180.6-5837h0.6l1.1,3.2c0.1,0.2,0.1,0.5,0.1,0.5h0c0,0,0.1-0.3,0.1-0.5l1.1-3.2h0.6l1.1,3.2
			c0.1,0.2,0.1,0.5,0.1,0.5h0c0,0,0.1-0.3,0.1-0.5l1.1-3.2h0.6l-1.5,4.4h-0.6l-1.1-3.1c-0.1-0.2-0.1-0.5-0.1-0.5h0
			c0,0-0.1,0.3-0.1,0.5l-1.1,3.1h-0.6L180.6-5837z"/>
		<path id="Path_429" class="st0" d="M189.9-5837.1c1,0,1.8,0.8,1.8,1.8c0,0.1,0,0.1,0,0.2c0,0.1,0,0.3,0,0.3h-3.4
			c0,0.9,0.7,1.7,1.6,1.7c0,0,0.1,0,0.1,0c0.5,0,1-0.2,1.3-0.5l0.3,0.5c-0.5,0.4-1,0.6-1.6,0.6c-1.2,0-2.2-0.9-2.3-2.1
			c0-0.1,0-0.1,0-0.2c-0.1-1.2,0.8-2.2,2-2.3C189.8-5837.1,189.9-5837.1,189.9-5837.1z M191.2-5835.3c0.1-0.7-0.4-1.3-1.1-1.3
			c0,0-0.1,0-0.1,0c-0.8,0-1.4,0.6-1.5,1.3H191.2z"/>
		<path id="Path_430" class="st0" d="M192.9-5837h0.6v0.8c0,0.2,0,0.3,0,0.3h0c0.1-0.7,0.7-1.1,1.4-1.2c0.1,0,0.2,0,0.2,0v0.6
			c-0.1,0-0.1,0-0.2,0c-0.6,0-1.1,0.5-1.3,1.1c-0.1,0.3-0.1,0.6-0.1,0.9v1.8h-0.6L192.9-5837z"/>
		<path id="Path_431" class="st0" d="M197.8-5837.1c1,0,1.8,0.8,1.8,1.8c0,0.1,0,0.1,0,0.2c0,0.1,0,0.3,0,0.3h-3.4
			c0,0.9,0.7,1.7,1.6,1.7c0,0,0.1,0,0.1,0c0.5,0,1-0.2,1.3-0.5l0.3,0.5c-0.5,0.4-1,0.6-1.6,0.6c-1.2,0-2.2-0.9-2.3-2.1
			c0-0.1,0-0.1,0-0.2c-0.1-1.2,0.8-2.2,2-2.3C197.6-5837.1,197.7-5837.1,197.8-5837.1z M199-5835.3c0.1-0.7-0.4-1.3-1.1-1.3
			c0,0-0.1,0-0.1,0c-0.8,0-1.4,0.6-1.5,1.3H199z"/>
		<path id="Path_432" class="st0" d="M202.4-5837.1c0.6,0,1.1,0.3,1.4,0.8h0c0,0,0-0.1,0-0.3v-2.1h0.6v6.1h-0.6v-0.5
			c0-0.1,0-0.2,0-0.3h0c-0.3,0.6-0.9,0.9-1.5,0.9c-1.2,0-1.9-0.9-1.9-2.3c-0.1-1.1,0.7-2.1,1.8-2.3
			C202.3-5837.1,202.3-5837.1,202.4-5837.1z M202.4-5833.1c0.7,0,1.4-0.5,1.4-1.8c0-0.9-0.5-1.7-1.4-1.7c-0.8,0-1.4,0.7-1.4,1.7
			S201.6-5833.1,202.4-5833.1L202.4-5833.1z"/>
		<path id="Path_433" class="st0" d="M209.3-5838.7h0.4v0.6h-0.4V-5838.7z M209.4-5837h0.4v4.3h-0.4V-5837z"/>
		<path id="Path_434" class="st0" d="M211.2-5837h0.4v0.8c0,0.1,0,0.2,0,0.4h0c0.3-0.7,1-1.2,1.8-1.2c1.1,0,1.4,0.7,1.4,1.7v2.8
			h-0.4v-2.6c0-0.8-0.1-1.5-1.1-1.5c-0.8,0-1.5,0.6-1.8,1.4c-0.1,0.2-0.1,0.4-0.1,0.6v2.1h-0.4V-5837z"/>
		<path id="Path_435" class="st0" d="M216.3-5837h0.4v0.8c0,0.1,0,0.2,0,0.4h0c0.3-0.7,1-1.2,1.8-1.2c1.1,0,1.4,0.7,1.4,1.7v2.8
			h-0.4v-2.6c0-0.8-0.1-1.5-1.1-1.5c-0.8,0-1.5,0.6-1.8,1.4c-0.1,0.2-0.1,0.4-0.1,0.6v2.1h-0.4V-5837z"/>
		<path id="Path_436" class="st0" d="M223.3-5837.1c1.2,0,2.2,1,2.3,2.2c0,0,0,0,0,0c0,1.2-1,2.2-2.2,2.2s-2.2-1-2.2-2.2l0,0
			C221.1-5836.1,222.1-5837.1,223.3-5837.1C223.3-5837.1,223.3-5837.1,223.3-5837.1z M223.3-5832.9c1,0,1.9-0.9,1.9-1.9c0,0,0,0,0,0
			c0-1-0.8-1.9-1.8-1.9c-1,0-1.9,0.8-1.9,1.8c0,0,0,0.1,0,0.1C221.5-5833.8,222.3-5832.9,223.3-5832.9
			C223.3-5832.9,223.3-5832.9,223.3-5832.9z"/>
		<path id="Path_437" class="st0" d="M226.2-5837h0.4l1.3,3.4c0.1,0.2,0.1,0.3,0.1,0.5h0c0,0,0.1-0.3,0.1-0.5l1.3-3.4h0.4l-1.7,4.3
			h-0.3L226.2-5837z"/>
		<path id="Path_438" class="st0" d="M233.2-5835.3h0.3v-0.1c0-1-0.5-1.3-1.2-1.3c-0.4,0-0.9,0.1-1.2,0.4l-0.2-0.3
			c0.4-0.3,0.9-0.5,1.5-0.5c1,0,1.5,0.6,1.5,1.6v2.8h-0.4v-0.6c0-0.1,0-0.3,0-0.4h0c-0.2,0.6-0.8,1-1.5,1.1
			c-0.7,0.1-1.4-0.5-1.5-1.2c0,0,0-0.1,0-0.1C230.5-5835.3,232.4-5835.3,233.2-5835.3z M232-5832.9c0.9-0.1,1.6-0.9,1.5-1.8v-0.2
			h-0.3c-0.7,0-2.3,0-2.3,1.1C230.9-5833.3,231.4-5832.9,232-5832.9C232-5832.9,232-5832.9,232-5832.9L232-5832.9z"/>
		<path id="Path_439" class="st0" d="M235.4-5836.6h-0.6v-0.3h0.6v-1.2h0.4v1.2h1.1v0.3h-1.1v2.4c0,1.1,0.7,1.3,1,1.3
			c0.1,0,0.1,0,0.2,0v0.3c-0.1,0-0.1,0-0.2,0c-0.5,0-1.4-0.2-1.4-1.6L235.4-5836.6L235.4-5836.6z"/>
		<path id="Path_440" class="st0" d="M238-5838.7h0.4v0.6H238V-5838.7z M238-5837h0.4v4.3H238V-5837z"/>
		<path id="Path_441" class="st0" d="M241.9-5837.1c1.2,0,2.2,1,2.3,2.2c0,0,0,0,0,0c0,1.2-1,2.2-2.2,2.2s-2.2-1-2.2-2.2l0,0
			C239.6-5836.1,240.6-5837.1,241.9-5837.1C241.8-5837.1,241.8-5837.1,241.9-5837.1z M241.9-5832.9c1,0,1.9-0.9,1.9-1.9c0,0,0,0,0,0
			c0-1-0.8-1.9-1.8-1.9c-1,0-1.9,0.8-1.9,1.8c0,0,0,0.1,0,0.1C240-5833.8,240.8-5832.9,241.9-5832.9
			C241.8-5832.9,241.8-5832.9,241.9-5832.9z"/>
		<path id="Path_442" class="st0" d="M245.3-5837h0.4v0.8c0,0.1,0,0.2,0,0.4h0c0.3-0.7,1-1.2,1.8-1.2c1.1,0,1.4,0.7,1.4,1.7v2.8
			h-0.4v-2.6c0-0.8-0.1-1.5-1.1-1.5c-0.8,0-1.5,0.6-1.8,1.4c-0.1,0.2-0.1,0.4-0.1,0.6v2.1h-0.4V-5837z"/>
		<g>
			<g>
				<path class="st1" d="M172.4-5850.7h-8.8l-2.3,6.7H158l8.4-23.3h3.4l8.4,23.3h-3.4L172.4-5850.7z M168-5864.1
					c0,0-0.5,2.1-0.9,3.3l-2.6,7.4h7.1l-2.6-7.4C168.6-5862,168.1-5864.1,168-5864.1L168-5864.1z"/>
				<path class="st1" d="M180.5-5848.3c0,0,1.9,1.9,4.8,1.9c1.4,0,2.8-0.7,2.8-2.1c0-3.1-8.6-2.4-8.6-7.9c0-3,2.7-4.8,6-4.8
					c3.7,0,5.4,1.8,5.4,1.8l-1.3,2.4c0,0-1.5-1.5-4.1-1.5c-1.4,0-2.7,0.6-2.7,2c0,3,8.6,2.3,8.6,7.8c0,2.8-2.4,4.9-6,4.9
					c-4.1,0-6.3-2.4-6.3-2.4L180.5-5848.3z"/>
				<path class="st1" d="M194-5848.3c0,0,1.9,1.9,4.8,1.9c1.4,0,2.8-0.7,2.8-2.1c0-3.1-8.6-2.4-8.6-7.9c0-3,2.7-4.8,6-4.8
					c3.7,0,5.4,1.8,5.4,1.8l-1.3,2.4c0,0-1.5-1.5-4.1-1.5c-1.4,0-2.7,0.6-2.7,2c0,3,8.6,2.3,8.6,7.8c0,2.8-2.4,4.9-6,4.9
					c-4.1,0-6.3-2.4-6.3-2.4L194-5848.3z"/>
				<path class="st1" d="M214.5-5861.1c4.7,0,7.2,3.5,7.2,7.8c0,0.4-0.1,1.4-0.1,1.4h-12.2c0.2,3.7,2.8,5.5,5.7,5.5
					c2.9,0,5-1.9,5-1.9l1.3,2.3c0,0-2.5,2.4-6.5,2.4c-5.3,0-8.9-3.8-8.9-8.8C206.1-5857.7,209.7-5861.1,214.5-5861.1 M218.4-5854.3
					c-0.1-2.9-1.9-4.3-4-4.3c-2.4,0-4.4,1.5-4.9,4.3H218.4z"/>
				<path class="st1" d="M225.6-5857.9h-2.2v-2.6h2.3v-4.8h3.1v4.8h4v2.6h-4v7.4c0,3.3,2.3,3.8,3.6,3.8c0.5,0,0.8-0.1,0.8-0.1v2.8
					c0,0-0.5,0.1-1.1,0.1c-2.1,0-6.4-0.7-6.4-6.2C225.6-5850.1,225.6-5857.9,225.6-5857.9z"/>
				<path class="st1" d="M234.9-5845.8l8.4-10.6c0.7-0.9,1.4-1.6,1.4-1.6v-0.1c0,0-0.5,0.1-1.6,0.1h-7.8v-2.7H249v1.8l-8.4,10.6
					c-0.7,0.9-1.4,1.5-1.4,1.5v0.1c0,0,0.6-0.1,1.7-0.1h8.5v2.7h-14.4L234.9-5845.8L234.9-5845.8z"/>
				<path class="st0" d="M246.4-5865.3c0.1,0.1,0.1,0.2,0.2,0.4c0,0.1,0,0.2,0,0.4c0,0-0.1,0.1-0.1,0.1c0,0-0.1,0-0.1,0
					c-0.2-0.1-0.4-0.3-0.5-0.6c-4.4-6.9-15-17.7-34.2-17.8s-30.7,16.1-30.7,16.1c-0.5,0.6-1,1.2-1.7,1.6c-0.3,0.2-0.7,0.3-1,0.4
					c-0.2,0-0.4,0-0.5,0c-0.5-0.1-0.8-0.4-0.9-0.9c0-0.1-0.1-0.1-0.1-0.2c0-0.2,0-0.4,0-0.6c0-0.1,0.1-0.1,0.1-0.2
					c0-0.1,0-0.2,0.1-0.3c0.2-0.8,0.7-1.6,1.2-2.2c0,0,11.9-16.5,33.6-15.9S243.8-5869.8,246.4-5865.3z"/>
			</g>
		</g>
	</g>
</g>
</svg>
