<?xml version="1.0" encoding="UTF-8"?>
<svg version="1.1" xmlns="http://www.w3.org/2000/svg" width="1071" height="908">
<path d="M0 0 C9.9 0 19.8 0 30 0 C32.97 3.96 35.94 7.92 39 12 C40.55689942 14.04594067 42.1181393 16.0886022 43.6875 18.125 C44.08775391 18.64449219 44.48800781 19.16398437 44.90039062 19.69921875 C49.18884471 25.25808705 53.50503433 30.79544157 57.81811523 36.33520508 C62.90453696 42.87053254 67.95798996 49.4303611 73 56 C74.66609253 58.16710847 76.33302098 60.33357339 78 62.5 C80.45472115 65.69018605 82.90864417 68.88096517 85.359375 72.07421875 C90.21714911 78.40043765 95.09992302 84.70648008 100 91 C105.69372762 98.31286229 111.35636721 105.64842571 117 113 C117.87475733 114.13560364 118.74976295 115.27101606 119.625 116.40625 C120.06424805 116.97625732 120.50349609 117.54626465 120.95605469 118.13354492 C122.16319861 119.6998711 123.37064991 121.26596036 124.578125 122.83203125 C127.40986227 126.53612629 130.20249036 130.26998715 133 134 C133.495 67.67 133.495 67.67 134 0 C208.58 0 283.16 0 360 0 C360 12.21 360 24.42 360 37 C325.68 37 291.36 37 256 37 C256 53.17 256 69.34 256 86 C287.35 86 318.7 86 351 86 C351 97.55 351 109.1 351 121 C319.65 121 288.3 121 256 121 C256 138.82 256 156.64 256 175 C290.65 175 325.3 175 361 175 C361 187.21 361 199.42 361 212 C333.14044595 212.2779076 305.28122628 212.49199465 277.42056465 212.62174606 C264.4839977 212.68359633 251.54830831 212.7679027 238.61230469 212.90527344 C227.3358539 213.02496377 216.06003867 213.10231793 204.78297031 213.12906194 C198.81265439 213.14469344 192.84415651 213.18136563 186.87442398 213.26876068 C181.25140363 213.35041056 175.63094403 213.37530199 170.00738716 213.35729218 C167.94737244 213.36058506 165.88726936 213.38434669 163.82776833 213.4304657 C147.48467886 213.77839205 147.48467886 213.77839205 142.64284897 209.43466949 C139.99956816 206.55252351 138.00492876 203.35420985 136 200 C134.60154113 198.11138087 133.18725379 196.23426625 131.75 194.375 C131.02167969 193.39144531 130.29335938 192.40789062 129.54296875 191.39453125 C126.44696864 187.23424178 123.25201243 183.15124696 120.0625 179.0625 C116.02606755 173.88673465 111.99588174 168.70715396 108 163.5 C104.02101001 158.31684199 100.01462082 153.15560138 96 148 C90.30622794 140.68718566 84.64267946 133.35229922 79 126 C77.33390747 123.83289153 75.66697902 121.66642661 74 119.5 C71.54527885 116.30981395 69.09135583 113.11903483 66.640625 109.92578125 C62.88436295 105.03404782 59.11983756 100.14949869 55.328125 95.28515625 C54.69487305 94.47264404 54.06162109 93.66013184 53.40917969 92.82299805 C52.15560015 91.21562695 50.9010728 89.60899451 49.64550781 88.00317383 C49.07155273 87.26736084 48.49759766 86.53154785 47.90625 85.7734375 C47.39384766 85.11778809 46.88144531 84.46213867 46.35351562 83.78662109 C45.17709844 82.23376738 44.08064255 80.62096383 43 79 C42.99576806 79.67937087 42.99153612 80.35874174 42.98717594 81.05869961 C42.88400918 97.56589931 42.7753927 114.07305315 42.66066074 130.58017635 C42.60531029 138.56279452 42.55182536 146.54541716 42.50268555 154.52807617 C42.45986597 161.48326603 42.4135937 168.43842273 42.36312145 175.39356142 C42.33650249 179.07849979 42.31164906 182.7634315 42.29092598 186.44840813 C42.26776498 190.55541765 42.23689778 194.66233366 42.20532227 198.76928711 C42.1995668 199.99998932 42.19381134 201.23069153 42.18788147 202.49868774 C42.17319824 204.16675224 42.17319824 204.16675224 42.15821838 205.86851501 C42.15176583 206.84100661 42.14531328 207.81349821 42.1386652 208.81545925 C42 211 42 211 41 212 C27.47 212 13.94 212 0 212 C0 142.04 0 72.08 0 0 Z " fill="#054C6B" transform="translate(423,292)"/>
<path d="M0 0 C1.19905472 0.00090637 1.19905472 0.00090637 2.42233276 0.00183105 C107.15505094 0.2147209 213.36371859 39.66446665 293.5390625 113.78515625 C295.65325441 115.74924692 297.7978545 117.63700349 300 119.5 C308.37382787 126.7678506 316.34369452 134.82537083 323.50390625 143.2890625 C325.4059365 145.51650033 327.3910772 147.65772971 329.375 149.8125 C351.46024701 174.35580148 369.72561061 202.56541875 385.25 231.625 C385.64074707 232.35332031 386.03149414 233.08164063 386.43408203 233.83203125 C389.125 238.94220562 389.125 238.94220562 389.125 241.1875 C388.465 241.1875 387.805 241.1875 387.125 241.1875 C386.34189453 239.65996094 386.34189453 239.65996094 385.54296875 238.1015625 C371.20275515 210.41045784 353.5892448 184.70999442 333.125 161.1875 C332.48949219 160.45144531 331.85398437 159.71539062 331.19921875 158.95703125 C329.51986825 157.02288275 327.82383726 155.10453654 326.125 153.1875 C325.52171875 152.49140625 324.9184375 151.7953125 324.296875 151.078125 C319.25609223 145.34471559 313.95003557 139.90678094 308.5625 134.5 C307.85432129 133.787229 307.14614258 133.07445801 306.41650391 132.34008789 C301.81520976 127.75211692 297.06174056 123.41071456 292.125 119.1875 C291.11581923 118.30997195 290.10669934 117.43237387 289.09765625 116.5546875 C262.06758249 93.40678541 232.15672802 73.51026085 200.04785156 58.11425781 C198.11508443 57.18272099 196.19419384 56.22945692 194.2734375 55.2734375 C150.19888233 33.61031645 100.96080016 21.37899582 52.125 17.1875 C50.91585938 17.07664062 49.70671875 16.96578125 48.4609375 16.8515625 C-21.48117504 11.58097561 -90.80284939 25.3230863 -154.875 53.1875 C-155.6494043 53.52362305 -156.42380859 53.85974609 -157.22167969 54.20605469 C-187.67138525 67.58064088 -216.45853497 86.08516928 -242.31103516 106.92773438 C-243.77858785 108.10984051 -245.25425762 109.28184941 -246.73046875 110.453125 C-252.95730189 115.44896804 -258.83837528 120.74865403 -264.6640625 126.19921875 C-266.72083005 128.1228722 -268.79495184 130.02208417 -270.8984375 131.89453125 C-275.67878888 136.15755693 -280.15112136 140.43213963 -284.2734375 145.3359375 C-285.85282644 147.1618652 -287.5120697 148.82555574 -289.25 150.5 C-292.98143547 154.17326164 -296.22674657 158.17932373 -299.50390625 162.2578125 C-301.83022096 165.1321717 -304.22278994 167.93898596 -306.625 170.75 C-322.80163478 190.19187231 -336.90979416 211.79028677 -348.76171875 234.109375 C-349.83805028 236.11852719 -350.94507698 238.10722019 -352.0625 240.09375 C-384.06268423 297.63109758 -399.16059746 366.64875209 -399.0625 432.0625 C-399.06189575 432.81862579 -399.0612915 433.57475159 -399.06066895 434.35379028 C-398.92572023 497.17982364 -384.06537659 558.65147292 -356.875 615.1875 C-356.46813965 616.04891602 -356.0612793 616.91033203 -355.64208984 617.79785156 C-333.06140573 665.5472638 -297.13963967 714.59931086 -255.2265625 747.33203125 C-252.94502379 749.13224867 -250.82214883 751.02924742 -248.6875 753 C-235.86446003 764.46610453 -221.26878413 773.84788313 -206.875 783.1875 C-206.26591797 783.58420898 -205.65683594 783.98091797 -205.02929688 784.38964844 C-124.30772131 836.61837139 -23.00299926 858.42360617 72.125 845.1875 C73.3428418 845.02121094 74.56068359 844.85492187 75.81542969 844.68359375 C152.31065806 833.89554901 225.00211003 802.00167963 284.125 752.1875 C284.6420752 751.7553418 285.15915039 751.32318359 285.69189453 750.87792969 C300.78456024 738.24655685 314.98459686 724.84608546 328.125 710.1875 C328.62950684 709.62772461 329.13401367 709.06794922 329.65380859 708.49121094 C334.73214507 702.82260354 339.54111319 697.0657169 343.9609375 690.86328125 C344.62101807 689.94571045 345.28109863 689.02813965 345.96118164 688.08276367 C347.25746091 686.26573083 348.5335663 684.43409893 349.78686523 682.5871582 C351.45886601 680.24299174 353.00676826 678.13879174 355.125 676.1875 C359.07421875 675.6171875 359.07421875 675.6171875 362.125 676.1875 C360.87637487 679.5852828 359.47278645 682.36020987 357.32421875 685.26953125 C356.76589355 686.02854736 356.20756836 686.78756348 355.63232422 687.56958008 C355.03178223 688.37161865 354.43124023 689.17365723 353.8125 690 C353.18875488 690.83877686 352.56500977 691.67755371 351.92236328 692.54174805 C345.88200376 700.60953953 339.60991895 708.47354783 333.125 716.1875 C332.28686768 717.19627197 331.44873535 718.20504395 330.58520508 719.24438477 C323.45101693 727.75828822 315.88499071 735.73989357 308.0065918 743.56665039 C306.05344512 745.50900484 304.1113238 747.46192958 302.16992188 749.41601562 C295.12396315 756.46939731 287.95789703 763.00949893 280.125 769.1875 C279.02273733 770.12176713 277.92642836 771.06316925 276.83984375 772.015625 C256.78803181 789.50103063 233.98321551 804.49217857 210.49609375 816.92773438 C207.92515232 818.29367937 205.36934319 819.68598441 202.8125 821.078125 C115.28931089 868.25633509 11.27765885 882.16007797 -118.48046875 855.01953125 C-125.65450129 852.86834808 -132.77528051 850.57169471 -139.875 848.1875 C-140.86290527 847.85637207 -141.85081055 847.52524414 -142.86865234 847.18408203 C-177.95205301 835.26770875 -212.57639751 818.61075428 -242.875 797.1875 C-243.41205566 796.81206055 -243.94911133 796.43662109 -244.50244141 796.04980469 C-259.74697193 785.38935381 -274.55520019 774.08230823 -288.29296875 761.5234375 C-289.69332835 760.25654636 -291.09970407 758.99566092 -292.53588867 757.76953125 C-298.36530414 752.7795456 -303.81597723 747.43266967 -309.23803711 742.00976562 C-310.80108734 740.44889673 -312.37197365 738.89622112 -313.94335938 737.34375 C-319.58372695 731.73460361 -324.83137702 725.99872572 -329.79272461 719.76611328 C-331.78252842 717.3020134 -333.84951983 714.94742619 -335.9765625 712.6015625 C-340.00511094 708.11454492 -343.65551406 703.40108486 -347.25 698.5625 C-348.22598145 697.25273193 -348.22598145 697.25273193 -349.22167969 695.91650391 C-354.70748899 688.50482538 -359.93530438 680.97278093 -364.875 673.1875 C-365.29668457 672.52669434 -365.71836914 671.86588867 -366.15283203 671.18505859 C-404.08947589 611.40993237 -428.88495253 542.05889657 -433.875 471.1875 C-433.9589502 470.0631958 -434.04290039 468.9388916 -434.12939453 467.78051758 C-439.22597551 394.3450766 -426.35853002 321.23298508 -395.875 254.1875 C-395.26108398 252.81948242 -395.26108398 252.81948242 -394.63476562 251.42382812 C-379.77116593 218.46541141 -360.2084987 186.47151358 -336.4375 159.15234375 C-333.93308153 156.25470103 -331.52329263 153.29821228 -329.125 150.3125 C-326.10443023 146.59859659 -322.97598542 143.16701097 -319.53515625 139.84375 C-317.81975165 138.13238165 -316.25702143 136.34560592 -314.6875 134.5 C-308.00153561 126.75994213 -300.63359557 119.50346754 -292.84375 112.87890625 C-290.59718493 110.94882158 -288.42916096 108.94331861 -286.25 106.9375 C-280.6005222 101.84172293 -274.64648039 97.18500452 -268.62451172 92.54296875 C-266.98087542 91.26952907 -265.35004329 89.98160392 -263.72265625 88.6875 C-196.17276603 35.53348802 -110.20884826 5.59590075 0 0 Z " fill="#084D6D" transform="translate(468.875,19.8125)"/>
<path d="M0 0 C22.6768445 19.72853214 35.50424972 46.05099661 38 76 C39.5858394 107.71678794 29.18083446 136.34283505 8.0859375 159.75 C-8.40880453 177.43252871 -30.3507967 187.98861615 -54 192 C-54.75023437 192.13148438 -55.50046875 192.26296875 -56.2734375 192.3984375 C-83.8418028 196.30659657 -113.01334883 189.1292899 -135.75 173.1875 C-159.83177717 154.62972869 -176.45355593 129.31877796 -180.53125 98.8046875 C-183.77994146 69.25882314 -177.03361944 39.96617462 -159 16 C-140.58168681 -6.48340847 -115.62132754 -21.26068888 -86.48876953 -24.77294922 C-55.08469871 -27.63794685 -24.60658908 -20.35299477 0 0 Z M-120 33 C-120.63808594 33.62648438 -121.27617187 34.25296875 -121.93359375 34.8984375 C-135.63792287 49.3658139 -138.64447949 67.3099757 -138.46850586 86.42016602 C-137.9491025 105.04681142 -132.10019489 122.99813071 -118.83203125 136.53125 C-103.38574541 149.99615021 -85.38674931 155.31457897 -65 154 C-46.14176668 152.08382136 -31.0345119 144.03400874 -18.8828125 129.4609375 C-6.3880896 112.56893014 -2.7651566 91.31814018 -5.49609375 70.76171875 C-8.0723326 54.44101281 -15.04186903 38.69667705 -28 28 C-56.07382095 7.86624962 -95.13664984 8.17929709 -120 33 Z " fill="#044B6B" transform="translate(372,314)"/>
<path d="M0 0 C45.87 0 91.74 0 139 0 C139 12.21 139 24.42 139 37 C104.68 37 70.36 37 35 37 C35 53.17 35 69.34 35 86 C66.35 86 97.7 86 130 86 C130 97.55 130 109.1 130 121 C98.65 121 67.3 121 35 121 C35 138.82 35 156.64 35 175 C69.65 175 104.3 175 140 175 C140 186.88 140 198.76 140 211 C93.8 211 47.6 211 0 211 C0 141.37 0 71.74 0 0 Z " fill="#02496A" transform="translate(644,292)"/>
<path d="M0 0 C15.18 0 30.36 0 46 0 C46 69.63 46 139.26 46 211 C92.2 211 138.4 211 186 211 C186 211.33 186 211.66 186 212 C115.05 212 44.1 212 -29 212 C-29 211.67 -29 211.34 -29 211 C-19.1 211 -9.2 211 1 211 C1 155.89 1 100.78 1 44 C-9.56 44 -20.12 44 -31 44 C-33.06939705 27.93753718 -33.06939705 27.93753718 -31 22 C-26.1653437 16.40171969 -19.22245383 13.349297 -12.62109375 10.27685547 C-9.4271319 8.72092957 -6.50755 6.87635006 -3.55859375 4.90258789 C-2 4 -2 4 0 4 C0 2.68 0 1.36 0 0 Z " fill="#FBFC05" transform="translate(598,292)"/>
<path d="M0 0 C55.53222453 0 55.53222453 0 65 9 C71.09800142 17.14353354 72.75060892 23.94184044 72 34 C70.72740627 40.3429278 67.9680404 44.95951625 64 50 C64.886875 50.639375 65.77375 51.27875 66.6875 51.9375 C71.40187293 55.83635344 74.08903907 61.26711722 76 67 C76.90563112 78.39801447 76.19871868 86.67723404 68.6875 95.8125 C48.60320374 112.160183 26.63774389 106 0 106 C0 71.02 0 36.04 0 0 Z M17 16 C17 24.58 17 33.16 17 42 C21.18153431 42.06905286 25.3610734 42.12872548 29.54272461 42.16479492 C30.96369141 42.1798376 32.38461213 42.20027704 33.80541992 42.22631836 C35.85346886 42.26290347 37.9009015 42.27977097 39.94921875 42.29296875 C41.17987061 42.3086792 42.41052246 42.32438965 43.6784668 42.34057617 C47.30742508 41.96847791 49.12172368 41.19948309 52 39 C55.03679707 34.44480439 55.30932821 30.65912405 54.3125 25.3125 C52.89759825 21.74155749 52.14672641 20.1785029 49 18 C42.10198214 15.68649059 35.13037614 15.7579416 27.9375 15.875 C22.5234375 15.936875 22.5234375 15.936875 17 16 Z M17 59 C17 69.23 17 79.46 17 90 C21.269375 90.061875 25.53875 90.12375 29.9375 90.1875 C31.26515381 90.21481201 32.59280762 90.24212402 33.96069336 90.27026367 C42.31347771 90.32854328 49.46700203 90.0177691 56 84.4375 C58.88939971 79.47134425 59.78219935 74.61595664 58.5546875 68.94140625 C56.99456097 64.77210258 54.67740023 62.39031015 51 60 C47.46173745 58.82057915 44.65851274 58.88710811 40.92578125 58.90234375 C39.04886597 58.90609009 39.04886597 58.90609009 37.1340332 58.90991211 C35.54292725 58.91901611 33.95182129 58.92812012 32.3125 58.9375 C24.7328125 58.9684375 24.7328125 58.9684375 17 59 Z " fill="#0A4F6E" transform="translate(309,147)"/>
<path d="M0 0 C68.105 0 68.105 0 85.78125 16.78125 C96.02454601 27.02454601 102.07432882 39.38561554 103 54 C103.05285156 54.72316406 103.10570312 55.44632813 103.16015625 56.19140625 C103.74927593 71.73904297 98.8104794 86.64941021 88.625 98.4375 C77.31513802 110.05149272 66.04538256 115.08265772 50 118 C33.5 118 17 118 0 118 C0 79.06 0 40.12 0 0 Z M15 14 C15 43.7 15 73.4 15 104 C47.32853818 105.61684424 47.32853818 105.61684424 74.75 91.875 C85.01174687 80.95940731 87.64744319 69.01205137 87.3046875 54.546875 C86.74045689 43.36485018 82.60850453 34.18105086 75 26 C57.02295038 10.01156206 39.84936888 14 15 14 Z " fill="#0C5170" transform="translate(525,543)"/>
<path d="M0 0 C11 0 11 0 13.8046875 2.2109375 C14.48789062 3.25507812 15.17109375 4.29921875 15.875 5.375 C16.47006348 6.2419751 16.47006348 6.2419751 17.07714844 7.12646484 C17.94601524 8.39314615 18.80031982 9.6699104 19.64160156 10.95507812 C21.54986788 13.82776661 23.58448192 16.6017377 25.61743164 19.38696289 C27.28337114 21.67074746 28.9338445 23.96509654 30.58203125 26.26171875 C34.0002561 31.01192332 37.46222791 35.728926 40.9375 40.4375 C41.51781982 41.22390869 42.09813965 42.01031738 42.69604492 42.82055664 C44.46335124 45.21420669 46.23151099 47.60722364 48 50 C50.35526633 53.18668964 52.70922918 56.37433654 55.0625 59.5625 C55.5670874 60.2443335 56.0716748 60.92616699 56.59155273 61.62866211 C62.79728242 70.0365807 68.88047801 78.5268157 75 87 C75.33 58.29 75.66 29.58 76 0 C80.95 0 85.9 0 91 0 C91 38.94 91 77.88 91 118 C80 118 80 118 77.44116211 116.29443359 C76.89210205 115.50375488 76.34304199 114.71307617 75.77734375 113.8984375 C75.14231934 113.02300293 74.50729492 112.14756836 73.85302734 111.24560547 C72.90484131 109.82465576 72.90484131 109.82465576 71.9375 108.375 C71.25123535 107.41094238 70.5649707 106.44688477 69.85791016 105.45361328 C67.87378876 102.65621244 65.93544447 99.83118305 64 97 C62.6880089 95.15333209 61.36259514 93.31721113 60.03442383 91.48217773 C58.85795349 89.85137035 57.69747891 88.21007602 56.5390625 86.56640625 C53.49940771 82.27347465 50.37421854 78.0440852 47.25 73.8125 C46.65977051 73.01287842 46.06954102 72.21325684 45.46142578 71.3894043 C43.64174861 68.92567855 41.82106078 66.4627032 40 64 C37.58205766 60.73010677 35.16561264 57.45911453 32.75 54.1875 C32.22051758 53.47247314 31.69103516 52.75744629 31.14550781 52.02075195 C26.01360935 45.06980396 21.02443116 38.03420363 16 31 C15.67 59.71 15.34 88.42 15 118 C10.05 118 5.1 118 0 118 C0 79.06 0 40.12 0 0 Z " fill="#0B506F" transform="translate(727,543)"/>
<path d="M0 0 C0.9245549 -0.00570007 1.8491098 -0.01140015 2.80168152 -0.01727295 C4.76971283 -0.02674712 6.73776018 -0.03326646 8.70581055 -0.03710938 C11.67982062 -0.04671147 14.65310857 -0.0776672 17.62695312 -0.109375 C44.57200973 -0.26189097 44.57200973 -0.26189097 54.91796875 9.203125 C62.58120843 18.39901261 63.9125854 27.42935039 62.91796875 39.203125 C61.12176682 46.33690424 56.78189079 52.52543396 50.7421875 56.7109375 C46.44236749 59.24024339 42.89905952 60.53039148 37.91796875 61.203125 C43.94815 69.01387158 50.09849017 76.67594112 56.55541992 84.13867188 C61.11378815 89.4096349 65.56985571 94.75644412 69.91796875 100.203125 C70.49417969 100.92242187 71.07039063 101.64171875 71.6640625 102.3828125 C72.91796875 104.203125 72.91796875 104.203125 72.91796875 106.203125 C53.75893661 107.98518666 53.75893661 107.98518666 47.91015625 104.31640625 C46.05816532 101.9609273 44.49272999 99.58295067 43.01416016 96.97900391 C40.87855766 93.51923273 38.14994763 90.50024441 35.54296875 87.390625 C30.73365123 81.50129071 26.00883657 75.5482008 21.34423828 69.54370117 C18.36331174 65.16897167 18.36331174 65.16897167 13.97265625 62.7890625 C11.95442708 62.59375 9.93619792 62.3984375 7.91796875 62.203125 C7.92582397 64.14916626 7.92582397 64.14916626 7.93383789 66.13452148 C7.95188344 70.92959915 7.96339912 75.7246738 7.97290039 80.51977539 C7.97794163 82.59855656 7.98477449 84.67733416 7.9934082 86.75610352 C8.00548297 89.73715086 8.01119899 92.71815149 8.015625 95.69921875 C8.02078629 96.63462997 8.02594757 97.5700412 8.03126526 98.53379822 C8.03137856 99.82502342 8.03137856 99.82502342 8.03149414 101.14233398 C8.03371475 101.90400375 8.03593536 102.66567352 8.03822327 103.45042419 C7.91796875 105.203125 7.91796875 105.203125 6.91796875 106.203125 C4.05529308 106.27637668 1.21724975 106.29550705 -1.64453125 106.265625 C-2.45083984 106.26111328 -3.25714844 106.25660156 -4.08789062 106.25195312 C-6.08596881 106.24013018 -8.08400908 106.22219414 -10.08203125 106.203125 C-10.10515175 92.53009938 -10.12294484 78.85707836 -10.13384342 65.18403721 C-10.13907289 58.83581924 -10.14617169 52.4876146 -10.1574707 46.1394043 C-10.16829731 40.01863918 -10.1743076 33.89788691 -10.17690849 27.77711296 C-10.17876315 25.43621557 -10.18238454 23.09531891 -10.18776131 20.75442696 C-10.19496873 17.48804298 -10.19602232 14.22171285 -10.19555664 10.95532227 C-10.19915192 9.97709 -10.20274719 8.99885773 -10.20645142 7.99098206 C-10.20507675 7.10612122 -10.20370209 6.22126038 -10.20228577 5.30958557 C-10.20320756 4.53620126 -10.20412935 3.76281694 -10.20507908 2.96599674 C-9.87550878 -1.75566447 -3.56722912 0.01688667 0 0 Z M7.91796875 16.203125 C7.91796875 26.103125 7.91796875 36.003125 7.91796875 46.203125 C14.10546875 46.326875 14.10546875 46.326875 20.41796875 46.453125 C21.70251953 46.48954102 22.98707031 46.52595703 24.31054688 46.56347656 C32.2159142 46.63972622 37.71647035 45.86249458 43.85546875 40.515625 C46.21241761 35.38579512 46.39932659 30.74853702 44.73046875 25.390625 C41.96203393 20.36641902 41.96203393 20.36641902 37.1237793 17.60522461 C30.81822652 16.12687545 24.81002386 15.96794074 18.35546875 16.078125 C13.18890625 16.14 13.18890625 16.14 7.91796875 16.203125 Z " fill="#0D5170" transform="translate(417.08203125,146.796875)"/>
<path d="M0 0 C59.40910533 0 59.40910533 0 69.28515625 8.2265625 C76.75393486 15.95053855 79.87148986 24.37649511 80 35 C79.15561549 44.11399156 76.08825821 52.01435974 69 58 C62.48128457 63.25789393 56.18262209 65.4216262 48 67 C48.66644531 67.77601563 49.33289063 68.55203125 50.01953125 69.3515625 C54.95042581 75.12129669 59.78671528 80.93900613 64.4375 86.9375 C68.26397027 91.8710515 72.22370519 96.65667168 76.3125 101.375 C88 114.88034861 88 114.88034861 88 118 C72.22660452 119.36500538 72.22660452 119.36500538 67.3046875 116.34765625 C65.27588346 114.0108354 63.63975185 111.62281651 62 109 C60.78848849 107.46506528 59.55855093 105.94453079 58.3125 104.4375 C57.6525 103.60347656 56.9925 102.76945313 56.3125 101.91015625 C54.57304018 99.72114009 52.82412866 97.54215465 51.0625 95.37109375 C50.53551514 94.72156738 50.00853027 94.07204102 49.46557617 93.40283203 C48.35834493 92.04458913 47.24647324 90.69011665 46.13012695 89.33935547 C43.20465245 85.78654458 40.39730119 82.20108202 37.73046875 78.44921875 C36.91775513 77.34731201 36.91775513 77.34731201 36.08862305 76.22314453 C35.06183267 74.82663388 34.06456482 73.40770911 33.10473633 71.96435547 C30.54429869 68.55417879 28.97597251 67.19418388 24.69921875 66.34326172 C21.44989842 66.08671327 18.25825925 65.96319554 15 66 C15.00222061 66.63671127 15.00444122 67.27342255 15.00672913 67.9294281 C15.0287804 74.53115276 15.04390593 81.13286704 15.05493164 87.73461914 C15.05997356 90.20142033 15.06680691 92.66821852 15.07543945 95.13500977 C15.08751125 98.67204529 15.09322956 102.20904145 15.09765625 105.74609375 C15.10281754 106.85649521 15.10797882 107.96689667 15.11329651 109.11094666 C15.11337204 110.13192947 15.11344757 111.15291229 15.11352539 112.20483398 C15.115746 113.10862289 15.11796661 114.0124118 15.12025452 114.94358826 C15 117 15 117 14 118 C9.38 118 4.76 118 0 118 C0 79.06 0 40.12 0 0 Z M15 13 C15 26.2 15 39.4 15 53 C20.445 53.061875 25.89 53.12375 31.5 53.1875 C33.20220703 53.21481201 34.90441406 53.24212402 36.65820312 53.27026367 C38.03254491 53.27903909 39.40689459 53.28668052 40.78125 53.29296875 C41.82104004 53.3159906 41.82104004 53.3159906 42.88183594 53.33947754 C48.80840798 53.3425946 54.38646015 52.1820826 59.05859375 48.28125 C59.51363281 47.6934375 59.96867187 47.105625 60.4375 46.5 C60.91058594 45.9121875 61.38367188 45.324375 61.87109375 44.71875 C65.26238081 39.55554479 64.38650068 32.90689722 64 27 C62.30571291 21.51848296 58.78260474 18.01532259 54 15 C45.95611386 12.23368089 37.25403082 12.76778332 28.875 12.875 C22.006875 12.936875 22.006875 12.936875 15 13 Z " fill="#0C5070" transform="translate(232,543)"/>
<path d="M0 0 C1.07461739 0.00539291 1.07461739 0.00539291 2.17094421 0.01089478 C2.92211517 0.01074875 3.67328613 0.01060272 4.44721985 0.01045227 C6.94166404 0.01115153 9.43603448 0.01894452 11.9304657 0.02676392 C13.65539509 0.02862805 15.38032501 0.03005197 17.10525513 0.03105164 C21.65418448 0.03487719 26.20308211 0.04470779 30.7519989 0.05575562 C35.39025951 0.06596893 40.02852522 0.07054908 44.66679382 0.07559204 C53.77422967 0.08633003 62.88164192 0.1034069 71.98905945 0.12442017 C71.98905945 4.74442017 71.98905945 9.36442017 71.98905945 14.12442017 C51.19905945 14.12442017 30.40905945 14.12442017 8.98905945 14.12442017 C8.98905945 26.33442017 8.98905945 38.54442017 8.98905945 51.12442017 C28.45905945 51.12442017 47.92905945 51.12442017 67.98905945 51.12442017 C67.98905945 55.41442017 67.98905945 59.70442017 67.98905945 64.12442017 C48.51905945 64.12442017 29.04905945 64.12442017 8.98905945 64.12442017 C8.98905945 77.32442017 8.98905945 90.52442017 8.98905945 104.12442017 C30.10905945 104.12442017 51.22905945 104.12442017 72.98905945 104.12442017 C72.98905945 108.74442017 72.98905945 113.36442017 72.98905945 118.12442017 C62.83639794 118.14754409 52.68374265 118.16533551 42.53106022 118.17623234 C37.81726212 118.18146106 33.10348198 118.1885585 28.38969421 118.19985962 C23.84450541 118.21068889 19.29933393 118.21669708 14.75413322 118.21929741 C13.01610987 118.22115159 11.27808751 118.22477206 9.54007149 118.23015022 C7.1142735 118.2373612 4.68854799 118.23841109 2.26274109 118.23794556 C1.53697876 118.24154083 0.81121643 118.24513611 0.0634613 118.24884033 C-4.89688839 118.23847233 -4.89688839 118.23847233 -6.01094055 117.12442017 C-6.1088575 115.62123312 -6.13725854 114.11345884 -6.13792419 112.60708618 C-6.14215393 111.14312912 -6.14215393 111.14312912 -6.14646912 109.64959717 C-6.14444489 108.57007782 -6.14242065 107.49055847 -6.14033508 106.37832642 C-6.1420874 105.2483725 -6.14383972 104.11841858 -6.14564514 102.95422363 C-6.15006637 99.19844044 -6.14712471 95.44270388 -6.14375305 91.68692017 C-6.14442601 89.08999625 -6.14539597 86.49307239 -6.14665222 83.89614868 C-6.14812956 78.44521428 -6.14606807 72.99429759 -6.14131165 67.54336548 C-6.13586905 61.23302787 -6.13763172 54.92272257 -6.14313805 48.61238575 C-6.14821487 42.55274316 -6.14768764 36.49311644 -6.14475632 30.43347168 C-6.14408678 27.84975174 -6.1449164 25.26603099 -6.14723587 22.68231201 C-6.1497608 19.07835674 -6.14592405 15.47446447 -6.14033508 11.87051392 C-6.14235931 10.79099457 -6.14438354 9.71147522 -6.14646912 8.59924316 C-6.14364929 7.62327179 -6.14082947 6.64730042 -6.13792419 5.64175415 C-6.13754717 4.78855087 -6.13717014 3.9353476 -6.13678169 3.05628967 C-5.87958897 -0.8920437 -3.36007914 0.00711417 0 0 Z " fill="#0D5171" transform="translate(948.0109405517578,542.8755798339844)"/>
<path d="M0 0 C1.07461739 0.00539291 1.07461739 0.00539291 2.17094421 0.01089478 C2.92211517 0.01074875 3.67328613 0.01060272 4.44721985 0.01045227 C6.94166404 0.01115153 9.43603448 0.01894452 11.9304657 0.02676392 C13.65539509 0.02862805 15.38032501 0.03005197 17.10525513 0.03105164 C21.65418448 0.03487719 26.20308211 0.04470779 30.7519989 0.05575562 C35.39025951 0.06596893 40.02852522 0.07054908 44.66679382 0.07559204 C53.77422967 0.08633003 62.88164192 0.1034069 71.98905945 0.12442017 C71.98905945 4.74442017 71.98905945 9.36442017 71.98905945 14.12442017 C51.19905945 14.12442017 30.40905945 14.12442017 8.98905945 14.12442017 C8.98905945 26.33442017 8.98905945 38.54442017 8.98905945 51.12442017 C28.45905945 51.12442017 47.92905945 51.12442017 67.98905945 51.12442017 C67.98905945 55.41442017 67.98905945 59.70442017 67.98905945 64.12442017 C48.51905945 64.12442017 29.04905945 64.12442017 8.98905945 64.12442017 C8.98905945 77.32442017 8.98905945 90.52442017 8.98905945 104.12442017 C30.10905945 104.12442017 51.22905945 104.12442017 72.98905945 104.12442017 C72.98905945 108.74442017 72.98905945 113.36442017 72.98905945 118.12442017 C62.83639794 118.14754409 52.68374265 118.16533551 42.53106022 118.17623234 C37.81726212 118.18146106 33.10348198 118.1885585 28.38969421 118.19985962 C23.84450541 118.21068889 19.29933393 118.21669708 14.75413322 118.21929741 C13.01610987 118.22115159 11.27808751 118.22477206 9.54007149 118.23015022 C7.1142735 118.2373612 4.68854799 118.23841109 2.26274109 118.23794556 C1.53697876 118.24154083 0.81121643 118.24513611 0.0634613 118.24884033 C-4.89688839 118.23847233 -4.89688839 118.23847233 -6.01094055 117.12442017 C-6.1088575 115.62123312 -6.13725854 114.11345884 -6.13792419 112.60708618 C-6.14215393 111.14312912 -6.14215393 111.14312912 -6.14646912 109.64959717 C-6.14444489 108.57007782 -6.14242065 107.49055847 -6.14033508 106.37832642 C-6.1420874 105.2483725 -6.14383972 104.11841858 -6.14564514 102.95422363 C-6.15006637 99.19844044 -6.14712471 95.44270388 -6.14375305 91.68692017 C-6.14442601 89.08999625 -6.14539597 86.49307239 -6.14665222 83.89614868 C-6.14812956 78.44521428 -6.14606807 72.99429759 -6.14131165 67.54336548 C-6.13586905 61.23302787 -6.13763172 54.92272257 -6.14313805 48.61238575 C-6.14821487 42.55274316 -6.14768764 36.49311644 -6.14475632 30.43347168 C-6.14408678 27.84975174 -6.1449164 25.26603099 -6.14723587 22.68231201 C-6.1497608 19.07835674 -6.14592405 15.47446447 -6.14033508 11.87051392 C-6.14235931 10.79099457 -6.14438354 9.71147522 -6.14646912 8.59924316 C-6.14364929 7.62327179 -6.14082947 6.64730042 -6.13792419 5.64175415 C-6.13754717 4.78855087 -6.13717014 3.9353476 -6.13678169 3.05628967 C-5.87958897 -0.8920437 -3.36007914 0.00711417 0 0 Z " fill="#0D5170" transform="translate(644.0109405517578,542.8755798339844)"/>
<path d="M0 0 C19.0265625 -0.0309375 19.0265625 -0.0309375 38.4375 -0.0625 C42.4483374 -0.071604 46.4591748 -0.08070801 50.59155273 -0.09008789 C55.47473145 -0.09460449 55.47473145 -0.09460449 57.75794983 -0.09544373 C59.35874204 -0.0969832 60.95953306 -0.10050821 62.56031799 -0.10557556 C64.97960436 -0.11285361 67.39881963 -0.1139074 69.81811523 -0.11352539 C70.89476393 -0.11892255 70.89476393 -0.11892255 71.99316311 -0.12442875 C76.88597366 -0.11402634 76.88597366 -0.11402634 78 1 C78.09873816 2.99799572 78.12971799 4.99957158 78.125 7 C78.12886719 8.6396875 78.12886719 8.6396875 78.1328125 10.3125 C78 13 78 13 77 14 C75.06693502 14.09396057 73.13041162 14.11743517 71.19506836 14.11352539 C69.95385727 14.11344986 68.71264618 14.11337433 67.43382263 14.11329651 C66.0691626 14.10818911 64.70450298 14.1029731 63.33984375 14.09765625 C61.95121817 14.095792 60.56259193 14.09436813 59.17396545 14.09336853 C55.51278885 14.08954387 51.8516517 14.07971403 48.19049072 14.06866455 C44.45707747 14.05844932 40.72365767 14.05381597 36.99023438 14.04882812 C29.66012137 14.0386219 22.3301168 14.01905026 15 14 C15 26.21 15 38.42 15 51 C34.14 51 53.28 51 73 51 C73 55.29 73 59.58 73 64 C53.86 64 34.72 64 15 64 C15 77.2 15 90.4 15 104 C36.12 104 57.24 104 79 104 C79 108.29 79 112.58 79 117 C77.30397146 118.69602854 75.19190949 118.1196808 72.92975521 118.12442875 C71.83905397 118.11903159 71.83905397 118.11903159 70.72631836 118.11352539 C69.56641183 118.11370619 69.56641183 118.11370619 68.38307285 118.11389065 C65.86863435 118.11314154 63.35426907 118.1055134 60.83984375 118.09765625 C59.29203324 118.09618683 57.74422224 118.09516612 56.19641113 118.09460449 C50.4434332 118.08935167 44.69046589 118.07539059 38.9375 118.0625 C26.088125 118.041875 13.23875 118.02125 0 118 C0 79.06 0 40.12 0 0 Z " fill="#0D5170" transform="translate(325,543)"/>
<path d="M0 0 C3.68745115 2.77636138 6.54239048 6.11206117 9.33984375 9.76171875 C5.83087106 13.94595767 2.2592384 17.95760041 -1.66015625 21.76171875 C-5.66170866 19.97929006 -8.3965825 17.38877006 -11.5625 14.41796875 C-17.73656105 9.5431049 -25.14812186 10.02283012 -32.66015625 10.76171875 C-35.95117609 11.99439756 -38.0517649 13.54493605 -39.66015625 16.76171875 C-40.16973486 21.01377633 -40.20840793 24.61300094 -38.34765625 28.51171875 C-33.26735428 32.76499481 -27.05524343 34.85073675 -20.921875 37.19921875 C-8.97049656 41.79173028 0.88314778 46.59110947 7.21484375 58.19921875 C10.01973817 66.95388923 9.64676327 77.06751042 5.83984375 85.38671875 C2.81573622 90.5890296 -0.35466481 93.94084126 -5.66015625 96.76171875 C-6.39234375 97.17164063 -7.12453125 97.5815625 -7.87890625 98.00390625 C-18.16533422 102.7239444 -33.15177926 102.72382301 -43.84765625 99.19921875 C-52.75537149 95.17592423 -59.658205 89.41321289 -65.66015625 81.76171875 C-64.12371773 78.08101988 -61.8786468 75.77396671 -59.03515625 73.01171875 C-58.21789062 72.2125 -57.400625 71.41328125 -56.55859375 70.58984375 C-55.93210938 69.9865625 -55.305625 69.38328125 -54.66015625 68.76171875 C-53.97953125 69.46296875 -53.29890625 70.16421875 -52.59765625 70.88671875 C-44.5781707 78.838434 -37.39003934 83.77962697 -25.66015625 83.76171875 C-20.55385862 83.17097433 -15.7072056 82.07294094 -11.66015625 78.76171875 C-9.34746133 75.08243138 -9.43130842 71.83425602 -10.140625 67.6796875 C-11.20337087 63.75631741 -13.17427878 61.69001542 -16.5859375 59.55859375 C-21.10572616 57.15816818 -25.760087 55.33860676 -30.57177734 53.63110352 C-41.27556451 49.8158303 -50.94156266 45.13916656 -56.66015625 34.76171875 C-59.86756069 27.05460614 -59.77112539 17.74664929 -56.8203125 9.9921875 C-52.61653245 1.91017267 -46.12397354 -3.1454671 -37.66015625 -6.23828125 C-24.46647901 -9.6572408 -11.36921917 -7.13045815 0 0 Z " fill="#0B506F" transform="translate(278.66015625,153.23828125)"/>
<path d="M0 0 C3.10692357 2.55976245 6.08576209 5.22355112 9 8 C8.45015228 11.87511727 6.72444669 13.59576506 3.9375 16.25 C2.83728516 17.30960938 2.83728516 17.30960938 1.71484375 18.390625 C1.14894531 18.92171875 0.58304687 19.4528125 0 20 C-0.43570313 19.61328125 -0.87140625 19.2265625 -1.3203125 18.828125 C-9.88044481 11.34264133 -17.45046152 7.15678107 -29 7 C-34.8309702 7.58964867 -39.4819669 9.1274002 -44 13 C-47.11081418 17.56252747 -47.75406768 21.63534708 -47 27 C-45.08958659 32.97004191 -41.32730305 36.04368023 -36 39 C-32.43245365 40.55284448 -28.78543255 41.89344541 -25.14282227 43.25805664 C1.73032513 53.3784691 1.73032513 53.3784691 7.9375 66.75 C11.12085618 76.48732477 11.15449136 86.54223748 7 96 C2.59601056 103.91871178 -4.22408592 108.93361992 -12.75 111.8125 C-27.7140892 115.69207868 -42.92552354 114.48674767 -56.30078125 106.65234375 C-62.05330051 103.0268064 -68.77685498 98.66943506 -71 92 C-68.03 89.03 -65.06 86.06 -62 83 C-58 85 -58 85 -56.375 87.25 C-50.47184645 94.08523042 -41.99678219 97.61486263 -33.09765625 98.30078125 C-31.75273609 98.32002023 -30.40751182 98.3236158 -29.0625 98.3125 C-28.35955811 98.30758545 -27.65661621 98.3026709 -26.93237305 98.29760742 C-19.99997225 98.14076577 -15.55145135 97.10772068 -10.125 92.625 C-6.2704855 87.86354091 -5.47315669 84.11138241 -6 78 C-7.83288223 71.85445369 -10.67588525 68.3555345 -16 65 C-21.81286034 62.14207251 -27.83175911 59.80950987 -33.890625 57.53515625 C-45.47981194 53.14741444 -55.11772181 48.45604528 -61 37 C-64.33365616 28.96891925 -64.20164541 19.17919314 -61.02734375 11.08984375 C-56.59788332 2.0793444 -49.98241553 -2.53665243 -40.8125 -6.3125 C-26.92060157 -9.70829739 -11.88773437 -8.53145235 0 0 Z " fill="#0D5170" transform="translate(473,549)"/>
<path d="M0 0 C1.765625 1.9296875 1.765625 1.9296875 1.765625 5.9296875 C0.015625 8.0703125 0.015625 8.0703125 -2.234375 10.1796875 C-2.976875 10.88609375 -3.719375 11.5925 -4.484375 12.3203125 C-5.350625 13.11695313 -5.350625 13.11695313 -6.234375 13.9296875 C-9.12056805 12.59171721 -11.45324425 11.05236354 -13.921875 9.0546875 C-24.52744102 0.96200746 -36.26254473 -0.19363994 -49.234375 0.9296875 C-60.18904344 3.23940675 -69.86478888 9.74858831 -76.234375 18.9296875 C-83.84107399 32.20610111 -84.63599472 45.76860324 -81.28125 60.421875 C-77.87833398 71.82418317 -71.31558648 80.26844573 -61.18359375 86.3828125 C-50.74605877 91.85733416 -38.80698886 92.52875383 -27.421875 89.7421875 C-20.28185771 87.51290375 -13.7910749 83.96544679 -8.234375 78.9296875 C-7.904375 78.2696875 -7.574375 77.6096875 -7.234375 76.9296875 C-3.79009235 78.37750543 -1.87306538 80.20663359 0.515625 83.0546875 C1.12921875 83.77914062 1.7428125 84.50359375 2.375 85.25 C2.83390625 85.80429687 3.2928125 86.35859375 3.765625 86.9296875 C-4.80351214 98.27800426 -17.05148645 103.78681103 -30.796875 106.3046875 C-47.75554994 108.39190903 -63.52436473 104.52865303 -77.21875 94.3515625 C-89.52702302 84.46668002 -97.2065335 70.59763264 -99.234375 54.9296875 C-100.54120279 36.19773154 -97.53234122 19.28937398 -84.921875 4.6796875 C-61.25532722 -20.25118336 -26.60537898 -20.83251373 0 0 Z " fill="#0C5170" transform="translate(928.234375,556.0703125)"/>
<path d="M0 0 C2.42375638 2.42375638 3.05872076 4.45654971 4.2421875 7.671875 C4.88220703 9.38117188 4.88220703 9.38117188 5.53515625 11.125 C6.4223656 13.52537983 7.30780727 15.92641382 8.19140625 18.328125 C12.04860917 28.61399946 15.94068541 36.76610057 26.28076172 41.50292969 C30.12622012 43.07109743 34.02811381 44.47592092 37.9375 45.875 C39.30323934 46.37623039 40.66847921 46.87882393 42.03320312 47.3828125 C45.34985659 48.60431402 48.67289245 49.80722128 52 51 C50.52626961 53.94746077 48.55701801 54.09108171 45.49609375 55.20703125 C44.36236328 55.62919922 43.22863281 56.05136719 42.06054688 56.48632812 C39.6730775 57.36023201 37.28506872 58.23266386 34.89648438 59.10351562 C21.17418125 64.11666896 21.17418125 64.11666896 12 75 C10.04357202 79.58286554 8.34982484 84.24112448 6.6875 88.9375 C6.22951025 90.20673955 5.77053348 91.47562339 5.31054688 92.74414062 C4.19729954 95.82607798 3.09414179 98.91123932 2 102 C1.01 102 0.02 102 -1 102 C-1.25579834 101.23445801 -1.51159668 100.46891602 -1.77514648 99.68017578 C-2.97029474 96.15250494 -4.20349922 92.63925925 -5.4375 89.125 C-6.03981445 87.31902344 -6.03981445 87.31902344 -6.65429688 85.4765625 C-10.06630333 75.89168941 -14.54653583 68.3893025 -23.34375 62.921875 C-24.3853125 62.53515625 -25.426875 62.1484375 -26.5 61.75 C-27.67820312 61.29882812 -28.85640625 60.84765625 -30.0703125 60.3828125 C-31.37936482 59.91948486 -32.68932111 59.45870615 -34 59 C-35.56016149 58.43562969 -37.12004692 57.87049576 -38.6796875 57.3046875 C-42.77404938 55.83227247 -46.88231923 54.40579416 -51 53 C-51 52.34 -51 51.68 -51 51 C-50.25951416 50.72849121 -49.51902832 50.45698242 -48.75610352 50.17724609 C-45.3536516 48.92187973 -41.95816564 47.64860269 -38.5625 46.375 C-37.39783203 45.94832031 -36.23316406 45.52164063 -35.03320312 45.08203125 C-23.96038 40.90243041 -15.56691371 36.83174684 -10 26 C-8.20913219 21.91502848 -6.67251444 17.76705897 -5.1875 13.5625 C-4.4107171 11.41776554 -3.6334011 9.27322406 -2.85546875 7.12890625 C-2.35503052 5.72233765 -2.35503052 5.72233765 -1.84448242 4.28735352 C-1 2 -1 2 0 0 Z " fill="#094E6E" transform="translate(917,338)"/>
<path d="M0 0 C4.62 0 9.24 0 14 0 C14 38.94 14 77.88 14 118 C9.38 118 4.76 118 0 118 C-1.60311035 116.39688965 -1.12600268 114.70256544 -1.12698364 112.48266602 C-1.13121338 111.01870895 -1.13121338 111.01870895 -1.13552856 109.525177 C-1.13350433 108.44565765 -1.1314801 107.36613831 -1.12939453 106.25390625 C-1.13114685 105.12395233 -1.13289917 103.99399841 -1.13470459 102.82980347 C-1.13912582 99.07402027 -1.13618416 95.31828372 -1.1328125 91.5625 C-1.13348546 88.96557608 -1.13445542 86.36865222 -1.13571167 83.77172852 C-1.13718901 78.32079411 -1.13512751 72.86987742 -1.13037109 67.41894531 C-1.1249285 61.10860771 -1.12669117 54.79830241 -1.1321975 48.48796558 C-1.13727431 42.428323 -1.13674709 36.36869628 -1.13381577 30.30905151 C-1.13314623 27.72533158 -1.13397585 25.14161083 -1.13629532 22.55789185 C-1.13882025 18.95393657 -1.1349835 15.3500443 -1.12939453 11.74609375 C-1.13141876 10.6665744 -1.13344299 9.58705505 -1.13552856 8.474823 C-1.13270874 7.49885162 -1.12988892 6.52288025 -1.12698364 5.51733398 C-1.12660662 4.66413071 -1.12622959 3.81092743 -1.12584114 2.93186951 C-1 1 -1 1 0 0 Z " fill="#0E5271" transform="translate(494,543)"/>
<path d="M0 0 C0.66 0 1.32 0 2 0 C2.20157715 0.52432617 2.4031543 1.04865234 2.61083984 1.58886719 C3.5301742 3.97670748 4.45255606 6.36335934 5.375 8.75 C5.69210937 9.575 6.00921875 10.4 6.3359375 11.25 C6.6453125 12.04921875 6.9546875 12.8484375 7.2734375 13.671875 C7.55622559 14.4050293 7.83901367 15.13818359 8.13037109 15.89355469 C9.70496793 20.25894619 9.70496793 20.25894619 13.10546875 23.0546875 C14.06066406 23.36664063 15.01585937 23.67859375 16 24 C17.3313158 24.49757971 18.6605927 25.00063361 19.98828125 25.5078125 C21.42947674 26.04743821 22.87088767 26.58648887 24.3125 27.125 C25.05306641 27.40214844 25.79363281 27.67929687 26.55664062 27.96484375 C28.37090632 28.64373027 30.18542744 29.32193411 32 30 C32 30.66 32 31.32 32 32 C31.45061768 32.21092285 30.90123535 32.4218457 30.33520508 32.63916016 C27.82024222 33.61650893 25.316695 34.62039953 22.8125 35.625 C21.94818359 35.95628906 21.08386719 36.28757812 20.19335938 36.62890625 C13.87442474 39.19521687 10.04654412 41.5611259 7.09545898 47.96191406 C6.26549243 50.0609959 5.52390276 52.17049554 4.8125 54.3125 C2.2464 61.8768 2.2464 61.8768 0 63 C-0.19110352 62.48091064 -0.38220703 61.96182129 -0.57910156 61.42700195 C-1.45976717 59.05180125 -2.35472747 56.68223156 -3.25 54.3125 C-3.55035156 53.49587891 -3.85070312 52.67925781 -4.16015625 51.83789062 C-6.44083652 45.84503927 -8.35180927 41.41343192 -14.2421875 38.26953125 C-16.04042969 37.54830078 -16.04042969 37.54830078 -17.875 36.8125 C-19.06867187 36.32394531 -20.26234375 35.83539063 -21.4921875 35.33203125 C-24.63970386 34.13681624 -27.79626183 33.03362195 -31 32 C-29.7107811 29.4215622 -28.85934321 29.41912231 -26.17578125 28.51953125 C-25.00305664 28.1028418 -25.00305664 28.1028418 -23.80664062 27.67773438 C-22.16732164 27.10904345 -20.52412298 26.55139358 -18.87695312 26.00585938 C-12.19832649 23.59762197 -8.15875378 20.36034203 -4.97875977 13.93725586 C-4.10840427 11.83294799 -3.34798189 9.72156887 -2.625 7.5625 C-2.36589844 6.83095703 -2.10679687 6.09941406 -1.83984375 5.34570312 C-1.2126491 3.56865161 -0.60427712 1.78497461 0 0 Z " fill="#0F5271" transform="translate(983,264)"/>
<path d="M0 0 C1.13151117 1.13151117 2.26228776 2.26376129 3.390625 3.3984375 C4.5158241 4.51817447 5.65223188 5.62670977 6.796875 6.7265625 C12.3490627 12.12328894 17.17206179 17.95551317 22 24 C22.91404297 25.11306578 23.82946131 26.22500323 24.74609375 27.3359375 C40.94851078 47.09252109 54.97566654 68.51411963 67.1875 90.9375 C67.75283447 91.97487305 68.31816895 93.01224609 68.90063477 94.08105469 C73.21446381 102.12606919 73.21446381 102.12606919 74 106 C73.34 106 72.68 106 72 106 C71.47792969 104.98164063 70.95585938 103.96328125 70.41796875 102.9140625 C56.07775515 75.22295784 38.4642448 49.52249442 18 26 C17.36449219 25.26394531 16.72898437 24.52789062 16.07421875 23.76953125 C12.15223252 19.25248504 8.13825056 14.81985275 4.11328125 10.39453125 C1.99127508 7.99011391 -0.01720988 5.51988903 -2 3 C-1.34 2.01 -0.68 1.02 0 0 Z " fill="#4B7E95" transform="translate(784,155)"/>
<path d="M0 0 C1.13151117 1.13151117 2.26228776 2.26376129 3.390625 3.3984375 C4.5158241 4.51817447 5.65223188 5.62670977 6.796875 6.7265625 C11.47876717 11.27736169 15.6688001 16.08520395 19.74609375 21.18359375 C21.25594002 23.0702474 22.79027454 24.93754699 24.34765625 26.78515625 C25.44400391 28.09806641 25.44400391 28.09806641 26.5625 29.4375 C27.22378906 30.21996094 27.88507812 31.00242188 28.56640625 31.80859375 C30 34 30 34 30 38 C29.34 38 28.68 38 28 38 C26.58561594 36.42713316 25.24395599 34.78860004 23.9375 33.125 C20.14637104 28.38456748 16.21637705 23.83673157 12.1328125 19.34765625 C7.28597873 14.01258831 2.58671327 8.55965245 -2 3 C-1.34 2.01 -0.68 1.02 0 0 Z " fill="#366E88" transform="translate(784,155)"/>
<path d="M0 0 C3.65235735 4.65901892 6.3035656 9.81284982 9.125 15 C9.67542969 15.99773437 10.22585938 16.99546875 10.79296875 18.0234375 C11.31761719 18.98507813 11.84226562 19.94671875 12.3828125 20.9375 C12.86121582 21.81277344 13.33961914 22.68804687 13.83251953 23.58984375 C14.87877697 25.74974619 15.53169681 27.65644498 16 30 C15.34 30 14.68 30 14 30 C13.40832031 28.865625 12.81664062 27.73125 12.20703125 26.5625 C11.40901803 25.04158068 10.61083165 23.5207522 9.8125 22 C9.42513672 21.25621094 9.03777344 20.51242188 8.63867188 19.74609375 C6.2762911 15.25561789 3.76740621 10.9515747 0.95507812 6.7265625 C-0.31982089 4.42183708 -0.40289756 2.57854441 0 0 Z " fill="#56859B" transform="translate(842,231)"/>
<path d="M0 0 C4.20240011 3.71750779 6.99782679 8.31660979 10 13 C9.34 13.66 8.68 14.32 8 15 C6.46395285 13.2633385 4.94654837 11.51017245 3.4375 9.75 C2.59058594 8.77546875 1.74367188 7.8009375 0.87109375 6.796875 C-1 4 -1 4 -0.77734375 1.640625 C-0.52082031 1.09921875 -0.26429688 0.5578125 0 0 Z " fill="#41778F" transform="translate(814,190)"/>
<path d="M0 0 C0.66 0.33 1.32 0.66 2 1 C-1.3 4.3 -4.6 7.6 -8 11 C-8 7.0234755 -6.61988497 5.9109833 -4 3 C-1.75 1.1875 -1.75 1.1875 0 0 Z " fill="#41768F" transform="translate(423,547)"/>
</svg>
