<?xml version="1.0" encoding="UTF-8"?>
<svg version="1.1" xmlns="http://www.w3.org/2000/svg" width="1024" height="1024">
<path d="M0 0 C3.06573761 0.91143551 4.6837838 1.58832231 6.65625 4.15625 C8.28505317 7.60325205 8.30244064 10.01945877 8.1875 13.8125 C8.14689453 15.55466797 8.14689453 15.55466797 8.10546875 17.33203125 C8.07066406 18.21246094 8.03585937 19.09289062 8 20 C8.99 19.34 9.98 18.68 11 18 C13.6875 18.375 13.6875 18.375 16 19 C17.7390185 23.44118571 18.17892221 26.75928086 17.75 31.5 C17.61851562 33.12421875 17.61851562 33.12421875 17.484375 34.78125 C16.99424471 38.03824481 16.13410266 40.91375342 15 44 C15.56589844 44.26554687 16.13179688 44.53109375 16.71484375 44.8046875 C17.44832031 45.15789062 18.18179687 45.51109375 18.9375 45.875 C19.66839844 46.22304687 20.39929688 46.57109375 21.15234375 46.9296875 C23 48 23 48 24 50 C24.27843054 54.82612943 23.75645727 58.49907826 22 63 C22.928125 63.103125 23.85625 63.20625 24.8125 63.3125 C28 64 28 64 29.875 65.125 C31.69593404 68.15989007 31.34725035 70.52749652 31 74 C30.16804724 76.46238893 29.1479205 78.65632899 28 81 C28.804375 80.979375 29.60875 80.95875 30.4375 80.9375 C33 81 33 81 34 82 C33.32075472 90.28679245 33.32075472 90.28679245 31 94 C31.78375 94.433125 32.5675 94.86625 33.375 95.3125 C36 97 36 97 38 100 C38.125 103.1875 38.125 103.1875 38 106 C38.639375 106.28875 39.27875 106.5775 39.9375 106.875 C42 108 42 108 43 110 C43.3793347 115.02618483 42.98263247 117.89888036 40 122 C41.32 122.66 42.64 123.32 44 124 C44 124.66 44 125.32 44 126 C45.06476563 126.10957031 46.12953125 126.21914062 47.2265625 126.33203125 C54.44966935 127.11098555 61.48695695 128.01272434 68.5625 129.6875 C78.7279164 131.919497 83.32461684 130.23339461 92.23046875 124.7890625 C94.34221341 123.42491715 96.39708853 122.02822194 98.4375 120.5625 C101.25002357 118.8475466 102.76571524 118.61949591 106 119 C106.93045933 121.55144824 107.08564091 122.74006478 106.22265625 125.359375 C105.83980469 126.14828125 105.45695312 126.9371875 105.0625 127.75 C104.68222656 128.54921875 104.30195313 129.3484375 103.91015625 130.171875 C103.60980469 130.77515625 103.30945313 131.3784375 103 132 C108.6616734 127.98097846 114.16764429 123.89970119 119.4375 119.375 C127.99528434 112.33026098 137.32886698 108.63501606 147.87109375 105.46875 C151.32953817 104.34525025 154.48125836 102.80333317 157.7421875 101.19921875 C166.3979987 97.13723908 175.48046957 94.7973495 184.6875 92.3125 C187.27445414 91.60265469 189.86053636 90.88969633 192.44656372 90.17648315 C194.09576841 89.72297047 195.7457187 89.27215921 197.39645386 88.82424927 C202.3466971 87.47825526 207.2454312 86.03342208 212.10083008 84.37182617 C214.35498349 83.93050008 215.83592689 84.29517194 218 85 C219.03801177 89.32504906 219.36561226 91.30794821 217.25 95.3125 C215 98 215 98 212 100 C212.99 100.66 213.98 101.32 215 102 C215.58216381 105.6593154 215.16540341 107.65481027 213.5625 111 C208.07954267 117.41907199 200.72431883 120.89566383 193 124 C193.99 124.66 194.98 125.32 196 126 C195.87854733 131.82972802 194.1522488 134.94537369 190.1875 139.19921875 C186.55417865 142.19022079 182.45991411 143.63600212 178 145 C178.680625 145.721875 179.36125 146.44375 180.0625 147.1875 C182 150 182 150 182 152.625 C180.77562477 155.53289116 179.63651417 156.30444865 177 158 C174.421875 158.94921875 174.421875 158.94921875 171.75 159.6875 C170.41195312 160.06455078 170.41195312 160.06455078 169.046875 160.44921875 C168.03367187 160.72185547 168.03367187 160.72185547 167 161 C167.66 161.66 168.32 162.32 169 163 C169.0625 165.4375 169.0625 165.4375 168 168 C163.71810613 170.35084369 159.86981365 171.40612029 155 172 C157.10525865 176.77759034 159.81541773 180.19755203 163.4375 183.875 C192.28343258 214.30364537 211.96394671 257.31252361 212.203125 299.64453125 C212.20882507 300.45379562 212.21452515 301.26306 212.22039795 302.09684753 C212.22979274 303.80535602 212.23635979 305.51388218 212.24023438 307.22241211 C212.24983132 309.76776203 212.28086164 312.31226449 212.3125 314.85742188 C212.41993889 331.47843 210.08946444 347.16324008 205 363 C205.58265625 363.14695312 206.1653125 363.29390625 206.765625 363.4453125 C213.99705549 365.42372273 220.39156215 368.4913964 227 372 C227 372.66 227 373.32 227 374 C220.25158562 376.41014799 220.25158562 376.41014799 216.6875 375.2421875 C214.72701669 374.24094067 212.85061646 373.19108825 211 372 C210.01 372.99 209.02 373.98 208 375 C206.02 374.34 204.04 373.68 202 373 C201.5875 374.05316406 201.175 375.10632813 200.75 376.19140625 C194.30283219 392.39921145 186.48936216 407.01418378 176 421 C313.61 421.495 313.61 421.495 454 422 C454 426.62 454 431.24 454 436 C451.7495787 436.00081715 451.7495787 436.00081715 449.45369434 436.00165081 C413.85510482 436.01568924 378.25662596 436.0554156 342.65810372 436.12685562 C338.27833579 436.13562257 333.89856745 436.14417234 329.51879883 436.15258789 C328.64685087 436.15426695 327.77490291 436.15594602 326.87653228 436.15767596 C312.75054381 436.18435947 298.62459592 436.193442 284.49858484 436.19604143 C270.00835484 436.19909885 255.51824233 436.22102101 241.02806538 436.26052457 C232.08387909 436.28431182 223.1399272 436.29331287 214.1957136 436.28351311 C208.06569491 436.27820507 201.93588663 436.2911899 195.80592785 436.3186629 C192.26701553 436.33398002 188.72857397 436.34113242 185.18964767 436.32659721 C181.35506099 436.31105811 177.52125926 436.33398911 173.6867218 436.36076355 C172.00433276 436.34475366 172.00433276 436.34475366 170.28795606 436.32842034 C164.11508826 436.35982861 164.11508826 436.35982861 158.88798809 439.41275501 C158.26495202 440.26654586 157.64191595 441.1203367 157 442 C128.15482065 472.98626482 82.77179814 492.58760482 40.64233398 494.12231445 C36.67786631 494.20700234 32.71521805 494.24659261 28.75 494.25 C27.68853256 494.25101212 27.68853256 494.25101212 26.60562134 494.25204468 C-18.46892111 494.18405894 -60.85871533 477.74685711 -94.71875 448.01953125 C-95.22360176 447.57772522 -95.72845352 447.13591919 -96.24860382 446.6807251 C-98 445 -98 445 -99.59314728 442.99028015 C-102.39241008 439.63053502 -104.61399338 437.35107278 -108.92979431 436.25788879 C-112.50018544 435.9764177 -115.99496502 435.94489989 -119.57617188 436 C-120.93696391 435.99238281 -122.2977401 435.98125462 -123.65847778 435.96690369 C-127.33203746 435.93801556 -131.0038688 435.95791925 -134.67736626 435.9869194 C-138.52381922 436.00887727 -142.36999761 435.98550329 -146.21643066 435.96704102 C-153.49083055 435.93895994 -160.76456969 435.95135138 -168.03895044 435.97846508 C-176.32444019 436.00736337 -184.60964786 435.99086758 -192.89514065 435.97065353 C-209.93029544 435.93010507 -226.9648856 435.94786438 -244 436 C-244 431.38 -244 426.76 -244 422 C-202.75 422 -161.5 422 -119 422 C-122.96 416.06 -126.92 410.12 -131 404 C-142.36941517 383.96817327 -149.75460994 363.64359381 -154 341 C-154.24621094 339.70707031 -154.49242187 338.41414063 -154.74609375 337.08203125 C-161.8978434 291.06422143 -150.01850804 241.04160595 -122.77685547 203.30566406 C-117.28701222 195.81853903 -111.38632652 188.74228571 -105 182 C-104.13117188 181.06671875 -103.26234375 180.1334375 -102.3671875 179.171875 C-84.60490258 160.4873947 -59.84229288 143.69048578 -35 136 C-34.01 136 -33.02 136 -32 136 C-32.02320313 135.16339844 -32.04640625 134.32679688 -32.0703125 133.46484375 C-32.1897038 125.76410465 -31.64372699 118.58826988 -30.5078125 110.96484375 C-29.85049655 105.83272303 -29.56579275 100.71254549 -29.34204102 95.5456543 C-29.19894465 92.47144908 -28.97942871 89.93828614 -28 87 C-24.76029736 87.347111 -24.02001516 87.97614982 -21.859375 90.55078125 C-21.24578125 91.35902344 -20.6321875 92.16726562 -20 93 C-19.88266925 85.15187632 -20.1322529 77.5648834 -21.171875 69.77734375 C-20.96205066 65.16597699 -19.60863894 61.49619465 -18.06933594 57.16967773 C-16.40007708 52.22173531 -15.36805101 47.15737997 -14.25 42.0625 C-11.72418963 31.02773635 -8.19183421 20.68682472 -3.90087891 10.22607422 C-2.53153744 6.84242776 -1.26657587 3.42328402 0 0 Z M7 20 C8 22 8 22 8 22 Z " fill="#35312E" transform="translate(407,82)"/>
<path d="M0 0 C3.875 1.75 3.875 1.75 5 4 C5.38350035 10.06832906 4.88877447 16.00077234 4 22 C4.7425 21.195625 5.485 20.39125 6.25 19.5625 C9.83018868 16.22641509 9.83018868 16.22641509 13 16 C14.77015706 17.77015706 14.29818236 20.15456246 14.375 22.5625 C14.3376758 28.20467443 13.42787901 33.03919461 11.75 38.375 C11.54552246 39.02799072 11.34104492 39.68098145 11.13037109 40.35375977 C9.59223119 44.92458142 7.49418294 48.87500513 5 53 C7.26659033 50.81435932 9.09787186 48.84812987 10.8125 46.1875 C11.534375 45.465625 12.25625 44.74375 13 44 C19.21052632 44.21052632 19.21052632 44.21052632 21 46 C21.27255339 50.29968463 20.70115971 53.58114955 19.25 57.6171875 C18.8890625 58.63554687 18.528125 59.65390625 18.15625 60.703125 C17.7746875 61.74984375 17.393125 62.7965625 17 63.875 C16.6184375 64.94492188 16.236875 66.01484375 15.84375 67.1171875 C14.90420064 69.74792571 13.95607866 72.37523351 13 75 C13.48210937 74.22914063 13.96421875 73.45828125 14.4609375 72.6640625 C15.09257812 71.66117187 15.72421875 70.65828125 16.375 69.625 C17.00148438 68.62726563 17.62796875 67.62953125 18.2734375 66.6015625 C20 64 20 64 22 62 C24.625 62.375 24.625 62.375 27 63 C28.90456572 68.21413894 26.70355332 71.93363584 24.5625 76.6875 C23.89429885 78.21099862 23.22879804 79.73568535 22.56640625 81.26171875 C22.26677979 81.93162842 21.96715332 82.60153809 21.65844727 83.29174805 C20.88011396 85.00590159 20.88011396 85.00590159 21 87 C21.38671875 86.4946875 21.7734375 85.989375 22.171875 85.46875 C22.69265625 84.8190625 23.2134375 84.169375 23.75 83.5 C24.51570313 82.52546875 24.51570313 82.52546875 25.296875 81.53125 C27 80 27 80 31 80 C28.86006992 88.13173431 23.69958957 95.1313691 19 102 C21.99678043 100.32532858 24.53891868 98.55525622 27.0625 96.25 C30 94 30 94 32.375 94.1875 C33.179375 94.5896875 33.179375 94.5896875 34 95 C34.4375 97.5 34.4375 97.5 34 101 C31.9326836 103.92157938 29.47305554 106.42103201 27 109 C25.65407903 110.65651812 24.3140151 112.31806068 23 114 C23.53109375 113.60167969 24.0621875 113.20335937 24.609375 112.79296875 C26.73958333 111.1953125 28.86979167 109.59765625 31 108 C31.70125 107.4328125 32.4025 106.865625 33.125 106.28125 C35 105 35 105 37.25 105.3125 C37.8275 105.539375 38.405 105.76625 39 106 C39.77643769 108.27385323 40.13596514 109.57179809 39.3984375 111.89453125 C36.91542694 116.54780676 34.16627261 120.77830319 31 125 C31.9075 124.319375 32.815 123.63875 33.75 122.9375 C37 121 37 121 39.375 121.25 C39.91125 121.4975 40.4475 121.745 41 122 C40.49396008 124.16874252 40.00016187 125.99967627 39 128 C40.98 127.67 42.96 127.34 45 127 C44.125 132.75 44.125 132.75 43 135 C43.99 134.34 44.98 133.68 46 133 C46.99 133 47.98 133 49 133 C48.835 133.78375 48.67 134.5675 48.5 135.375 C47.9376293 137.88208039 47.9376293 137.88208039 48 140 C48.66 139.67 49.32 139.34 50 139 C49.5020163 142.73487777 49.12508244 144.81237635 47 148 C47.66 148.33 48.32 148.66 49 149 C47.02 151.97 45.04 154.94 43 158 C41 155 41 155 41 153 C37.01175531 154.29348476 35.24642028 155.47596603 33 159 C29.68365022 167.48672188 28.30352042 176.57729598 26.6875 185.5 C24.01436533 200.13975458 20.07810656 214.388725 14 228 C14.99 228 15.98 228 17 228 C17.11085938 227.32066406 17.22171875 226.64132812 17.3359375 225.94140625 C17.96123544 223.17170419 18.86131735 220.63863167 19.86572266 217.98852539 C24.20295986 206.2724065 26.28473734 194.11640505 28.46337891 181.85717773 C32.50137401 159.44271098 32.50137401 159.44271098 38 155 C38.66 155 39.32 155 40 155 C40 157.64 40 160.28 40 163 C42.72074363 160.47420062 44.78438037 157.64184708 46.9375 154.625 C48.28256685 152.7434614 49.63667767 150.86835344 51 149 C51.61230469 148.14921875 52.22460938 147.2984375 52.85546875 146.421875 C55.37866246 143.57236662 58.17055011 141.61464454 61.375 139.625 C61.98569336 139.23924805 62.59638672 138.85349609 63.22558594 138.45605469 C69.5928296 134.50790718 76.23868133 131.22276028 83 128 C90.25354676 124.53018358 90.25354676 124.53018358 97 120.1875 C100 118 100 118 102 118 C101.58054965 120.51670208 101.17555668 122.65985893 100 124.9375 C98.7228974 127.57152412 98.39343003 130.11484648 98 133 C104.89719419 129.93458036 110.22933722 125.82493959 116 121 C117.68175286 119.59724761 119.3691887 118.2012778 121.0625 116.8125 C121.79597656 116.20019531 122.52945313 115.58789062 123.28515625 114.95703125 C130.05992355 110.07335007 137.1558454 107.00852388 145.0625 104.4375 C152.12820433 102.1287129 152.12820433 102.1287129 158.85546875 99.00390625 C164.04425489 96.30064162 169.61735403 94.98441572 175.25 93.5 C182.70733823 91.50591322 190.05244815 89.36454732 197.36181641 86.87890625 C200.40018493 85.86667909 203.45214068 85.01172065 206.5625 84.25 C207.53316406 84.00765625 208.50382813 83.7653125 209.50390625 83.515625 C212 83 212 83 215 83 C215.44840879 86.85631556 215.39240827 88.48496415 213 91.625 C207.45594015 96.01404738 201.53428828 98.32104801 194.78515625 100.2890625 C192.79698974 100.85144413 192.79698974 100.85144413 192 103 C193.10859375 102.71125 194.2171875 102.4225 195.359375 102.125 C196.82285243 101.74974938 198.28639768 101.37476322 199.75 101 C200.47960937 100.80921875 201.20921875 100.6184375 201.9609375 100.421875 C205.44571646 99.53484036 208.38123722 99 212 99 C212.08128826 102.25153028 211.47500888 104.37978115 209.4921875 106.96875 C198.75370506 117.58474024 180.79318101 121.72251339 166.01171875 122.0703125 C165.34785156 122.04710937 164.68398438 122.02390625 164 122 C164 122.66 164 123.32 164 124 C164.54366211 123.83701416 165.08732422 123.67402832 165.64746094 123.50610352 C168.37415471 122.91950781 170.85141293 122.88750752 173.640625 122.90234375 C175.24550781 122.90717773 175.24550781 122.90717773 176.8828125 122.91210938 C177.99398437 122.92048828 179.10515625 122.92886719 180.25 122.9375 C181.93996094 122.94426758 181.93996094 122.94426758 183.6640625 122.95117188 C186.44276217 122.96294603 189.22135409 122.9793916 192 123 C191.54463858 127.08117671 191.22165319 129.5251616 188 132.1875 C187.46375 132.65542969 186.9275 133.12335938 186.375 133.60546875 C178.78016441 138.06493636 170.01410802 138.96769465 161.4375 140.1875 C160.23802734 140.36474609 159.03855469 140.54199219 157.80273438 140.72460938 C154.86947097 141.15700279 151.93533504 141.5819439 149 142 C149 142.66 149 143.32 149 144 C149.53625 143.9278125 150.0725 143.855625 150.625 143.78125 C156.25221352 143.11486945 161.83884215 142.86340969 167.5 142.8125 C168.20640625 142.79960937 168.9128125 142.78671875 169.640625 142.7734375 C171.42867555 142.76997229 173.21617826 142.87704967 175 143 C177 145 177 145 177.125 147.625 C177.08375 148.40875 177.0425 149.1925 177 150 C165.53831558 155.55554586 153.16686244 156.0954424 140.6328125 156.65625 C139.76398438 156.7696875 138.89515625 156.883125 138 157 C137.67 157.66 137.34 158.32 137 159 C146.24 159 155.48 159 165 159 C165 159.99 165 160.98 165 162 C156.00547664 166.30987578 147.33174479 166.13894299 137.5 166.0625 C136.39140625 166.05798828 135.2828125 166.05347656 134.140625 166.04882812 C131.42702601 166.03713158 128.71354239 166.02074086 126 166 C126 166.66 126 167.32 126 168 C126.7520874 168.05534912 127.5041748 168.11069824 128.27905273 168.16772461 C131.66557229 168.41959717 135.05152199 168.67845339 138.4375 168.9375 C140.21350586 169.06801758 140.21350586 169.06801758 142.02539062 169.20117188 C143.71245117 169.33168945 143.71245117 169.33168945 145.43359375 169.46484375 C146.47572021 169.543396 147.51784668 169.62194824 148.59155273 169.70288086 C151 170 151 170 152 171 C152.1875 173.9375 152.1875 173.9375 152 177 C150 179 150 179 148.03125 179.23046875 C139.00685449 179.07727685 130.00731725 178.55490623 121 178 C120.67 178.66 120.34 179.32 120 180 C120.90709717 180.07516846 120.90709717 180.07516846 121.83251953 180.15185547 C124.59738164 180.38530448 127.36113367 180.63005417 130.125 180.875 C131.07632813 180.95363281 132.02765625 181.03226563 133.0078125 181.11328125 C137.94633821 181.55912038 142.35191009 182.13763401 147 184 C146.3125 186.375 146.3125 186.375 145 189 C140.86925682 191.25243852 137.13934902 191.23853284 132.5 191.1875 C131.2109375 191.18105469 129.921875 191.17460937 128.59375 191.16796875 C125.59170489 191.02765577 122.91240268 190.7000968 120 190 C120 190.99 120 191.98 120 193 C121.13888672 193.07347656 121.13888672 193.07347656 122.30078125 193.1484375 C123.29464844 193.22320312 124.28851562 193.29796875 125.3125 193.375 C126.29863281 193.44460938 127.28476562 193.51421875 128.30078125 193.5859375 C131 194 131 194 134 196 C133.67 197.32 133.34 198.64 133 200 C132.36191406 200.12117187 131.72382812 200.24234375 131.06640625 200.3671875 C130.24011719 200.53476562 129.41382813 200.70234375 128.5625 200.875 C127.32693359 201.11863281 127.32693359 201.11863281 126.06640625 201.3671875 C125.04353516 201.68042969 125.04353516 201.68042969 124 202 C123.67 202.66 123.34 203.32 123 204 C125.97 204 128.94 204 132 204 C131.34 205.32 130.68 206.64 130 208 C129.01 208.33 128.02 208.66 127 209 C127.66 209.66 128.32 210.32 129 211 C129 211.99 129 212.98 129 214 C126.36 214 123.72 214 121 214 C122.39195915 216.7839183 124.15575779 216.97898997 127 218 C123.5647952 220.29013653 122.014669 220.17842973 118 220 C118 220.66 118 221.32 118 222 C119.0725 222.12375 120.145 222.2475 121.25 222.375 C124.37863615 222.89643936 126.33480424 223.40088254 129 225 C129 225.66 129 226.32 129 227 C124.545 227.99 124.545 227.99 120 229 C123.96 230.98 123.96 230.98 128 233 C128 233.66 128 234.32 128 235 C123.71 235 119.42 235 115 235 C116.98 236.175625 116.98 236.175625 119 237.375 C121.25 238.7109375 121.25 238.7109375 123 240 C123 240.66 123 241.32 123 242 C121.58297487 241.85769192 120.1663904 241.71099254 118.75 241.5625 C117.56664062 241.44068359 117.56664062 241.44068359 116.359375 241.31640625 C114.17635361 241.02365007 112.1226818 240.57935581 110 240 C110.63808594 240.60328125 111.27617188 241.2065625 111.93359375 241.828125 C112.75988281 242.62734375 113.58617187 243.4265625 114.4375 244.25 C115.26121094 245.03890625 116.08492187 245.8278125 116.93359375 246.640625 C119 249 119 249 120 253 C116.37 251.02 112.74 249.04 109 247 C110.175625 248.1446875 110.175625 248.1446875 111.375 249.3125 C114 252 114 252 116 255 C113.03 255.33 110.06 255.66 107 256 C111.29 256.66 115.58 257.32 120 258 C120 258.99 120 259.98 120 261 C117.03 261.66 114.06 262.32 111 263 C111 263.66 111 264.32 111 265 C112.32 265 113.64 265 115 265 C115 267 115 267 113.5 268.625 C113.005 269.07875 112.51 269.5325 112 270 C114.64 270 117.28 270 120 270 C119.67 270.99 119.34 271.98 119 273 C116.36 273.33 113.72 273.66 111 274 C111 274.66 111 275.32 111 276 C112.32 276 113.64 276 115 276 C115 276.66 115 277.32 115 278 C114.030625 278.12375 113.06125 278.2475 112.0625 278.375 C111.051875 278.58125 110.04125 278.7875 109 279 C108.67 279.66 108.34 280.32 108 281 C109.65 281 111.3 281 113 281 C113 281.66 113 282.32 113 283 C111.68 283.33 110.36 283.66 109 284 C110.32 285.65 111.64 287.3 113 289 C109.7 288.67 106.4 288.34 103 288 C105.61545105 290.15390087 108.19587515 292.12392102 111.0625 293.9375 C114 296 114 296 115.75 298.4375 C118.09763875 301.11119969 119.6344938 301.91302128 122.8125 303.375 C126.25728042 304.9825642 128.66315473 306.41174651 131.1875 309.25 C139.93684092 318.60274374 153.54951475 323.86741368 164.75805664 329.60131836 C171.67501518 333.18568153 177.99066712 337.00446655 184 342 C179.96707255 344.2344598 176.55032566 344.54496743 172 345 C176.50856774 349.05771097 181.56355908 351.44164649 187 354 C187.93465088 354.44351807 188.86930176 354.88703613 189.83227539 355.34399414 C195.90071695 358.16838924 201.82249516 360.49809058 208.30859375 362.18359375 C211.41276114 363.12520621 214.13702628 364.48629224 217 366 C216.67 366.66 216.34 367.32 216 368 C214.948125 367.67 213.89625 367.34 212.8125 367 C207.29772657 365.54455073 207.29772657 365.54455073 202 367 C199.42737096 365.89100454 196.98265494 364.7233981 194.5 363.4375 C193.77965576 363.07269531 193.05931152 362.70789063 192.31713867 362.33203125 C187.41091506 359.81821653 182.70092963 357.09511464 178.11328125 354.03125 C175.59141999 352.800619 173.7714886 352.80585019 171 353 C170.30840599 354.84725052 170.30840599 354.84725052 170 357 C170.99 358.485 170.99 358.485 172 360 C169.375 360.5 169.375 360.5 166 360 C163.55452169 357.65080037 161.83723191 354.83562841 160 352 C158.79809196 350.24558086 157.58967243 348.49560601 156.375 346.75 C155.82585937 345.94046875 155.27671875 345.1309375 154.7109375 344.296875 C153.03195996 341.92026899 153.03195996 341.92026899 150.7890625 339.828125 C149 338 149 338 149 336 C147.02 336 145.04 336 143 336 C143.69751356 341.48046367 146.51637504 345.02560036 149.6015625 349.4765625 C150.06304688 350.30929687 150.52453125 351.14203125 151 352 C150.67 352.99 150.34 353.98 150 355 C149.64284912 354.39526855 149.28569824 353.79053711 148.91772461 353.16748047 C147.27056453 350.39541116 145.60427733 347.63531471 143.9375 344.875 C143.37611328 343.92367188 142.81472656 342.97234375 142.23632812 341.9921875 C137.04495112 333.4486642 132.3284618 328.36648867 122.75 325 C122.07179199 324.75636719 121.39358398 324.51273437 120.69482422 324.26171875 C116.03812528 322.61631663 111.32645269 321.17615784 106.59912109 319.74951172 C96.47611418 316.68284197 88.09726305 313.01762798 80 306 C80 308.64 80 311.28 80 314 C79.01 313.01 78.02 312.02 77 311 C76.01 311.66 75.02 312.32 74 313 C73.67 312.67 73.34 312.34 73 312 C72.67 313.65 72.34 315.3 72 317 C71.01 316.34 70.02 315.68 69 315 C68.67 316.65 68.34 318.3 68 320 C67.01 319.67 66.02 319.34 65 319 C65 319.99 65 320.98 65 322 C64.34 322 63.68 322 63 322 C63 321.01 63 320.02 63 319 C60.17667204 320.65505432 59.14032935 321.51956206 58.20703125 324.71484375 C58.07683594 325.77832031 57.94664062 326.84179688 57.8125 327.9375 C57.59400391 329.65839844 57.59400391 329.65839844 57.37109375 331.4140625 C56.83394764 336.60459019 56.35645935 341.79381745 56 347 C54.68 346.67 53.36 346.34 52 346 C52.33 348.64 52.66 351.28 53 354 C51.68 353.67 50.36 353.34 49 353 C49 355.31 49 357.62 49 360 C48.01 359.34 47.02 358.68 46 358 C44.78306124 360.43387753 44.68040104 362.41838846 44.4375 365.125 C44.35371094 366.03507812 44.26992188 366.94515625 44.18359375 367.8828125 C44.12300781 368.58148438 44.06242187 369.28015625 44 370 C42.109375 369.72265625 42.109375 369.72265625 40 369 C38.25 365.4375 38.25 365.4375 37 362 C35.7133201 364.47438442 34.67076968 366.87794751 33.6875 369.5 C32 373 32 373 29.4375 375 C26.23374587 377.62872134 25.84056162 380.026436 25 384 C25.86625 384.3403125 25.86625 384.3403125 26.75 384.6875 C31.10743095 387.22933472 33.63232691 391.21314417 35 396 C35.07646165 398.3320802 35.09143299 400.66845878 35 403 C34.34 402.67 33.68 402.34 33 402 C33 400.35 33 398.7 33 397 C32.071875 397.103125 31.14375 397.20625 30.1875 397.3125 C29.135625 397.209375 28.08375 397.10625 27 397 C25.375 394.875 25.375 394.875 24 392 C22.67541292 389.99419671 21.3440093 387.99284138 20 386 C18.7934375 387.2065625 18.7934375 387.2065625 17.5625 388.4375 C14.33205089 391.66794911 13.69111615 392.12605438 9.25 392.875 C5.27563952 393.62659826 2.31230223 394.57097836 -1 397 C0.42827085 391.76300687 3.79853208 388.26033911 8 385 C10.38936202 383.94423539 12.4082338 383.47603869 15 383 C15.33 381.02 15.66 379.04 16 377 C13.36 377 10.72 377 8 377 C7.34 375.02 6.68 373.04 6 371 C1.39257135 372.21044132 1.39257135 372.21044132 -3 374 C-2.4375 372.0625 -2.4375 372.0625 -1 370 C2.125 368.9375 2.125 368.9375 6 369 C7.921875 370.0625 7.921875 370.0625 9.875 371.4375 C14.22611215 374.47060536 17.8058611 374.90376031 23 374 C27.2269152 372.25410024 29.01195538 370.07549148 31 366 C31.86055504 363.12073876 32.16464241 360.44299593 32.28125 357.4453125 C32.31863281 356.58292969 32.35601562 355.72054688 32.39453125 354.83203125 C32.42933594 353.93871094 32.46414063 353.04539062 32.5 352.125 C32.71470331 346.6619936 33.00408258 341.38736433 34 336 C34.83597394 329.86676839 34.83597394 329.86676839 32.8359375 324.24609375 C30.5714695 322.20807255 28.38382615 321.09361613 25.4375 320.375 C21.80781137 321.30568939 20.27052399 323.08075487 18 326 C17.40613489 328.46510392 17.40613489 328.46510392 18 331 C20.1703795 332.9562903 20.1703795 332.9562903 22.9375 334.625 C27.75115115 338.16904217 27.75115115 338.16904217 28.88671875 341.9609375 C29.09983383 344.67902819 29.16997999 347.2803201 29 350 C28.67 350 28.34 350 28 350 C27.773125 349.13375 27.54625 348.2675 27.3125 347.375 C25.00782206 341.44868531 21.47466269 338.04147927 16 335 C15.67 334.34 15.34 333.68 15 333 C14.67 335.31 14.34 337.62 14 340 C13.01 340 12.02 340 11 340 C10.34 338.02 9.68 336.04 9 334 C8.484375 334.9075 7.96875 335.815 7.4375 336.75 C4.96443733 340.51762616 1.98317039 342.0084148 -2 344 C-0.71076197 338.96025135 1.16684277 336.46809464 5 333 C6.1446875 331.8553125 6.1446875 331.8553125 7.3125 330.6875 C8.1478125 329.8521875 8.1478125 329.8521875 9 329 C7.72125 328.87625 6.4425 328.7525 5.125 328.625 C1.25 328.25 1.25 328.25 -1 326 C-4.29714793 326.32971479 -5.6226839 326.6226839 -8 329 C-7.67 327.35 -7.34 325.7 -7 324 C-2.45450969 323.07024062 1.37564282 323.06288352 6 323.5625 C10.95471801 324.06046161 14.37341328 323.78754487 19 322 C17.89504125 318.68512375 17.09564032 318.03716235 14.4375 315.9375 C12.49609375 314.40234375 12.49609375 314.40234375 11 313 C11 312.34 11 311.68 11 311 C10.01 310.67 9.02 310.34 8 310 C6.24609375 308.22265625 6.24609375 308.22265625 4.4375 306.0625 C2.66869432 303.96656037 0.94005112 301.94005112 -1 300 C-0.67342446 296.24438133 0.1169378 293.26397448 2 290 C0.35 290.33 -1.3 290.66 -3 291 C-2.01 289.35 -1.02 287.7 0 286 C-2.31 286 -4.62 286 -7 286 C-6.67 285.34 -6.34 284.68 -6 284 C-1.05 284 3.9 284 9 284 C9.99 282.02 10.98 280.04 12 278 C10.081875 278.0928125 10.081875 278.0928125 8.125 278.1875 C2.72576189 278.21325153 -1.94238735 276.77385997 -7 275 C-7.07089844 275.59296875 -7.14179688 276.1859375 -7.21484375 276.796875 C-8.290287 279.81453665 -9.87157792 280.58238632 -12.5625 282.25 C-13.38878906 282.77078125 -14.21507812 283.2915625 -15.06640625 283.828125 C-15.70449219 284.21484375 -16.34257812 284.6015625 -17 285 C-16.67 284.2575 -16.34 283.515 -16 282.75 C-14.77217129 279.86116688 -14.77217129 279.86116688 -15 276 C-19.95976172 285.5504249 -20.20280939 294.40884298 -20 305 C-23.45809994 304.70359143 -24.95510879 304.03653935 -27.6875 301.8125 C-32.09305518 296.45439235 -32.22927958 291.64910786 -32 285 C-33.32 284.34 -34.64 283.68 -36 283 C-36.93735011 273.58483889 -34.554771 265.88179383 -28.98046875 258.2265625 C-20.96645721 248.87922154 -10.66232557 243.58779728 0.06640625 237.88085938 C0.91847656 237.42130859 1.77054687 236.96175781 2.6484375 236.48828125 C3.41333496 236.08134033 4.17823242 235.67439941 4.96630859 235.25512695 C6.98596075 234.00866456 8.46482783 232.80499394 10 231 C12.72717459 216.90959794 4.74878974 202.05256733 -2.7734375 190.75390625 C-7.2978113 184.15509268 -12.04682075 177.82705681 -17.25 171.75 C-20.67567309 167.72012244 -23.77771844 163.63621755 -26.625 159.1875 C-27.27726562 158.17042969 -27.92953125 157.15335938 -28.6015625 156.10546875 C-30.22081389 152.50964514 -30.26430168 149.90089696 -30 146 C-28.56770833 147.30208333 -27.13541667 148.60416667 -25.703125 149.90625 C-23.77639485 151.36024492 -23.77639485 151.36024492 -20 151 C-20.70576172 150.14728516 -20.70576172 150.14728516 -21.42578125 149.27734375 C-22.35970703 148.11912109 -22.35970703 148.11912109 -23.3125 146.9375 C-23.92738281 146.18339844 -24.54226563 145.42929688 -25.17578125 144.65234375 C-30.0870785 137.51150685 -30.42256085 131.8736219 -30.25 123.375 C-30.24484375 122.35148437 -30.2396875 121.32796875 -30.234375 120.2734375 C-30.18655932 115.68313227 -29.92198953 111.49897155 -29 107 C-28.86173037 105.381374 -28.75688451 103.75958568 -28.68359375 102.13671875 C-28.64169922 101.25048828 -28.59980469 100.36425781 -28.55664062 99.45117188 C-28.51732422 98.53916016 -28.47800781 97.62714844 -28.4375 96.6875 C-28.39431641 95.75615234 -28.35113281 94.82480469 -28.30664062 93.86523438 C-28.20102775 91.57695546 -28.09892248 89.28857628 -28 87 C-27.01 87 -26.02 87 -25 87 C-24.66226562 87.71027344 -24.32453125 88.42054688 -23.9765625 89.15234375 C-23.53054688 90.07144531 -23.08453125 90.99054688 -22.625 91.9375 C-22.18414062 92.85402344 -21.74328125 93.77054687 -21.2890625 94.71484375 C-20.20800838 97.12903802 -20.20800838 97.12903802 -18 98 C-17.97287675 95.12493579 -17.95310149 92.25013092 -17.9375 89.375 C-17.92912109 88.56675781 -17.92074219 87.75851563 -17.91210938 86.92578125 C-17.894025 82.47702576 -18.2174506 78.39063979 -19 74 C-19.13929268 71.56505683 -19.21961078 69.12623475 -19.25 66.6875 C-19.27578125 65.45386719 -19.3015625 64.22023438 -19.328125 62.94921875 C-19.00036121 59.00434743 -18.11970548 56.00874156 -16.7890625 52.32397461 C-15.74401506 49.24606416 -15.09247129 46.13440836 -14.4152832 42.95898438 C-11.2191584 28.04277245 -5.65404861 14.12329957 0 0 Z " fill="#AE8B3E" transform="translate(408,86)"/>
<path d="M0 0 C230.34 0 460.68 0 698 0 C698 4.62 698 9.24 698 14 C467.66 14 237.32 14 0 14 C0 9.38 0 4.76 0 0 Z " fill="#34302E" transform="translate(163,928)"/>
<path d="M0 0 C230.34 0 460.68 0 698 0 C698 4.29 698 8.58 698 13 C467.66 13 237.32 13 0 13 C0 8.71 0 4.42 0 0 Z " fill="#34302E" transform="translate(163,813)"/>
<path d="M0 0 C2.86309184 -0.00967751 5.72545522 -0.04078871 8.58837891 -0.07226562 C34.22061717 -0.21838706 58.99200644 3.68831218 78.15478516 22.09960938 C78.85087891 22.80601562 79.54697266 23.51242187 80.26416016 24.24023438 C80.83650391 24.80226563 81.40884766 25.36429688 81.99853516 25.94335938 C91.80399051 36.35533774 95.96154042 51.20992255 95.55322266 65.25976562 C94.11864849 80.05138848 88.14652805 90.62677618 76.91259766 100.25585938 C62.95189744 110.71501589 44.6054891 114.18662588 27.48681641 114.55664062 C26.26979286 114.58781227 26.26979286 114.58781227 25.02818298 114.61961365 C22.46108677 114.68449081 19.89389679 114.74370359 17.32666016 114.80273438 C15.5759998 114.84597855 13.82534858 114.88959463 12.07470703 114.93359375 C7.80461844 115.04010788 3.53443647 115.14154552 -0.73583984 115.24023438 C-0.8598402 119.56345898 -0.9503624 123.88573039 -1.01049805 128.21020508 C-1.03557628 129.67978963 -1.0696484 131.14925025 -1.11303711 132.6184082 C-1.17399483 134.73615119 -1.202113 136.85224014 -1.22412109 138.97070312 C-1.25030518 140.24324951 -1.27648926 141.5157959 -1.3034668 142.8269043 C-0.58883617 147.12421647 0.94339373 148.52591498 4.26416016 151.24023438 C6.17636706 152.43295227 6.17636706 152.43295227 8.01416016 153.24023438 C11.26416016 155.24023438 11.26416016 155.24023438 12.32666016 157.86523438 C12.26416016 160.24023438 12.26416016 160.24023438 10.26416016 162.24023438 C8.17015076 162.48747253 8.17015076 162.48747253 5.55493164 162.4831543 C4.57729355 162.48623093 3.59965546 162.48930756 2.59239197 162.49247742 C1.53403641 162.4852919 0.47568085 162.47810638 -0.61474609 162.47070312 C-1.69715073 162.4702449 -2.77955536 162.46978668 -3.89476013 162.46931458 C-6.18546646 162.46628996 -8.47617069 162.45839747 -10.7668457 162.44604492 C-14.28718287 162.42779222 -17.80725719 162.42553516 -21.32763672 162.42578125 C-23.54834213 162.42086613 -25.76904576 162.41503783 -27.98974609 162.40820312 C-29.05012589 162.4070903 -30.11050568 162.40597748 -31.20301819 162.40483093 C-32.17750412 162.39845108 -33.15199005 162.39207123 -34.15600586 162.38549805 C-35.01823257 162.38168625 -35.88045929 162.37787445 -36.76881409 162.37394714 C-38.73583984 162.24023438 -38.73583984 162.24023438 -39.73583984 161.24023438 C-40.07568359 158.85351562 -40.07568359 158.85351562 -39.73583984 156.24023438 C-37.55244437 154.5243943 -35.27370511 153.41520497 -32.80224609 152.15820312 C-29.76885934 149.34271561 -29.99129575 146.18203744 -29.73583984 142.24023438 C-29.59536294 138.09745138 -29.57875471 133.95816159 -29.57470703 129.81323242 C-29.56974213 128.5879332 -29.56477722 127.36263397 -29.55966187 126.10020447 C-29.54761912 122.76172435 -29.54011439 119.42330627 -29.53565121 116.08481193 C-29.53270867 113.99757164 -29.52860204 111.9103367 -29.52414703 109.82309914 C-29.51050805 103.28721034 -29.50081977 96.7513339 -29.49694514 90.21543187 C-29.49245127 82.67822606 -29.47482718 75.1412004 -29.44594455 67.60404938 C-29.42435629 61.76779232 -29.41424266 55.93158611 -29.41290402 50.09528953 C-29.41185538 46.61265183 -29.40593321 43.13018432 -29.38808441 39.64758873 C-29.36860076 35.77175369 -29.37288117 31.89614664 -29.37939453 28.02026367 C-29.36557236 26.28800537 -29.36557236 26.28800537 -29.35147095 24.52075195 C-29.3570401 23.46800583 -29.36260925 22.4152597 -29.36834717 21.33061218 C-29.36688061 20.41460078 -29.36541405 19.49858938 -29.36390305 18.55482006 C-29.81208715 15.76574268 -30.52337384 14.94011072 -32.73583984 13.24023438 C-33.62271484 12.80710937 -34.50958984 12.37398437 -35.42333984 11.92773438 C-36.18646484 11.37085938 -36.94958984 10.81398438 -37.73583984 10.24023438 C-38.17333984 7.17773438 -38.17333984 7.17773438 -37.73583984 4.24023438 C-30.43381099 -3.06179448 -9.7421169 0.01981783 0 0 Z M2.26416016 12.24023438 C-0.19041572 15.92209819 -0.04531511 18.73511677 -0.05810547 22.99707031 C-0.06803528 23.78605713 -0.07796509 24.57504395 -0.0881958 25.38793945 C-0.11742307 28.00019821 -0.13104121 30.61221392 -0.14208984 33.22460938 C-0.15359587 35.04201259 -0.1651113 36.85941575 -0.17663574 38.67681885 C-0.19765236 42.48996104 -0.20933923 46.30301897 -0.21630859 50.11621094 C-0.22726585 54.99340902 -0.27529249 59.86948685 -0.3322525 64.74633408 C-0.36957693 68.50225023 -0.37992023 72.25789876 -0.38298035 76.01398468 C-0.38902053 77.81130332 -0.40503467 79.60861796 -0.43135071 81.40575409 C-0.46562355 83.92663122 -0.46168003 86.44480213 -0.44873047 88.96582031 C-0.47637482 90.07114105 -0.47637482 90.07114105 -0.50457764 91.1987915 C-0.42112488 96.40787315 1.18872361 99.08330691 4.68375397 102.90222549 C10.18807453 107.56231215 21.50232178 105.65325865 28.26416016 105.24023438 C32.14285426 104.63737449 35.61998737 103.68415189 39.26416016 102.24023438 C39.96412109 101.97339844 40.66408203 101.7065625 41.38525391 101.43164062 C52.84984723 96.40331022 58.71304853 87.42407403 63.26416016 76.24023438 C67.62689602 64.22323426 65.76465046 50.90505658 61.26416016 39.24023438 C55.60665257 27.13419991 46.49975215 17.66488107 34.26416016 12.24023438 C24.10056606 8.80327019 11.93926364 6.56136929 2.26416016 12.24023438 Z " fill="#34302E" transform="translate(201.73583984375,540.759765625)"/>
<path d="M0 0 C3.00197464 1.80118478 4.45166366 2.90332732 6 6 C6.25303321 9.87984253 6.30454139 12.77364205 4 16 C0.24238248 18.64912035 -3.84943679 18.22607301 -8.25 18.125 C-8.99507812 18.11597656 -9.74015625 18.10695313 -10.5078125 18.09765625 C-12.33868059 18.07418358 -14.16938238 18.03831525 -16 18 C-16.66 20.64 -17.32 23.28 -18 26 C-17.21625 26.04125 -16.4325 26.0825 -15.625 26.125 C-6.9151587 28.22737549 -0.06602814 33.71846652 5 41 C9.91350348 49.77540843 10.03422052 58.8989058 7.5625 68.4375 C4.87979554 76.53301098 -0.20886466 83.15939893 -7.6875 87.4375 C-21.4042238 93.16864598 -35.89981307 92.69040506 -50.35546875 90.92578125 C-53.02065594 90.75858082 -53.02065594 90.75858082 -54.8828125 92.3125 C-56.28788552 94.04095927 -56.28788552 94.04095927 -55.6875 96.6875 C-55.3471875 97.8321875 -55.3471875 97.8321875 -55 99 C-52.30551597 99.89816134 -50.56503072 100.15883805 -47.7824707 100.24951172 C-46.93340652 100.27979462 -46.08434235 100.31007751 -45.20954895 100.34127808 C-44.29090561 100.37045319 -43.37226227 100.3996283 -42.42578125 100.4296875 C-40.45766582 100.50346813 -38.48956735 100.57770242 -36.52148438 100.65234375 C-33.4372278 100.76474625 -30.35298096 100.87368191 -27.26831055 100.97412109 C9.84354575 102.20727298 9.84354575 102.20727298 21.9375 112.5 C26.60190472 118.1538239 28.16044585 122.65157996 28 130 C26.75155514 138.03610621 23.29011478 144.6963822 16.80859375 149.6875 C-3.39692304 162.66054449 -32.69352821 162.93926394 -55.60449219 158.34008789 C-64.94473436 156.23699484 -72.49727733 153.26774887 -79 146 C-81.74824278 141.54314576 -81.85749989 137.08534717 -81 132 C-78.40557028 126.49876774 -74.462579 122.06882203 -70 118 C-70.94875 117.278125 -71.8975 116.55625 -72.875 115.8125 C-75.8140439 113.57627095 -76.90129129 111.52416002 -78 108 C-78.91584306 100.87559295 -78.23669648 94.89285964 -74 89 C-72.09788836 86.83344845 -70.13979554 84.94526867 -68 83 C-69.47272734 79.92001735 -71.18127812 77.07472098 -73 74.1875 C-77.2169549 67.1729555 -79.1330332 60.80798532 -77.53515625 52.6171875 C-74.96126027 42.65666698 -68.82828709 35.28583977 -60.1640625 29.84765625 C-50.36171872 24.54638869 -39.97840562 23.46477922 -29 23 C-28.85304688 22.443125 -28.70609375 21.88625 -28.5546875 21.3125 C-25.98407232 12.56649892 -21.32537621 6.37194256 -14 1 C-9.38471264 -0.53842912 -4.8197958 -0.52848638 0 0 Z M-49.4296875 37.3125 C-55.56609944 43.90685313 -57.41252643 52.57679434 -57.26953125 61.3125 C-56.58895848 68.09850098 -54.13416068 73.36508696 -49.125 78 C-42.52385651 83.1476807 -36.18648281 83.7398862 -28 83 C-21.86730247 81.29088757 -18.48684845 78.15078525 -15 73 C-10.80675074 65.33141187 -9.94789534 57.52091865 -12.0625 49.0625 C-14.2044419 42.43460431 -18.1657911 37.86937183 -23.9375 34.0625 C-32.79462057 30.98962144 -41.843574 31.3847462 -49.4296875 37.3125 Z M-54 122 C-54.64759277 123.10988281 -55.29518555 124.21976563 -55.96240234 125.36328125 C-56.32667328 125.98759033 -56.69094421 126.61189941 -57.06625366 127.25512695 C-58.83769321 130.56538049 -58.89976716 133.40093137 -58 137 C-55.45225896 142.07485259 -51.76538493 144.38271073 -46.5625 146.375 C-33.49733235 150.47869024 -15.8165183 151.02389518 -3.05566406 145.09692383 C1.31395601 142.69658984 3.8564337 140.55507838 6 136 C6.07372816 131.7237666 5.77128851 129.81536214 2.8125 126.6875 C-3.68293204 122.79024078 -9.70622338 122.66959483 -17.0859375 122.5859375 C-18.14285797 122.56657135 -19.19977844 122.5472052 -20.28872681 122.5272522 C-23.65073684 122.46767086 -27.01278151 122.42115658 -30.375 122.375 C-32.66017084 122.33680052 -34.94532758 122.29774764 -37.23046875 122.2578125 C-42.820187 122.16198698 -48.40999076 122.07687711 -54 122 Z " fill="#34302E" transform="translate(748,570)"/>
<path d="M0 0 C12.65392676 9.31662739 18.75957755 20.73152901 21.1875 36.25 C21.50739324 39.12459617 21.51597789 41.34844529 21.1875 44.25 C17.50473731 46.70517512 15.72116613 46.49259705 11.3293457 46.47705078 C10.63640411 46.47734283 9.94346252 46.47763489 9.22952271 46.47793579 C6.94064788 46.47654319 4.65209916 46.46098557 2.36328125 46.4453125 C0.77573321 46.44158211 -0.81181712 46.43873526 -2.39936829 46.43673706 C-6.57677574 46.4291026 -10.75404401 46.40945575 -14.93139648 46.3873291 C-19.19447955 46.36686663 -23.4575851 46.35773449 -27.72070312 46.34765625 C-36.08469927 46.32620965 -44.44858232 46.292076 -52.8125 46.25 C-52.36636887 48.63691478 -51.91210088 51.02180076 -51.453125 53.40625 C-51.3288916 54.0755957 -51.2046582 54.74494141 -51.07666016 55.43457031 C-49.27371574 64.71009567 -45.44698941 72.48008781 -37.8125 78.25 C-28.22653671 83.94536399 -19.8651606 85.1045292 -8.8125 84.25 C-6.01255161 83.44688573 -3.53884309 82.4489651 -0.91015625 81.20703125 C1.73405699 80.00063974 4.30858217 79.55304398 7.1875 79.25 C9.1875 82.25 9.1875 82.25 9.25 85.125 C7.74414844 89.55397517 5.19971348 91.22013227 1.1875 93.25 C-11.51516051 98.99332368 -27.76380574 99.3238283 -41.08203125 95.28515625 C-55.04814853 89.99041937 -64.81898007 82.61943031 -71.8125 69.25 C-78.56415223 53.81765204 -77.98554653 38.99616984 -72.8125 23.25 C-67.51328216 9.8400822 -57.58189859 1.42498169 -44.87890625 -4.5078125 C-30.97518947 -10.14014618 -12.52836394 -7.77183255 0 0 Z M-45.30859375 9.1171875 C-49.60259755 15.20686562 -50.93777298 21.78606456 -51.4140625 29.1171875 C-51.49221191 30.2707373 -51.57036133 31.42428711 -51.65087891 32.61279297 C-51.70421387 33.48307129 -51.75754883 34.35334961 -51.8125 35.25 C-32.81798163 36.05614557 -32.81798163 36.05614557 -13.8125 36.5 C-13.03737061 36.52126953 -12.26224121 36.54253906 -11.46362305 36.56445312 C-7.42730955 36.59984923 -7.42730955 36.59984923 -3.83984375 34.9453125 C-1.42097308 30.95371604 -2.56578345 26.42777781 -3.46875 22.1171875 C-5.61646234 14.13732526 -8.40703567 7.4932786 -15.7265625 3.1015625 C-25.88125835 -1.30824566 -37.87589701 0.87396467 -45.30859375 9.1171875 Z " fill="#34302E" transform="translate(840.8125,604.75)"/>
<path d="M0 0 C12.38791832 8.05870632 18.84235513 18.55611199 22.08203125 32.8046875 C22.96467167 37.08134852 23.6918908 41.1236029 23.26953125 45.4921875 C19.58676856 47.94736262 17.80319738 47.73478455 13.41137695 47.71923828 C12.71843536 47.71953033 12.02549377 47.71982239 11.31155396 47.72012329 C9.02267913 47.71873069 6.73413041 47.70317307 4.4453125 47.6875 C2.85776446 47.68376961 1.27021413 47.68092276 -0.31733704 47.67892456 C-4.49474449 47.6712901 -8.67201276 47.65164325 -12.84936523 47.6295166 C-17.1124483 47.60905413 -21.37555385 47.59992199 -25.63867188 47.58984375 C-34.00266802 47.56839715 -42.36655107 47.5342635 -50.73046875 47.4921875 C-50.4234725 49.41798425 -50.11258448 51.34316088 -49.80004883 53.26806641 C-49.62733963 54.34021393 -49.45463043 55.41236145 -49.27668762 56.51699829 C-47.6569455 65.33954093 -43.87954076 73.86064438 -36.4375 79.109375 C-26.86364103 85.16364588 -17.97688004 86.49212993 -6.73046875 85.4921875 C-3.93739923 84.68424461 -1.45116483 83.68778966 1.17578125 82.453125 C3.83556009 81.23240561 6.35925772 80.71605469 9.26953125 80.4921875 C10.26953125 81.4921875 10.26953125 81.4921875 10.58203125 84.8046875 C10.26953125 88.4921875 10.26953125 88.4921875 8.76953125 90.6796875 C-0.20640866 97.18724393 -9.67951927 98.87845452 -20.60546875 98.8046875 C-21.48460937 98.79904785 -22.36375 98.7934082 -23.26953125 98.78759766 C-29.81777807 98.66530237 -35.62722742 98.00584695 -41.73046875 95.4921875 C-43.20193359 94.88890625 -43.20193359 94.88890625 -44.703125 94.2734375 C-57.16123557 88.60350096 -66.39671148 79.67891585 -71.7890625 67.00390625 C-77.00352315 52.15891061 -76.083056 35.59629626 -69.54296875 21.3671875 C-62.79888771 8.86253724 -53.10633295 0.33248077 -39.73046875 -4.5078125 C-27.0955536 -8.11897528 -11.3550562 -6.27046022 0 0 Z M-42.73046875 9.4921875 C-48.16124319 18.26375905 -49.84747288 26.34473805 -49.73046875 36.4921875 C-40.7318649 36.87162846 -31.7322312 37.1976386 -22.73046875 37.4921875 C-21.70904785 37.52908691 -20.68762695 37.56598633 -19.63525391 37.60400391 C-17.00027663 37.69288482 -14.36642267 37.75430391 -11.73046875 37.8046875 C-10.56777466 37.84916016 -10.56777466 37.84916016 -9.3815918 37.89453125 C-6.14608344 37.92978364 -4.24617447 37.92948183 -1.7265625 35.79296875 C0.80595434 29.94335141 -1.35560076 22.9124946 -3.48046875 17.1796875 C-6.17949834 11.04110035 -9.55178783 6.5023141 -15.73046875 3.4921875 C-24.86695118 0.79277224 -36.06965279 2.27630354 -42.73046875 9.4921875 Z " fill="#34302E" transform="translate(446.73046875,603.5078125)"/>
<path d="M0 0 C5.39145138 1.14049933 7.32692622 5.26338833 10.25 9.6875 C10.98347656 10.7703125 11.71695313 11.853125 12.47265625 12.96875 C18.88288514 22.76612256 18.88288514 22.76612256 18.25 28.6875 C17.25 29.6875 17.25 29.6875 15.0703125 30.0390625 C11.19784527 29.55634498 9.00567598 27.50166316 6.125 25.0625 C-4.87564313 16.18666012 -15.30132413 10.66477746 -29.75 11.6875 C-33.23311623 12.17573846 -33.23311623 12.17573846 -35.75 13.6875 C-38.14293632 17.49444415 -38.30029943 21.28510453 -37.75 25.6875 C-32.14399932 33.99984583 -19.16082441 35.44617716 -10 37.5625 C19.93141319 44.80069492 19.93141319 44.80069492 28.625 57.1875 C33.12671328 64.56394866 34.14751142 71.08911903 33.25 79.6875 C32.31426355 82.96510658 30.97152502 85.75411198 29.25 88.6875 C28.899375 89.31398438 28.54875 89.94046875 28.1875 90.5859375 C23.51048114 98.02369665 15.94778469 102.2192516 7.54296875 104.22265625 C-1.04763904 105.43532805 -10.477421 105.74364757 -18.9375 103.625 C-23.01014685 102.62352946 -25.69688268 102.69489984 -29.75 103.6875 C-30.74 104.6775 -30.74 104.6775 -31.75 105.6875 C-34.0234375 106.19921875 -34.0234375 106.19921875 -36.75 105.6875 C-38.86329839 103.6680587 -40.57930741 101.77454394 -42.375 99.5 C-43.425247 98.21310547 -44.47604146 96.92665757 -45.52734375 95.640625 C-46.05827637 94.98255859 -46.58920898 94.32449219 -47.13623047 93.64648438 C-48.69377234 91.75575579 -50.30009263 89.92753902 -51.94140625 88.109375 C-52.44526855 87.54371826 -52.94913086 86.97806152 -53.46826172 86.39526367 C-54.42242484 85.3267849 -55.38585051 84.26648021 -56.35986328 83.21606445 C-59.59983325 79.51712898 -60.54012536 76.57458096 -60.75 71.6875 C-59.75 70.6875 -59.75 70.6875 -57.5859375 70.28125 C-53.46036931 70.87224049 -51.28188396 73.41960865 -48.375 76.1875 C-37.09633912 86.32600932 -24.46301235 93.29958561 -8.93359375 93.7734375 C-3.40241238 93.45254454 1.86375568 92.2045807 6.25 88.6875 C9.06055113 85.03537141 10.12424786 81.59920304 10.75 77.0625 C10.04942138 72.33359429 8.43671844 69.37085939 4.59863281 66.41625977 C-0.57311547 63.07434051 -5.56251153 61.28229114 -11.5 59.75 C-13.35053232 59.2444839 -15.20078568 58.73794563 -17.05078125 58.23046875 C-17.99002441 57.97700684 -18.92926758 57.72354492 -19.89697266 57.46240234 C-24.50797873 56.21002058 -29.10055087 54.90000372 -33.6875 53.5625 C-34.50895508 53.33312744 -35.33041016 53.10375488 -36.17675781 52.86743164 C-44.68910112 50.37685508 -50.15363769 46.28148991 -54.75 38.6875 C-57.89833542 30.53044913 -57.16860757 23.55029741 -53.75 15.6875 C-49.86466922 9.26176064 -42.17455258 4.54731302 -35.1171875 2.15234375 C-28.60835692 0.87420705 -21.10819093 0.68252589 -14.75 2.75 C-11.27286836 3.83660364 -9.23846688 3.63890006 -5.75 2.6875 C-2.75 0.6875 -2.75 0.6875 0 0 Z " fill="#34302E" transform="translate(532.75,597.3125)"/>
<path d="M0 0 C2.85793316 2.85793316 2.40799941 5.14665584 2.625 9.125 C2.69976562 10.40632812 2.77453125 11.68765625 2.8515625 13.0078125 C2.90054688 13.99523437 2.94953125 14.98265625 3 16 C3.825 15.175 4.65 14.35 5.5 13.5 C9.35752156 10.17427668 13.59844737 7.95282824 18.125 5.6875 C18.81787109 5.33816406 19.51074219 4.98882813 20.22460938 4.62890625 C28.83097594 0.4290655 37.97915661 -0.58399494 47.1875 2.5 C48.46481967 2.98318923 49.73856633 3.47673863 51 4 C51.80126449 12.0126449 49.55712733 21.52608728 44.484375 27.90625 C43 29 43 29 40.5625 29.1875 C37.51860571 27.77691484 37.33163099 27.02767022 36 24.0625 C34.53844692 20.75576331 34.53844692 20.75576331 31.75 18.5 C25.43397867 17.35163249 20.58930639 17.38875035 14.953125 20.55078125 C8.09283306 25.64111787 4.40943051 32.71374087 3 41 C2.64223833 49.69331523 3.09056179 58.43601013 3.4375 67.125 C3.47681641 68.21425781 3.51613281 69.30351563 3.55664062 70.42578125 C3.68062283 73.61879988 3.83597173 76.80881377 4 80 C4.05716187 81.54276611 4.05716187 81.54276611 4.11547852 83.11669922 C4.32230962 88.66646231 4.32230962 88.66646231 6.84765625 93.4296875 C7.57855469 93.90664063 8.30945313 94.38359375 9.0625 94.875 C11.28515625 96.3671875 11.28515625 96.3671875 13 98 C13.24609375 100.6953125 13.24609375 100.6953125 13 103 C9.57246776 104.71376612 5.64203256 104.1414536 1.87109375 104.1328125 C0.96625748 104.13376923 0.0614212 104.13472595 -0.87083435 104.13571167 C-2.78490264 104.13639273 -4.69897324 104.13454361 -6.61303711 104.13037109 C-9.55392604 104.12501561 -12.49466267 104.13032178 -15.43554688 104.13671875 C-17.29166701 104.13605808 -19.14778704 104.13477714 -21.00390625 104.1328125 C-22.33199059 104.13584885 -22.33199059 104.13584885 -23.68690491 104.13894653 C-29.88504592 104.11495408 -29.88504592 104.11495408 -31 103 C-31.33984375 100.62890625 -31.33984375 100.62890625 -31 98 C-29.06640625 96.33984375 -29.06640625 96.33984375 -26.5625 94.9375 C-23.25548369 93.25671314 -23.25548369 93.25671314 -21.38290405 90.28941345 C-20.90794635 87.44960401 -20.84094929 84.72226877 -20.80712891 81.84204102 C-20.79106598 80.59717422 -20.77500305 79.35230743 -20.75845337 78.06971741 C-20.74696812 76.714454 -20.73635921 75.35918292 -20.7265625 74.00390625 C-20.72123882 73.31876387 -20.71591515 72.63362148 -20.71043015 71.92771721 C-20.68376205 68.30395504 -20.66436359 64.68022664 -20.64990234 61.05639648 C-20.63654517 58.06194636 -20.6086529 55.06817482 -20.56787109 52.07397461 C-20.51853858 48.45125085 -20.49378201 44.82914385 -20.48667526 41.20609856 C-20.47996882 39.82857455 -20.4647621 38.45106401 -20.44078445 37.07373238 C-20.05574957 29.82277297 -20.05574957 29.82277297 -22.07830811 23.05172729 C-23.82932861 21.24423133 -25.76019518 20.11990241 -28 19 C-28.37353382 14.46423213 -28.37353382 14.46423213 -26.77734375 12.48046875 C-22.12849157 9.213441 -17.28708663 6.36226493 -12.3125 3.625 C-11.35041626 3.08782349 -11.35041626 3.08782349 -10.36889648 2.53979492 C-6.81183185 0.64697291 -4.05195363 -0.65707356 0 0 Z " fill="#34302E" transform="translate(326,598)"/>
<path d="M0 0 C1.423125 0.4021875 1.423125 0.4021875 2.875 0.8125 C4.29767862 3.65785725 4.09471869 6.17468552 4.19140625 9.3515625 C4.23330078 10.65351562 4.27519531 11.95546875 4.31835938 13.296875 C4.35817299 14.67708045 4.39788522 16.05728883 4.4375 17.4375 C4.48069407 18.82553415 4.52430865 20.21355528 4.56835938 21.6015625 C4.67471934 25.00508129 4.77538918 28.408777 4.875 31.8125 C12.795 31.8125 20.715 31.8125 28.875 31.8125 C28.875 35.7725 28.875 39.7325 28.875 43.8125 C20.955 43.8125 13.035 43.8125 4.875 43.8125 C4.93799689 52.44481438 5.01347346 61.07677477 5.11071491 69.70877266 C5.15537715 73.71728619 5.19464218 77.72569905 5.22143555 81.734375 C5.24751025 85.60547374 5.2879415 89.47618427 5.33818626 93.34704208 C5.35482694 94.82130975 5.36635864 96.29564452 5.37261391 97.76999283 C5.382286 99.84072485 5.4103794 101.91047 5.44262695 103.98095703 C5.45373001 105.15788116 5.46483307 106.3348053 5.47627258 107.5473938 C5.9951674 111.79652892 7.23878141 115.41868416 10.5625 118.25 C16.52123468 119.69942195 21.75391168 117.81021024 26.875 114.8125 C27.205 114.4825 27.535 114.1525 27.875 113.8125 C30.3125 113.625 30.3125 113.625 32.875 113.8125 C33.865 114.8025 33.865 114.8025 34.875 115.8125 C34.76357071 119.82395435 33.10057778 122.43516593 30.453125 125.39453125 C24.29295493 130.92953555 15.15604338 133.30677293 7.015625 133.06640625 C0.37673364 132.27894651 -6.01461448 130.19283044 -11.125 125.8125 C-15.35990665 119.98439696 -16.24145997 114.99082255 -16.33032227 107.93261719 C-16.34517166 106.90761612 -16.34517166 106.90761612 -16.36032104 105.86190796 C-16.39182044 103.61109846 -16.41664752 101.36026789 -16.44140625 99.109375 C-16.46198577 97.54566917 -16.48298251 95.98196878 -16.50437927 94.41827393 C-16.55949686 90.30839449 -16.60895148 86.19846572 -16.65722656 82.08850098 C-16.70751702 77.89228946 -16.76316366 73.69614935 -16.81835938 69.5 C-16.92581475 61.27089376 -17.02728759 53.04172767 -17.125 44.8125 C-18.795625 44.626875 -18.795625 44.626875 -20.5 44.4375 C-24.125 43.8125 -24.125 43.8125 -26.125 41.8125 C-25.835018 37.86230073 -24.66998713 35.90574297 -21.9375 33.125 C-15.19848233 25.71208056 -11.4149187 17.6503725 -8.21655273 8.2578125 C-5.23497311 -0.31409839 -5.23497311 -0.31409839 0 0 Z " fill="#34302E" transform="translate(585.125,572.1875)"/>
<path d="M0 0 C5.07183259 5.63372658 5.88567468 11.42171328 5.70703125 18.74609375 C4.86298124 26.34254388 0.75202647 30.54547494 -4.98828125 35.23828125 C-5.519375 35.65078125 -6.05046875 36.06328125 -6.59765625 36.48828125 C-2.59582018 44.49195339 3.43348427 50.82317032 10.02734375 56.80078125 C12.40234375 59.48828125 12.40234375 59.48828125 12.33984375 62.30078125 C11.40234375 64.48828125 11.40234375 64.48828125 10.40234375 65.48828125 C6.59646231 65.74036847 2.77808919 65.67350469 -1.03515625 65.67578125 C-2.11087891 65.68802734 -3.18660156 65.70027344 -4.29492188 65.71289062 C-5.32166016 65.71482422 -6.34839844 65.71675781 -7.40625 65.71875 C-8.82635376 65.72491333 -8.82635376 65.72491333 -10.27514648 65.73120117 C-12.59765625 65.48828125 -12.59765625 65.48828125 -14.59765625 63.48828125 C-14.22640625 62.23015625 -13.85515625 60.97203125 -13.47265625 59.67578125 C-12.97869912 56.02764002 -13.68198007 54.00019894 -15.703125 51.0390625 C-19.45495691 46.27847718 -23.32953422 41.61894067 -29.515625 40.4375 C-32.94309144 40.20341208 -36.17880286 40.17977525 -39.59765625 40.48828125 C-39.51073886 43.26064619 -39.40388264 46.02975203 -39.28515625 48.80078125 C-39.26259766 49.58646484 -39.24003906 50.37214844 -39.21679688 51.18164062 C-39.16362305 52.31762695 -39.16362305 52.31762695 -39.109375 53.4765625 C-39.08319092 54.17305908 -39.05700684 54.86955566 -39.0300293 55.5871582 C-38.75957853 57.61960869 -38.75957853 57.61960869 -37.00317383 58.92651367 C-36.30744263 59.69958862 -36.30744263 59.69958862 -35.59765625 60.48828125 C-35.92765625 62.13828125 -36.25765625 63.78828125 -36.59765625 65.48828125 C-44.18765625 65.48828125 -51.77765625 65.48828125 -59.59765625 65.48828125 C-59.92765625 64.16828125 -60.25765625 62.84828125 -60.59765625 61.48828125 C-59.93765625 60.49828125 -59.27765625 59.50828125 -58.59765625 58.48828125 C-57.93765625 58.48828125 -57.27765625 58.48828125 -56.59765625 58.48828125 C-56.54694288 50.74701739 -56.51191697 43.00579639 -56.48779297 35.2644043 C-56.47773595 32.63092447 -56.46408865 29.9974558 -56.44677734 27.36401367 C-56.42251635 23.57858525 -56.41117005 19.79330449 -56.40234375 16.0078125 C-56.38685989 14.24193535 -56.38685989 14.24193535 -56.37106323 12.44038391 C-56.37083664 10.78923836 -56.37083664 10.78923836 -56.37060547 9.10473633 C-56.36394363 7.65578728 -56.36394363 7.65578728 -56.35714722 6.17756653 C-56.61918149 3.24759376 -57.27970081 1.11215279 -58.59765625 -1.51171875 C-59.25765625 -1.84171875 -59.91765625 -2.17171875 -60.59765625 -2.51171875 C-60.59765625 -4.16171875 -60.59765625 -5.81171875 -60.59765625 -7.51171875 C-43.22692445 -15.82820811 -14.15398308 -13.39264413 0 0 Z M-41.59765625 -2.51171875 C-41.87692011 0.24285582 -41.96970929 2.76967585 -41.92578125 5.5234375 C-41.92390808 6.31729355 -41.92203491 7.1111496 -41.92010498 7.92906189 C-41.91337893 9.60777992 -41.8994534 11.28648213 -41.87890625 12.96508789 C-41.84773906 15.54392953 -41.83793569 18.12216056 -41.83203125 20.70117188 C-41.82286206 22.32943459 -41.81248655 23.95769105 -41.80078125 25.5859375 C-41.79653137 26.36195816 -41.79228149 27.13797882 -41.78790283 27.93751526 C-42.06752654 31.50957727 -42.06752654 31.50957727 -40.59765625 34.48828125 C-31.42976102 35.19770171 -22.81321735 34.86160647 -15.22265625 29.23828125 C-11.16462698 24.98701249 -9.47099243 20.87645283 -9.16015625 15.05078125 C-9.38847676 9.46644218 -11.12575086 4.84646702 -15.2109375 0.94921875 C-22.32255802 -4.44362874 -33.67553406 -7.79313354 -41.59765625 -2.51171875 Z " fill="#34302E" transform="translate(474.59765625,725.51171875)"/>
<path d="M0 0 C9.18754624 6.62734817 14.5544275 14.99325495 16.91015625 26.140625 C18.43089659 38.37646681 15.01051928 49.47225864 7.78515625 59.4140625 C1.71283186 66.15449104 -7.72053694 70.84882516 -16.75390625 71.55078125 C-27.44073182 71.77765241 -36.42503285 70.03893305 -44.84375 63.12109375 C-53.16923209 54.95436026 -57.66155499 44.46812008 -58.1875 32.8125 C-57.64225426 20.36272219 -52.76534535 10.94028071 -43.875 2.5625 C-31.3019525 -7.98729848 -13.79509141 -8.56649501 0 0 Z M-35.9375 9 C-42.28308419 18.29780784 -42.79406478 28.34341563 -41.6875 39.3125 C-40.00259414 48.16828496 -36.12396002 56.29235221 -28.73828125 61.75390625 C-24.22882591 64.29656574 -19.80114023 65.41680752 -14.6875 64.3125 C-7.48421146 61.60786902 -3.78822734 56.12620021 -0.6875 49.3125 C2.87488261 38.88155092 2.61019071 27.27725412 -1.359375 17.00390625 C-4.85571121 9.91868376 -9.25052725 4.26164437 -16.6875 1.3125 C-24.91169832 -0.07771146 -30.77082672 2.640041 -35.9375 9 Z " fill="#34302E" transform="translate(537.6875,719.6875)"/>
<path d="M0 0 C1.55920151 3.11840301 1.15308284 6.43498482 1.15771484 9.85864258 C1.16533592 11.07598335 1.16533592 11.07598335 1.17311096 12.31791687 C1.18382532 14.08363065 1.19244131 15.84935809 1.19923019 17.61509132 C1.21100311 20.41010802 1.23045223 23.20496907 1.25234985 25.99992371 C1.31401683 33.94789449 1.36800481 41.89585022 1.40136719 49.84399414 C1.4223135 54.70287796 1.45761842 59.56147964 1.50212479 64.42020226 C1.51628753 66.27210862 1.52500784 68.12406492 1.52817917 69.97602272 C1.53308832 72.56870655 1.55624666 75.16064207 1.58349609 77.75317383 C1.58048996 78.5175174 1.57748383 79.28186096 1.5743866 80.06936646 C1.64405479 84.53328554 2.1696567 87.48935289 5 91 C6.03125 91.45375 7.0625 91.9075 8.125 92.375 C9.07375 92.91125 10.0225 93.4475 11 94 C11.9375 97.625 11.9375 97.625 12 101 C11 102 11 102 7.30639648 102.11352539 C5.66128708 102.11336624 4.01617269 102.10766988 2.37109375 102.09765625 C1.07474754 102.09553383 1.07474754 102.09553383 -0.24778748 102.09336853 C-3.01939292 102.08775239 -5.7909188 102.07519719 -8.5625 102.0625 C-10.4368478 102.05748708 -12.31119685 102.05292381 -14.18554688 102.04882812 C-18.79039544 102.03777772 -23.39518421 102.0205023 -28 102 C-28.640625 100.16015625 -28.640625 100.16015625 -29 98 C-26.75 95.4375 -26.75 95.4375 -24 93 C-21.05663268 90.2668732 -20.08026291 88.41794627 -19.84609985 84.28115845 C-19.83323944 83.18371307 -19.82037903 82.0862677 -19.80712891 80.95556641 C-19.79106598 79.71062408 -19.77500305 78.46568176 -19.75845337 77.18301392 C-19.74696724 75.82253707 -19.73635847 74.46205257 -19.7265625 73.1015625 C-19.72123882 72.41550304 -19.71591515 71.72944359 -19.71043015 71.02259445 C-19.68373348 67.39235299 -19.66434613 63.76214554 -19.64990234 60.13183594 C-19.63655498 57.13054989 -19.60868486 54.12994246 -19.56787109 51.12890625 C-19.51853506 47.50085154 -19.49378101 43.87341291 -19.48667526 40.24503708 C-19.47996745 38.86472213 -19.46475714 37.4844207 -19.44078445 36.10429764 C-19.40911191 34.17084844 -19.4120994 32.23692624 -19.41650391 30.30322266 C-19.40841705 29.2041861 -19.4003302 28.10514954 -19.39199829 26.97280884 C-20.19720212 23.03578526 -22.00396149 21.58227783 -25 19 C-27 17 -27 17 -27.4296875 14.59375 C-27 12 -27 12 -24.9453125 10.15625 C-24.01460937 9.6096875 -23.08390625 9.063125 -22.125 8.5 C-21.12339844 7.91089844 -20.12179687 7.32179688 -19.08984375 6.71484375 C-18.07019531 6.14894531 -17.05054688 5.58304688 -16 5 C-15.09378906 4.48566406 -14.18757812 3.97132813 -13.25390625 3.44140625 C-8.7205321 1.00566641 -5.28892199 -0.69591079 0 0 Z " fill="#34302E" transform="translate(651,601)"/>
<path d="M0 0 C1.12277344 0.10183594 2.24554688 0.20367188 3.40234375 0.30859375 C6 1 6 1 7.390625 2.671875 C7.67421875 3.35765625 7.9578125 4.0434375 8.25 4.75 C8.55808594 5.47316406 8.86617188 6.19632813 9.18359375 6.94140625 C9.45300781 7.62074219 9.72242188 8.30007813 10 9 C10.433125 9.886875 10.86625 10.77375 11.3125 11.6875 C12.14108576 14.4745612 11.7902346 16.23417888 11 19 C6.65900461 18.49911592 4.79185881 17.20065724 1.75 14.125 C-3.61871593 9.14868191 -8.35762949 7.38340742 -15.5625 6.625 C-21.46327859 7.2687213 -26.1000366 8.65198703 -30.3125 13 C-37.58708485 22.53426516 -36.77309061 35.38556174 -35.75390625 46.7421875 C-34.79233614 52.47195581 -32.25099228 57.02761398 -28 61 C-21.94553732 64.63057901 -15.95168307 66.14569988 -8.9375 66.25 C-7.89464844 66.27578125 -6.85179687 66.3015625 -5.77734375 66.328125 C-3.06390155 66.17993622 -3.06390155 66.17993622 -1.15625 65.0078125 C0.72871457 61.734597 0.47161171 58.29666031 0.4375 54.625 C0.45748047 53.86960937 0.47746094 53.11421875 0.49804688 52.3359375 C0.49348719 47.11965895 -0.52215721 45.02547856 -4 41 C-3.67 39.68 -3.34 38.36 -3 37 C3.93 37 10.86 37 18 37 C17 42 17 42 15 45 C14.77722808 47.81502705 14.67554779 50.49894994 14.6875 53.3125 C14.67138672 54.05951172 14.65527344 54.80652344 14.63867188 55.57617188 C14.63433526 60.5155721 15.52223874 63.62175694 18 68 C18.1875 70.875 18.1875 70.875 18 73 C14.82059328 74.86604258 12.47664029 75.2564867 8.80859375 75.265625 C7.79031494 75.26989502 6.77203613 75.27416504 5.72290039 75.27856445 C4.63871826 75.26913818 3.55453613 75.25971191 2.4375 75.25 C1.3230249 75.24250732 0.2085498 75.23501465 -0.93969727 75.22729492 C-32.45551615 74.82362182 -32.45551615 74.82362182 -43.8125 64.9375 C-50.81016785 57.3939148 -53.3672146 46.61116332 -53.21484375 36.5546875 C-52.21587137 24.67599775 -47.76639952 14.86135534 -39.09375 6.72265625 C-27.82533144 -2.54856126 -13.673776 -1.32758353 0 0 Z " fill="#34302E" transform="translate(395,716)"/>
<path d="M0 0 C1.75376953 -0.0309375 1.75376953 -0.0309375 3.54296875 -0.0625 C16.14444212 -0.11844439 27.17209909 1.83409388 36.55859375 10.7265625 C42.51965186 17.3420988 43.58782524 23.44415576 43.33984375 32.09375 C42.64472792 38.5495384 40.31038966 42.47241066 35.3125 46.5625 C26.64083866 52.4940453 16.82075822 53.43451039 6.5625 53.3125 C5.46518555 53.30573242 5.46518555 53.30573242 4.34570312 53.29882812 C2.56376581 53.28718148 0.78187137 53.26925191 -1 53.25 C-0.96699341 55.52145346 -0.89759995 57.79240126 -0.8125 60.0625 C-0.76029297 61.95935547 -0.76029297 61.95935547 -0.70703125 63.89453125 C-0.36168183 67.41696605 -0.36168183 67.41696605 2.48828125 69.01171875 C3.31714844 69.42035156 4.14601563 69.82898438 5 70.25 C5.33 71.24 5.66 72.23 6 73.25 C5 74.25 5 74.25 2.77514648 74.36352539 C1.33764038 74.35567017 1.33764038 74.35567017 -0.12890625 74.34765625 C-1.68061523 74.34282227 -1.68061523 74.34282227 -3.26367188 74.33789062 C-4.35228516 74.32951172 -5.44089844 74.32113281 -6.5625 74.3125 C-8.2012207 74.30573242 -8.2012207 74.30573242 -9.87304688 74.29882812 C-12.58208495 74.28699826 -15.29101599 74.27051543 -18 74.25 C-18.33 73.59 -18.66 72.93 -19 72.25 C-17.625 70.75 -17.625 70.75 -16 69.25 C-15.34 69.25 -14.68 69.25 -14 69.25 C-13.90727926 61.49614942 -13.83622492 53.74242894 -13.79275131 45.98816299 C-13.77188487 42.38741714 -13.74358579 38.78705084 -13.69824219 35.18652344 C-13.65474875 31.71112087 -13.63085579 28.23608312 -13.62049103 24.76042938 C-13.60951385 22.79054216 -13.578293 20.82080153 -13.54681396 18.85113525 C-13.54651184 17.65019226 -13.54620972 16.44924927 -13.54589844 15.21191406 C-13.53701599 14.15490295 -13.52813354 13.09789185 -13.51898193 12.0088501 C-14.11691186 8.57945909 -15.47081235 7.53611036 -18 5.25 C-17.75 3 -17.75 3 -17 1.25 C-11.47878008 -0.39778035 -5.70966372 0.02453132 0 0 Z M0 7.25 C-0.22444558 10.08348402 -0.32815916 12.81636449 -0.3359375 15.65234375 C-0.3425943 16.48584854 -0.3492511 17.31935333 -0.35610962 18.17811584 C-0.36624313 19.94253326 -0.37092642 21.70698906 -0.37060547 23.47143555 C-0.3749776 26.1736556 -0.41128482 28.87424116 -0.44921875 31.57617188 C-0.45508696 33.2890569 -0.45905632 35.0019497 -0.4609375 36.71484375 C-0.47530853 37.5242894 -0.48967957 38.33373505 -0.50448608 39.16770935 C-0.51314798 43.64942841 -0.51314798 43.64942841 1.88964844 47.25415039 C6.70772927 49.52774499 11.77662201 48.9932435 16.734375 47.3359375 C22.14107064 44.85653565 25.33163504 42.58672992 28 37.25 C30.22701241 30.56896276 29.90571581 23.31376021 27.0625 16.875 C23.79831683 11.05012142 18.82861434 8.16430717 13 5.25 C11.16962713 5.12854007 9.33435867 5.07456815 7.5 5.0625 C6.5203125 5.04832031 5.540625 5.03414062 4.53125 5.01953125 C1.830082 4.99319966 1.830082 4.99319966 0 7.25 Z " fill="#34302E" transform="translate(640,715.75)"/>
<path d="M0 0 C5.28 0 10.56 0 16 0 C16 1.32 16 2.64 16 4 C15.34 4.66 14.68 5.32 14 6 C13.02539119 13.56664794 14.55655185 21.49670567 15.5 29 C18.94938785 58.71048445 18.94938785 58.71048445 14.8125 65.875 C13.40625 67.59765625 13.40625 67.59765625 12 69 C11.278125 69.763125 10.55625 70.52625 9.8125 71.3125 C0.7920681 76.72475914 -9.64638652 77.2906342 -19.87109375 75.49609375 C-26.31021106 73.78095596 -31.88422914 71.38523338 -35.50390625 65.59375 C-41.31884703 54.32833767 -40.16881589 43.45366212 -39.5 31.125 C-38.29786709 16.44875224 -38.29786709 16.44875224 -40 2 C-39 1 -39 1 -37.14233398 0.88647461 C-35.95619507 0.89432983 -35.95619507 0.89432983 -34.74609375 0.90234375 C-33.46508789 0.90717773 -33.46508789 0.90717773 -32.15820312 0.91210938 C-31.26037109 0.92048828 -30.36253906 0.92886719 -29.4375 0.9375 C-28.53580078 0.94201172 -27.63410156 0.94652344 -26.70507812 0.95117188 C-24.46998686 0.96299775 -22.23502563 0.9794778 -20 1 C-19.67 2.65 -19.34 4.3 -19 6 C-20.98 6.99 -20.98 6.99 -23 8 C-23.37427488 17.9989128 -23.70835486 27.99836242 -24 38 C-24.04737305 39.5785376 -24.04737305 39.5785376 -24.09570312 41.18896484 C-24.1659661 43.79274859 -24.21378643 46.39555172 -24.25 49 C-24.27126953 49.73839111 -24.29253906 50.47678223 -24.31445312 51.23754883 C-24.34520882 55.90527453 -23.52746616 59.06967419 -21 63 C-16.37092579 67.08319282 -10.57683036 67.63062401 -4.62109375 67.3828125 C0.56368157 66.62557259 3.72507034 64.68619729 6.9375 60.4375 C9.864999 50.9661797 7.61410889 39.71539407 6.77319336 29.95410156 C6.56058551 27.47770053 6.35699264 25.00066755 6.15429688 22.5234375 C6.02136272 20.94266373 5.88791805 19.36193278 5.75390625 17.78125 C5.6934462 17.0437854 5.63298615 16.3063208 5.57069397 15.54650879 C5.30562497 12.51956457 4.96514924 9.89544773 4 7 C1.50240018 5.30117552 1.50240018 5.30117552 -1 4 C-0.67 2.68 -0.34 1.36 0 0 Z " fill="#34302E" transform="translate(597,716)"/>
<path d="M0 0 C0.99 0 1.98 0 3 0 C3.64231567 1.64814697 3.64231567 1.64814697 4.29760742 3.32958984 C5.90497802 7.45028024 7.51860965 11.56849583 9.1340332 15.68603516 C9.8290727 17.46011743 10.52246824 19.23484476 11.21411133 21.01025391 C15.93356988 36.89154805 15.93356988 36.89154805 25.14135742 49.24365234 C25.75470947 49.49324707 26.36806152 49.7428418 27 50 C27 50.66 27 51.32 27 52 C21.39 52 15.78 52 10 52 C10.33 51.01 10.66 50.02 11 49 C11.66 48.67 12.32 48.34 13 48 C12.54636829 46.41531323 12.08688548 44.83230076 11.625 43.25 C11.36976563 42.36828125 11.11453125 41.4865625 10.8515625 40.578125 C9.96860208 37.69699893 9.96860208 37.69699893 8 34 C2.06 34 -3.88 34 -10 34 C-10.825 35.5675 -11.65 37.135 -12.5 38.75 C-12.9640625 39.63171875 -13.428125 40.5134375 -13.90625 41.421875 C-15.26036656 44.14696472 -15.26036656 44.14696472 -15 48 C-13.68 48.66 -12.36 49.32 -11 50 C-11 50.66 -11 51.32 -11 52 C-15.95 52 -20.9 52 -26 52 C-25 49 -25 49 -23.20141602 47.34106445 C-20.17009869 44.1174533 -18.61848882 40.53537519 -16.77734375 36.54296875 C-16.39058975 35.72178055 -16.00383575 34.90059235 -15.60536194 34.05451965 C-14.37461885 31.43589916 -13.15607244 28.81180257 -11.9375 26.1875 C-11.1146985 24.43388508 -10.29113847 22.68062585 -9.46679688 20.92773438 C-6.21309893 13.99101428 -2.98116176 7.05898398 0 0 Z M-1 11 C-4.96 19.91 -4.96 19.91 -9 29 C-3.72 29 1.56 29 7 29 C4.69 23.06 2.38 17.12 0 11 C-0.33 11 -0.66 11 -1 11 Z " fill="#322E2D" transform="translate(189,845)"/>
<path d="M0 0 C3.44697308 1.30426008 5.48476631 3.09676555 8.0234375 5.765625 C9.67456204 10.71899861 9.88310888 15.7295612 7.8359375 20.578125 C4.97971648 24.0252883 2.28968066 26.34354395 -1.9765625 27.765625 C-3.47430268 27.85787711 -4.97599224 27.8956269 -6.4765625 27.890625 C-7.25 27.89320313 -8.0234375 27.89578125 -8.8203125 27.8984375 C-10.9765625 27.765625 -10.9765625 27.765625 -13.9765625 26.765625 C-13.6465625 32.705625 -13.3165625 38.645625 -12.9765625 44.765625 C-10.9965625 45.755625 -9.0165625 46.745625 -6.9765625 47.765625 C-6.9765625 48.425625 -6.9765625 49.085625 -6.9765625 49.765625 C-13.5765625 49.765625 -20.1765625 49.765625 -26.9765625 49.765625 C-26.6465625 48.775625 -26.3165625 47.785625 -25.9765625 46.765625 C-23.9140625 46.078125 -23.9140625 46.078125 -21.9765625 45.765625 C-21.85306167 39.98160628 -21.76227059 34.1983529 -21.7019043 28.41333008 C-21.67674336 26.44509516 -21.64261086 24.47695383 -21.59936523 22.5090332 C-21.5387818 19.68156881 -21.51036943 16.85533818 -21.48828125 14.02734375 C-21.46247482 13.14600266 -21.4366684 12.26466156 -21.41007996 11.35661316 C-21.40901822 9.04952048 -21.43520244 7.00880374 -21.9765625 4.765625 C-24.3702484 2.74643789 -24.3702484 2.74643789 -26.9765625 1.765625 C-26.9765625 1.105625 -26.9765625 0.445625 -26.9765625 -0.234375 C-20.31877268 -3.56326991 -7.06592914 -1.68810594 0 0 Z M-13.9765625 2.765625 C-13.9765625 10.025625 -13.9765625 17.285625 -13.9765625 24.765625 C-5.55776869 25.07823676 -5.55776869 25.07823676 1.0234375 21.765625 C3.52648128 18.01105933 3.47623824 16.21816566 3.0234375 11.765625 C0.58867167 6.89609334 -1.83999849 4.57852995 -6.9765625 2.765625 C-9.2865625 2.765625 -11.5965625 2.765625 -13.9765625 2.765625 Z " fill="#332F2D" transform="translate(334.9765625,847.234375)"/>
<path d="M0 0 C0.66 0.33 1.32 0.66 2 1 C2 17.17 2 33.34 2 50 C3.32 50.33 4.64 50.66 6 51 C6 51.66 6 52.32 6 53 C2.7 53.66 -0.6 54.32 -4 55 C-4.33 54.01 -4.66 53.02 -5 52 C-5.639375 52.495 -6.27875 52.99 -6.9375 53.5 C-11.05530773 55.51688542 -14.49302735 55.85695959 -19 55 C-22.85224286 52.94329407 -25.38718899 50.04287604 -27 46 C-28.14705872 38.37867718 -27.22680276 32.97937956 -22.703125 26.7421875 C-20.14160388 24.12191589 -18.15016037 23.1057001 -14.4921875 22.76953125 C-13.62851562 22.78371094 -12.76484375 22.79789063 -11.875 22.8125 C-11.00617188 22.81894531 -10.13734375 22.82539062 -9.2421875 22.83203125 C-7 23 -7 23 -5 24 C-5 18.39 -5 12.78 -5 7 C-7.475 6.505 -7.475 6.505 -10 6 C-7.31100548 2.67830089 -3.94687492 1.43522725 0 0 Z M-19 28 C-21.8924618 31.49090217 -22.4814065 34.48089775 -22.28515625 39.01171875 C-21.65445494 43.40934841 -19.70734405 46.23371062 -16.75 49.4375 C-14.00185254 51.29846402 -14.00185254 51.29846402 -10.375 51 C-6.54557096 49.86535436 -5.87644269 49.41423743 -4 46 C-3.44861337 42.44068877 -3.44861337 42.44068877 -3.5 38.5625 C-3.4690625 37.26441406 -3.438125 35.96632813 -3.40625 34.62890625 C-4.13490483 30.17548299 -5.51962719 28.77083252 -9 26 C-13.29086971 24.28365211 -15.44114656 25.19037887 -19 28 Z " fill="#332F2D" transform="translate(281,843)"/>
<path d="M0 0 C0.33 16.17 0.66 32.34 1 49 C2.32 49.66 3.64 50.32 5 51 C5 51.66 5 52.32 5 53 C1.12315913 54.19287411 -1.91621923 55 -6 55 C-6.33 54.01 -6.66 53.02 -7 52 C-7.639375 52.495 -8.27875 52.99 -8.9375 53.5 C-13.05599225 55.51722069 -16.49029695 55.72155249 -21 55 C-25.76379786 52.41097942 -27.38885468 49.08782732 -29 44 C-29.80892962 38.37073636 -28.8591742 33.98049699 -26 29 C-23.29194312 25.59236176 -20.81826163 23.28694872 -16.42578125 22.59375 C-12.64812066 22.54963134 -9.59624951 22.80125016 -6 24 C-6.05985162 21.37251369 -6.14676224 18.75083005 -6.25 16.125 C-6.26417969 15.37863281 -6.27835938 14.63226562 -6.29296875 13.86328125 C-6.35986341 11.42861619 -6.35986341 11.42861619 -7 8 C-8.90628782 6.39662601 -8.90628782 6.39662601 -11 6 C-11 5.34 -11 4.68 -11 4 C-9.5437455 3.32880451 -8.08492133 2.66318193 -6.625 2 C-5.81289062 1.62875 -5.00078125 1.2575 -4.1640625 0.875 C-2 0 -2 0 0 0 Z M-21 28 C-24.09992882 32.33990035 -24.36909966 35.71805871 -23.578125 40.81640625 C-22.48988857 44.92670467 -20.52217879 47.91974408 -17.0625 50.375 C-14.47077902 51.16036999 -12.69398994 51.40409849 -10 51 C-7.64056696 49.34014103 -6.22108649 48.02464565 -5.59912109 45.14208984 C-5.42445568 42.91471939 -5.40526428 40.73374596 -5.4375 38.5 C-5.41365234 37.74074219 -5.38980469 36.98148438 -5.36523438 36.19921875 C-5.37597405 32.1109817 -5.44866842 30.57305894 -8.37890625 27.52734375 C-13.42261278 24.58831356 -16.32630902 24.1872521 -21 28 Z " fill="#322E2C" transform="translate(246,843)"/>
<path d="M0 0 C0.99 0 1.98 0 3 0 C2.25 6.625 2.25 6.625 0 10 C-0.12375 11.11375 -0.2475 12.2275 -0.375 13.375 C-1.08758957 17.5080195 -1.97332391 19.13692802 -5 22 C-9.71731955 24.25144797 -13.8846995 24.17638967 -19 24 C-19 25.32 -19 26.64 -19 28 C-18.04738281 28.04898438 -17.09476562 28.09796875 -16.11328125 28.1484375 C-14.85902344 28.22320313 -13.60476563 28.29796875 -12.3125 28.375 C-11.07113281 28.44460938 -9.82976562 28.51421875 -8.55078125 28.5859375 C-5.26750803 28.96880544 -2.90477279 29.45185187 0 31 C1.64428004 34.21706964 2.19858829 36.07325466 1.4375 39.625 C-0.59638459 42.98533105 -3.05770557 45.37977153 -6.859375 46.59375 C-13.33407799 47.82252575 -19.40811388 47.77452313 -25 44 C-27 41 -27 41 -26.75 38.0625 C-26 35 -26 35 -24.9375 33 C-23.78778306 30.91540797 -23.78778306 30.91540797 -24 28 C-24 25 -24 25 -22.8125 22.9375 C-22.544375 22.298125 -22.27625 21.65875 -22 21 C-22.474375 20.278125 -22.94875 19.55625 -23.4375 18.8125 C-25.41256954 15.25737482 -25.24042675 13.10284502 -24.6484375 9.15625 C-23.63472641 5.78535529 -21.74815964 4.09383591 -19 2 C-12.98900126 -0.00366625 -7.82758708 1.09711442 -2 3 C-1.34 2.01 -0.68 1.02 0 0 Z M-17.875 5.5 C-19.46359813 9.03021807 -19.79369486 12.24663928 -19 16 C-16.99820005 19.16984261 -16.99820005 19.16984261 -14 21 C-10.84559376 21.07510491 -9.56798729 20.45438983 -7.125 18.5 C-5.41321478 14.69603284 -5.84486344 10.96986806 -7 7 C-9.01949511 4.41504626 -9.65380845 4.05048627 -13 3.5625 C-16.0014421 3.74209948 -16.0014421 3.74209948 -17.875 5.5 Z M-22 36 C-22.50014953 38.45741537 -22.50014953 38.45741537 -22 41 C-20.20124004 43.26800169 -18.75677264 43.89693208 -15.90625 44.28515625 C-11.21998531 44.4647964 -7.62299312 44.28333752 -4 41 C-3.11341534 38.40877257 -3.11341534 38.40877257 -3 36 C-6.01180859 34.4940957 -9.19041868 34.54448 -12.5 34.3125 C-13.53447266 34.22258789 -13.53447266 34.22258789 -14.58984375 34.13085938 C-18.74676106 33.66303067 -18.74676106 33.66303067 -22 36 Z " fill="#322E2C" transform="translate(498,864)"/>
<path d="M0 0 C0.01981934 0.7113208 0.03963867 1.4226416 0.06005859 2.15551758 C0.15524867 5.37488816 0.26495229 8.5936045 0.375 11.8125 C0.4059375 12.93205078 0.436875 14.05160156 0.46875 15.20507812 C0.50742187 16.27822266 0.54609375 17.35136719 0.5859375 18.45703125 C0.6173584 19.44678955 0.6487793 20.43654785 0.68115234 21.45629883 C0.83773433 24.24075094 0.83773433 24.24075094 3 27 C7.05445642 27.43132515 8.54970958 27.30019361 12 25 C12.50776044 22.78067723 12.50776044 22.78067723 12.51171875 20.2109375 C12.54716797 19.26992188 12.58261719 18.32890625 12.61914062 17.359375 C12.64169922 16.37453125 12.66425781 15.3896875 12.6875 14.375 C12.72166016 13.38242187 12.75582031 12.38984375 12.79101562 11.3671875 C12.87365657 8.91157094 12.94275127 6.45631859 13 4 C12.01 4 11.02 4 10 4 C10 3.01 10 2.02 10 1 C11.47831221 0.80587819 12.95769316 0.61987869 14.4375 0.4375 C15.26121094 0.33308594 16.08492187 0.22867188 16.93359375 0.12109375 C17.95646484 0.06115234 17.95646484 0.06115234 19 0 C20 1 20 1 20.11352539 3.59204102 C20.10828857 4.71795654 20.10305176 5.84387207 20.09765625 7.00390625 C20.09443359 8.21884766 20.09121094 9.43378906 20.08789062 10.68554688 C20.07951172 11.96494141 20.07113281 13.24433594 20.0625 14.5625 C20.05798828 15.84576172 20.05347656 17.12902344 20.04882812 18.45117188 C20.03699545 21.63416022 20.02051068 24.81705762 20 28 C21.32 28 22.64 28 24 28 C23.505 29.485 23.505 29.485 23 31 C21.54176788 31.0270043 20.08339325 31.04639787 18.625 31.0625 C17.81289063 31.07410156 17.00078125 31.08570313 16.1640625 31.09765625 C14 31 14 31 12 30 C11.319375 30.33 10.63875 30.66 9.9375 31 C5.8886324 32.37833791 2.11707749 32.14877256 -2 31 C-4.44419559 29.05245602 -4.98451948 28.04644155 -6 25 C-6.11251012 23.46996693 -6.17765701 21.93614691 -6.2109375 20.40234375 C-6.23929688 19.51869141 -6.26765625 18.63503906 -6.296875 17.72460938 C-6.34906208 15.86283527 -6.39330216 14.00082182 -6.4296875 12.13867188 C-6.460625 11.25630859 -6.4915625 10.37394531 -6.5234375 9.46484375 C-6.54325684 8.656521 -6.56307617 7.84819824 -6.58349609 7.01538086 C-6.83622988 4.60176971 -6.83622988 4.60176971 -10 3 C-10 2.34 -10 1.68 -10 1 C-3.375 0 -3.375 0 0 0 Z " fill="#312E2C" transform="translate(707,866)"/>
<path d="M0 0 C3.72914495 3.28519912 5.2922213 5.89800565 5.9765625 10.86328125 C6.28509826 16.73358007 5.61601184 20.9361385 2.09765625 25.71875 C-1.51873192 29.63250696 -5.16636463 30.49269323 -10.3125 30.75 C-15.16257746 30.56766626 -18.79298605 29.69498533 -22.375 26.3125 C-26.17090444 21.22125725 -27.078202 16.54086057 -26.375 10.3125 C-24.54804796 4.93911166 -21.05106955 1.39971151 -16.375 -1.6875 C-10.80301071 -3.63043815 -5.16018552 -2.58009276 0 0 Z M-18.375 4.3125 C-20.63303303 8.29093915 -20.76443376 11.79506839 -20.375 16.3125 C-18.82513823 20.88459221 -17.25280655 24.34711852 -13.375 27.3125 C-10.17113257 28.5447567 -8.92159259 28.54675397 -5.75 27.1875 C-2.356056 24.50807053 -0.67287236 22.41940204 -0.0546875 18.046875 C0.22097078 12.05590174 -0.78818675 7.20688062 -4.375 2.3125 C-9.87414931 -1.35359954 -13.87746282 -0.30996877 -18.375 4.3125 Z " fill="#312D2B" transform="translate(687.375,867.6875)"/>
<path d="M0 0 C3.72914495 3.28519912 5.2922213 5.89800565 5.9765625 10.86328125 C6.28509826 16.73358007 5.61601184 20.9361385 2.09765625 25.71875 C-1.51873192 29.63250696 -5.16636463 30.49269323 -10.3125 30.75 C-15.16257746 30.56766626 -18.79298605 29.69498533 -22.375 26.3125 C-26.17090444 21.22125725 -27.078202 16.54086057 -26.375 10.3125 C-24.54804796 4.93911166 -21.05106955 1.39971151 -16.375 -1.6875 C-10.80301071 -3.63043815 -5.16018552 -2.58009276 0 0 Z M-18.375 4.3125 C-20.63303303 8.29093915 -20.76443376 11.79506839 -20.375 16.3125 C-18.82513823 20.88459221 -17.25280655 24.34711852 -13.375 27.3125 C-10.17113257 28.5447567 -8.92159259 28.54675397 -5.75 27.1875 C-2.356056 24.50807053 -0.67287236 22.41940204 -0.0546875 18.046875 C0.22097078 12.05590174 -0.78818675 7.20688062 -4.375 2.3125 C-9.87414931 -1.35359954 -13.87746282 -0.30996877 -18.375 4.3125 Z " fill="#312D2B" transform="translate(603.375,867.6875)"/>
<path d="M0 0 C3.39488422 2.05107588 4.80323081 3.70484621 7 7 C7 8.98 7 10.96 7 13 C0.4 13.33 -6.2 13.66 -13 14 C-10.88040118 22.22204717 -10.88040118 22.22204717 -8.25 25.0625 C-5.02648644 26.40563065 -2.45566364 26.3085414 1 26 C3.20067421 25.06716704 3.20067421 25.06716704 5 24 C5.99 24 6.98 24 8 24 C6.60415208 27.37329915 5.07634389 29.04232662 2 31 C-2.07094774 32.35698258 -5.74353744 32.52387231 -10 32 C-14.41547482 29.79226259 -17.0728317 27.56434598 -19 23 C-20.5386524 16.77382518 -20.21608074 11.61285573 -17 6 C-11.74587415 -0.02302231 -7.80586426 -0.90965977 0 0 Z M-12 5 C-12.33 6.65 -12.66 8.3 -13 10 C-8.71 10 -4.42 10 0 10 C0.33 9.34 0.66 8.68 1 8 C-1.4840222 4.46734159 -1.4840222 4.46734159 -4.9375 2 C-8.06290477 2 -9.60044242 3.05441277 -12 5 Z " fill="#322E2C" transform="translate(392,866)"/>
<path d="M0 0 C1.04449911 3.13349732 0.93423645 3.98968256 0 7 C-0.99 7 -1.98 7 -3 7 C-3 6.34 -3 5.68 -3 5 C-6.46485707 5.62032476 -6.46485707 5.62032476 -10 7 C-11.8909883 10.53316234 -12.3386141 13.85082832 -12.625 17.8125 C-12.69976563 18.78832031 -12.77453125 19.76414062 -12.8515625 20.76953125 C-12.90054688 21.50558594 -12.94953125 22.24164062 -13 23 C-10.36 22.34 -7.72 21.68 -5 21 C-5.33 22.65 -5.66 24.3 -6 26 C-8.31 26 -10.62 26 -13 26 C-12.67 33.59 -12.34 41.18 -12 49 C-10.68 49.66 -9.36 50.32 -8 51 C-8 51.66 -8 52.32 -8 53 C-12.95 53 -17.9 53 -23 53 C-22.67 52.01 -22.34 51.02 -22 50 C-21.34 50 -20.68 50 -20 50 C-19.67 42.08 -19.34 34.16 -19 26 C-20.65 26 -22.3 26 -24 26 C-24 25.01 -24 24.02 -24 23 C-22.35 23 -20.7 23 -19 23 C-18.98582031 22.3709375 -18.97164062 21.741875 -18.95703125 21.09375 C-18.51513539 13.16351072 -16.02869874 8.47409561 -10.875 2.5625 C-7.4423766 -0.2980195 -4.28691018 -0.09526467 0 0 Z " fill="#332F2E" transform="translate(837,844)"/>
<path d="M0 0 C4.21054851 1.70213663 6.13424699 3.87570387 8 8 C8 9.65 8 11.3 8 13 C1.07 13 -5.86 13 -13 13 C-12.401875 14.77375 -11.80375 16.5475 -11.1875 18.375 C-10.85105469 19.37273438 -10.51460937 20.37046875 -10.16796875 21.3984375 C-9.1493425 24.2845709 -9.1493425 24.2845709 -6 26 C-0.75198038 26.34413243 3.05601526 25.9775939 8 24 C7.9375 25.75 7.9375 25.75 7 28 C2.37759262 31.46680554 -1.1531339 32.61433529 -6.92578125 32.3203125 C-11.23383186 31.65503915 -13.40465039 29.66149957 -16.25 26.5 C-19.46691954 21.90440066 -19.63279636 17.43150212 -19 12 C-15.8455071 2.2279296 -10.12435696 -1.36770555 0 0 Z M-12 6 C-12.33 7.32 -12.66 8.64 -13 10 C-8.38 10 -3.76 10 1 10 C0.58267722 5.01067667 0.58267722 5.01067667 -2.4375 3.1875 C-7.02034118 1.06374433 -8.44180638 2.71551358 -12 6 Z " fill="#332F2D" transform="translate(853,866)"/>
<path d="M0 0 C4.29 0 8.58 0 13 0 C13 0.99 13 1.98 13 3 C12.01 3 11.02 3 10 3 C11.87724961 9.37732315 13.85671642 15.70695459 16 22 C16.66 22 17.32 22 18 22 C19.11817573 17.40788026 20.12129149 12.80217757 20.8125 8.125 C20.97685547 7.04605469 20.97685547 7.04605469 21.14453125 5.9453125 C21.18163572 3.86530641 21.18163572 3.86530641 19.51171875 2.2421875 C19.01285156 1.83226562 18.51398437 1.42234375 18 1 C21.9813783 -0.3271261 25.85045227 -0.06915913 30 0 C30 3 30 3 28.59388733 4.46264648 C27.8049131 5.22363647 27.8049131 5.22363647 27 6 C25.88015398 8.68195204 24.87800011 11.32006172 23.93359375 14.0625 C23.65403336 14.85019775 23.37447296 15.63789551 23.08644104 16.44946289 C22.19535587 18.96353436 21.31573549 21.4814139 20.4375 24 C19.55417905 26.51800551 18.66839623 29.03507858 17.77784729 31.55053711 C17.22456114 33.11484623 16.67567951 34.68072176 16.13169861 36.24829102 C14.99778964 39.46678224 13.90312208 42.14531687 12 45 C9.375 45.1875 9.375 45.1875 7 45 C7.4557214 42.03781087 8.24428152 40.66688883 10.0625 38.1875 C12.30190846 34.50331189 12.69723329 32.15050698 12 28 C10.64814164 23.94589714 8.94085979 20.0819584 7.1875 16.1875 C6.73568359 15.13884766 6.28386719 14.09019531 5.81835938 13.00976562 C3.46357978 7.17307928 3.46357978 7.17307928 -1 3 C-0.67 2.01 -0.34 1.02 0 0 Z " fill="#322E2C" transform="translate(629,866)"/>
<path d="M0 0 C2.97836052 1.52681297 5.18969862 3.17105808 7 6 C7.33 8.31 7.66 10.62 8 13 C1.07 13 -5.86 13 -13 13 C-11.1525843 22.75415792 -11.1525843 22.75415792 -6 26 C-1.79361025 26.75085268 1.3946611 26.40355927 5 24 C5.99 24 6.98 24 8 24 C7.9375 25.75 7.9375 25.75 7 28 C2.37759262 31.46680554 -1.1531339 32.61433529 -6.92578125 32.3203125 C-11.26362517 31.6504383 -13.42347499 29.65659793 -16.25 26.4375 C-19.80071748 21.49185779 -19.45515081 16.95067546 -19 11 C-17.58964423 6.7689327 -15.45789556 3.6679389 -11.8671875 0.92578125 C-7.98875133 -0.99720907 -4.16265189 -0.91919758 0 0 Z M-11 4 C-11.66 5.98 -12.32 7.96 -13 10 C-8.38 10 -3.76 10 1 10 C0.58267722 5.01067667 0.58267722 5.01067667 -2.4375 3.1875 C-6.02612063 1.52448068 -7.75650307 1.77009586 -11 4 Z " fill="#332F2D" transform="translate(523,866)"/>
<path d="M0 0 C3.53486549 2.40370853 4.7366804 3.7623979 5.625 7.9375 C4.80333819 11.96364288 3.1135846 14.43053698 0 17 C-4.87653108 19.92591865 -9.50438312 20.47364308 -15.078125 19.5703125 C-17 19 -17 19 -19.0625 17.3125 C-20.35121011 14.13368172 -20.60297525 12.41685973 -20 9 C-14.99303132 1.23838836 -9.17491732 -1.43774956 0 0 Z " fill="#34302E" transform="translate(649,560)"/>
<path d="M0 0 C0.33 16.5 0.66 33 1 50 C2.65 50.66 4.3 51.32 6 52 C6 52.66 6 53.32 6 54 C0.72 54 -4.56 54 -10 54 C-9.67 53.01 -9.34 52.02 -9 51 C-8.34 51 -7.68 51 -7 51 C-7 36.81 -7 22.62 -7 8 C-8.32 7.34 -9.64 6.68 -11 6 C-11 5.34 -11 4.68 -11 4 C-9.5437455 3.32880451 -8.08492133 2.66318193 -6.625 2 C-5.81289063 1.62875 -5.00078125 1.2575 -4.1640625 0.875 C-2 0 -2 0 0 0 Z " fill="#34302E" transform="translate(787,843)"/>
<path d="M0 0 C0.66 0.33 1.32 0.66 2 1 C2 3.64 2 6.28 2 9 C1.34 9 0.68 9 0 9 C-0.226875 8.38125 -0.45375 7.7625 -0.6875 7.125 C-2.40962687 4.33679458 -3.87800152 3.83760935 -7 3 C-7.99 3.33 -8.98 3.66 -10 4 C-9.92221278 6.40918545 -9.92221278 6.40918545 -9 9 C-6.55487225 10.76382967 -6.55487225 10.76382967 -3.5625 12.0625 C1.66967841 14.52510288 1.66967841 14.52510288 3.34765625 16.9375 C4.44769972 20.41548175 4.14279714 23.60522028 3 27 C-0.07278779 30.51175747 -1.86532268 31.83790324 -6.5 32.5 C-10.22171803 31.968326 -12.77093367 30.89018517 -16 29 C-16 26.03 -16 23.06 -16 20 C-15.01 20.33 -14.02 20.66 -13 21 C-12.566875 21.99 -12.13375 22.98 -11.6875 24 C-10.28209726 27.28991311 -10.28209726 27.28991311 -6.9375 28 C-5.968125 28 -4.99875 28 -4 28 C-3.34 27.34 -2.68 26.68 -2 26 C-1.941002 23.49822465 -1.941002 23.49822465 -3 21 C-5.20737722 19.17369652 -5.20737722 19.17369652 -7.9375 17.8125 C-12.88607595 15.11392405 -12.88607595 15.11392405 -15 13 C-15.56120742 9.9399427 -15.50644491 7.06589767 -15 4 C-11.24715031 -1.12889457 -5.83195823 -0.62964505 0 0 Z " fill="#332E2C" transform="translate(421,866)"/>
<path d="M0 0 C0.33 0.99 0.66 1.98 1 3 C1.99 2.34 2.98 1.68 4 1 C7.0625 0.75 7.0625 0.75 10 1 C10.66 1.66 11.32 2.32 12 3 C11.625 5.125 11.625 5.125 11 7 C8.63591793 7.75988352 7.30986733 8.0820237 4.875 7.4375 C3.946875 7.2209375 3.946875 7.2209375 3 7 C0.80697743 8.77601843 0.80697743 8.77601843 0.77294922 11.06298828 C0.78342285 11.89040527 0.79389648 12.71782227 0.8046875 13.5703125 C0.81113281 14.46621094 0.81757813 15.36210938 0.82421875 16.28515625 C0.84097656 17.22230469 0.85773438 18.15945313 0.875 19.125 C0.88853516 20.54232422 0.88853516 20.54232422 0.90234375 21.98828125 C0.92595478 24.32577292 0.95888484 26.66276123 1 29 C2.65 29.33 4.3 29.66 6 30 C6 30.66 6 31.32 6 32 C0.72 32 -4.56 32 -10 32 C-9.67 31.01 -9.34 30.02 -9 29 C-8.34 29 -7.68 29 -7 29 C-7 21.74 -7 14.48 -7 7 C-8.32 6.67 -9.64 6.34 -11 6 C-11 5.01 -11 4.02 -11 3 C-9.73160474 2.49384702 -8.46016898 1.99530901 -7.1875 1.5 C-6.12595703 1.08234375 -6.12595703 1.08234375 -5.04296875 0.65625 C-3 0 -3 0 0 0 Z " fill="#332F2D" transform="translate(358,865)"/>
<path d="M0 0 C0.33 0.99 0.66 1.98 1 3 C1.66 2.34 2.32 1.68 3 1 C6.5625 0.8125 6.5625 0.8125 10 1 C11 2 11 2 11.0625 4.5625 C11.041875 5.366875 11.02125 6.17125 11 7 C7.04369799 8.36948916 5.66750453 7.77791742 1 7 C1 13.93 1 20.86 1 28 C3.475 28.99 3.475 28.99 6 30 C6 30.66 6 31.32 6 32 C0.72 32 -4.56 32 -10 32 C-9 30 -8 28 -7 26 C-6.91657841 24.55151418 -6.89267139 23.09929131 -6.90234375 21.6484375 C-6.90556641 20.79765625 -6.90878906 19.946875 -6.91210938 19.0703125 C-6.92048828 18.18085937 -6.92886719 17.29140625 -6.9375 16.375 C-6.94426758 15.02921875 -6.94426758 15.02921875 -6.95117188 13.65625 C-6.96297409 11.43743352 -6.97943845 9.21874982 -7 7 C-8.32 6.67 -9.64 6.34 -11 6 C-11 5.01 -11 4.02 -11 3 C-4.5 0 -4.5 0 0 0 Z " fill="#332F2D" transform="translate(745,865)"/>
<path d="M0 0 C0.66 0.33 1.32 0.66 2 1 C2 3.31 2 5.62 2 8 C5.3 7.67 8.6 7.34 12 7 C11.67 8.32 11.34 9.64 11 11 C8 12 8 12 2 11 C2.33 18.59 2.66 26.18 3 34 C6.3 34 9.6 34 13 34 C12.34 35.32 11.68 36.64 11 38 C7.37296974 39.20901009 3.75982637 39.78660475 0 39 C-2.65212327 36.88858594 -3.8749839 35.73154584 -4.45410156 32.34277344 C-4.4331543 31.35825195 -4.41220703 30.37373047 -4.390625 29.359375 C-4.37773438 28.28945313 -4.36484375 27.21953125 -4.3515625 26.1171875 C-4.31804688 25.00601563 -4.28453125 23.89484375 -4.25 22.75 C-4.23195313 21.62335937 -4.21390625 20.49671875 -4.1953125 19.3359375 C-4.14820222 16.55643104 -4.08243361 13.7786466 -4 11 C-5.32 11 -6.64 11 -8 11 C-6.63629701 8.00779732 -5.05091917 5.70973471 -2.875 3.25 C-2.33617187 2.63640625 -1.79734375 2.0228125 -1.2421875 1.390625 C-0.62730469 0.70226562 -0.62730469 0.70226562 0 0 Z " fill="#2F2B2A" transform="translate(562,859)"/>
<path d="M0 0 C0.33 0 0.66 0 1 0 C1 2.64 1 5.28 1 8 C6.445 7.505 6.445 7.505 12 7 C11.67 8.32 11.34 9.64 11 11 C7.30581799 12.231394 4.7943739 11.64432764 1 11 C1.13888506 14.27116732 1.28730492 17.541834 1.4375 20.8125 C1.47681641 21.74126953 1.51613281 22.67003906 1.55664062 23.62695312 C1.61948242 24.9659668 1.61948242 24.9659668 1.68359375 26.33203125 C1.72025146 27.15421143 1.75690918 27.9763916 1.79467773 28.82348633 C1.93427772 31.17905178 1.93427772 31.17905178 3 34 C6.3 34 9.6 34 13 34 C12.34 35.32 11.68 36.64 11 38 C6.42230859 39.52589714 1.96240772 39.90572664 -2.4375 37.875 C-6.2604873 33.28741524 -5.11814823 25.80968072 -5.0625 20.125 C-5.05798828 19.24585938 -5.05347656 18.36671875 -5.04882812 17.4609375 C-5.03712337 15.30726197 -5.01919069 13.15362183 -5 11 C-5.99 11 -6.98 11 -8 11 C-6.64199529 8.03469503 -5.07571737 5.70868729 -2.9375 3.25 C-2.41027344 2.63640625 -1.88304687 2.0228125 -1.33984375 1.390625 C-0.89769531 0.93171875 -0.45554687 0.4728125 0 0 Z " fill="#332F2D" transform="translate(438,859)"/>
<path d="M0 0 C0.33 9.24 0.66 18.48 1 28 C3.475 28.99 3.475 28.99 6 30 C6 30.66 6 31.32 6 32 C0.72 32 -4.56 32 -10 32 C-9 30 -8 28 -7 26 C-6.91627341 24.47851674 -6.89269973 22.95344222 -6.90234375 21.4296875 C-6.90556641 20.53378906 -6.90878906 19.63789062 -6.91210938 18.71484375 C-6.92467773 17.30912109 -6.92467773 17.30912109 -6.9375 15.875 C-6.94201172 14.93011719 -6.94652344 13.98523438 -6.95117188 13.01171875 C-6.96297643 10.67441613 -6.97944241 8.33723939 -7 6 C-8.32 6 -9.64 6 -11 6 C-11 5.01 -11 4.02 -11 3 C-4.5 0 -4.5 0 0 0 Z " fill="#332F2D" transform="translate(464,865)"/>
<path d="M0 0 C0.33 9.24 0.66 18.48 1 28 C3.475 28.99 3.475 28.99 6 30 C6 30.66 6 31.32 6 32 C0.72 32 -4.56 32 -10 32 C-9 30 -8 28 -7 26 C-6.91627341 24.47851674 -6.89269973 22.95344222 -6.90234375 21.4296875 C-6.90556641 20.53378906 -6.90878906 19.63789062 -6.91210938 18.71484375 C-6.92467773 17.30912109 -6.92467773 17.30912109 -6.9375 15.875 C-6.94201172 14.93011719 -6.94652344 13.98523438 -6.95117188 13.01171875 C-6.96297643 10.67441613 -6.97944241 8.33723939 -7 6 C-8.32 6 -9.64 6 -11 6 C-11 5.01 -11 4.02 -11 3 C-4.5 0 -4.5 0 0 0 Z " fill="#34302E" transform="translate(806,865)"/>
<path d="M0 0 C1.32 0 2.64 0 4 0 C4.495 1.485 4.495 1.485 5 3 C3.41796875 5.59375 3.41796875 5.59375 1.1875 8.5 C0.45917969 9.4590625 -0.26914062 10.418125 -1.01953125 11.40625 C-1.67308594 12.2621875 -2.32664062 13.118125 -3 14 C-3.99 15.485 -3.99 15.485 -5 17 C-5.66 17 -6.32 17 -7 17 C-7 14.36 -7 11.72 -7 9 C-14.071046 14.92438989 -15.23289076 23.21817627 -16.796875 31.9609375 C-17.11920248 33.6680801 -17.44213972 35.37510766 -17.765625 37.08203125 C-18.25704638 39.7105529 -18.7436217 42.33967355 -19.21875 44.97119141 C-21.56855697 57.90247287 -25.08891486 69.8055847 -30 82 C-30.99 82 -31.98 82 -33 82 C-31.61696962 77.31306372 -30.23034311 72.64088122 -28.640625 68.01953125 C-25.48970884 58.70638687 -23.19087264 49.49134061 -21.4375 39.8125 C-16.34296485 11.79561216 -16.34296485 11.79561216 -10 7 C-8.68 7 -7.36 7 -6 7 C-5.34 8.32 -4.68 9.64 -4 11 C-3.13341385 9.73760288 -2.28207941 8.46472499 -1.4375 7.1875 C-0.72400391 6.12595703 -0.72400391 6.12595703 0.00390625 5.04296875 C1.35077091 2.88563573 1.35077091 2.88563573 0 0 Z " fill="#473E31" transform="translate(455,232)"/>
<path d="M0 0 C0.33 0 0.66 0 1 0 C1.02698422 2.43757413 1.04683099 4.87484915 1.0625 7.3125 C1.07087891 8.00279297 1.07925781 8.69308594 1.08789062 9.40429688 C1.10307906 12.5483025 1.00193327 14.99420019 0 18 C-2.66130399 16.98244259 -3.80516056 16.33315139 -5.265625 13.8359375 C-5.59046875 13.02382812 -5.9153125 12.21171875 -6.25 11.375 C-6.58515625 10.55773437 -6.9203125 9.74046875 -7.265625 8.8984375 C-7.50796875 8.27195313 -7.7503125 7.64546875 -8 7 C-8.33 7 -8.66 7 -9 7 C-9.02505615 7.57967529 -9.0501123 8.15935059 -9.07592773 8.7565918 C-9.19246234 11.40042107 -9.31492682 14.04394409 -9.4375 16.6875 C-9.49647461 18.05551758 -9.49647461 18.05551758 -9.55664062 19.45117188 C-9.59853516 20.33740234 -9.64042969 21.22363281 -9.68359375 22.13671875 C-9.72025146 22.94842529 -9.75690918 23.76013184 -9.79467773 24.59643555 C-10.01051418 27.12308212 -10.49773056 29.51612066 -11 32 C-11.13621185 33.47274006 -11.24201721 34.94862749 -11.31640625 36.42578125 C-11.35830078 37.22177734 -11.40019531 38.01777344 -11.44335938 38.83789062 C-11.50233398 40.06282227 -11.50233398 40.06282227 -11.5625 41.3125 C-11.60568359 42.14845703 -11.64886719 42.98441406 -11.69335938 43.84570312 C-11.79885307 45.89696935 -11.89987315 47.9484648 -12 50 C-12.33 50 -12.66 50 -13 50 C-13.19892707 46.81310715 -13.38204784 43.62548809 -13.5625 40.4375 C-13.61857422 39.54224609 -13.67464844 38.64699219 -13.73242188 37.72460938 C-14.01211372 32.63421775 -13.83121904 28.05125418 -13 23 C-12.71444653 19.32656787 -12.56439236 15.64516781 -12.39453125 11.96484375 C-12.22990172 8.76876008 -12.01747798 6.05243394 -11 3 C-7.86493389 3.33589994 -6.974751 4.02665172 -4.75 6.375 C-3 9 -3 9 -3 12 C-2.34 11.67 -1.68 11.34 -1 11 C-0.5316735 8.41394668 -0.5316735 8.41394668 -0.375 5.4375 C-0.30023438 4.42558594 -0.22546875 3.41367188 -0.1484375 2.37109375 C-0.09945313 1.58863281 -0.05046875 0.80617187 0 0 Z " fill="#433B30" transform="translate(390,166)"/>
<path d="M0 0 C1.47193312 2.94386623 0.84936173 5.37390036 0.5625 8.625 C0.46066406 9.81351562 0.35882813 11.00203125 0.25390625 12.2265625 C0.17011719 13.14179688 0.08632813 14.05703125 0 15 C-0.33 14.34 -0.66 13.68 -1 13 C-2.98 13.99 -2.98 13.99 -5 15 C-6.62251286 12.51850975 -7 11.06165333 -7 8.0625 C-5.61945334 3.83457585 -3.56652508 2.58003942 0 0 Z " fill="#3D372F" transform="translate(390,351)"/>
<path d="M0 0 C3 2 3 2 6 4 C9.73225344 4.79682803 9.73225344 4.79682803 13 5 C11.68 5.33 10.36 5.66 9 6 C9 7.65 9 9.3 9 11 C8.67 9.68 8.34 8.36 8 7 C5.36 7 2.72 7 0 7 C-0.66 5.02 -1.32 3.04 -2 1 C-6.60742865 2.21044132 -6.60742865 2.21044132 -11 4 C-8.40674414 -1.7422094 -5.99589871 -1.29911139 0 0 Z " fill="#9F803C" transform="translate(416,456)"/>
<path d="M0 0 C0.66 1.32 1.32 2.64 2 4 C0.27318563 4.50806447 -1.45657979 5.00610467 -3.1875 5.5 C-4.63189453 5.91765625 -4.63189453 5.91765625 -6.10546875 6.34375 C-8.85345876 6.96677608 -11.19598416 7.12302812 -14 7 C-13.67 6.01 -13.34 5.02 -13 4 C-10.56640625 2.83203125 -10.56640625 2.83203125 -7.5625 1.8125 C-6.57378906 1.46832031 -5.58507812 1.12414062 -4.56640625 0.76953125 C-2 0 -2 0 0 0 Z " fill="#473F31" transform="translate(614,182)"/>
<path d="M0 0 C3.69230769 0.69230769 3.69230769 0.69230769 5 2 C5.04063832 3.66617115 5.042721 5.33388095 5 7 C2.625 7.625 2.625 7.625 0 8 C-0.66 7.34 -1.32 6.68 -2 6 C-1.44444444 1.44444444 -1.44444444 1.44444444 0 0 Z " fill="#2F2C2A" transform="translate(801,851)"/>
<path d="M0 0 C3.69230769 0.69230769 3.69230769 0.69230769 5 2 C5.04063832 3.66617115 5.042721 5.33388095 5 7 C2.625 7.625 2.625 7.625 0 8 C-0.66 7.34 -1.32 6.68 -2 6 C-1.44444444 1.44444444 -1.44444444 1.44444444 0 0 Z " fill="#302B29" transform="translate(459,851)"/>
<path d="M0 0 C0.66 0 1.32 0 2 0 C2.10854617 2.39706123 2.18753157 4.78915838 2.25 7.1875 C2.28351563 7.86103516 2.31703125 8.53457031 2.3515625 9.22851562 C2.4589933 14.73434438 1.76619372 15.29225784 -2 20 C-1.34 13.4 -0.68 6.8 0 0 Z " fill="#413A30" transform="translate(413,90)"/>
<path d="M0 0 C0.33 0 0.66 0 1 0 C1.02698422 2.43757413 1.04683099 4.87484915 1.0625 7.3125 C1.07087891 8.00279297 1.07925781 8.69308594 1.08789062 9.40429688 C1.10307906 12.5483025 1.00193327 14.99420019 0 18 C-1.32 17.34 -2.64 16.68 -4 16 C-3.625 14.0625 -3.625 14.0625 -3 12 C-2.34 11.67 -1.68 11.34 -1 11 C-0.5316735 8.41394668 -0.5316735 8.41394668 -0.375 5.4375 C-0.30023438 4.42558594 -0.22546875 3.41367188 -0.1484375 2.37109375 C-0.09945313 1.58863281 -0.05046875 0.80617187 0 0 Z " fill="#514632" transform="translate(390,166)"/>
<path d="M0 0 C2.97 0.99 5.94 1.98 9 3 C9 3.99 9 4.98 9 6 C7.948125 5.67 6.89625 5.34 5.8125 5 C0.29772657 3.54455073 0.29772657 3.54455073 -5 5 C-5 4.01 -5 3.02 -5 2 C-3.35 2 -1.7 2 0 2 C0 1.34 0 0.68 0 0 Z " fill="#997C3B" transform="translate(615,448)"/>
<path d="M0 0 C3.05957468 0.32781157 4.05836134 1.05678401 6.3125 3.25 C8 6 8 6 7.75 8.8125 C7.5025 9.534375 7.255 10.25625 7 11 C6.34 10.01 5.68 9.02 5 8 C2.94855599 4.99096116 2.94855599 4.99096116 0 3 C0 2.01 0 1.02 0 0 Z " fill="#38312C" transform="translate(379,169)"/>
<path d="M0 0 C0.33 0 0.66 0 1 0 C1.20086443 3.71599191 1.1519437 4.77208445 -1 8 C-1.70164642 9.98799818 -2.37372872 11.98698517 -3 14 C-4.1484375 12.328125 -4.1484375 12.328125 -5 10 C-4.1015625 7.421875 -4.1015625 7.421875 -2.625 4.75 C-2.14289063 3.85796875 -1.66078125 2.9659375 -1.1640625 2.046875 C-0.77992188 1.37140625 -0.39578125 0.6959375 0 0 Z " fill="#463E31" transform="translate(393,361)"/>
<path d="M0 0 C0.763125 0.20625 1.52625 0.4125 2.3125 0.625 C3.89956842 4.7327065 4.41441901 6.21732396 3.3125 10.625 C2.3225 7.985 1.3325 5.345 0.3125 2.625 C-1.6675 2.955 -3.6475 3.285 -5.6875 3.625 C-5.6875 2.965 -5.6875 2.305 -5.6875 1.625 C-2.6875 -0.375 -2.6875 -0.375 0 0 Z " fill="#332D2A" transform="translate(420.6875,100.375)"/>
<path d="M0 0 C0.66 0 1.32 0 2 0 C1.719172 1.98073365 1.42503386 3.95958448 1.125 5.9375 C0.88136719 7.59072266 0.88136719 7.59072266 0.6328125 9.27734375 C0.42398437 10.17582031 0.21515625 11.07429687 0 12 C-0.99 12.495 -0.99 12.495 -2 13 C-2.19294408 8.17639811 -1.75747614 4.50353262 0 0 Z " fill="#322C2A" transform="translate(388,142)"/>
<path d="M0 0 C4.29 0 8.58 0 13 0 C12.67 0.99 12.34 1.98 12 3 C6.06 2.01 6.06 2.01 0 1 C0 0.67 0 0.34 0 0 Z " fill="#4A4131" transform="translate(511,341)"/>
<path d="M0 0 C0.95465783 2.16967689 1.14401212 3.56328793 0.3984375 5.82421875 C-0.35870385 7.5684743 -1.17609198 9.28627131 -2 11 C-2.33 11 -2.66 11 -3 11 C-2.25 3.375 -2.25 3.375 0 0 Z " fill="#423A30" transform="translate(442,242)"/>
<path d="M0 0 C0.66 0.33 1.32 0.66 2 1 C-0.97 4.96 -0.97 4.96 -4 9 C-4.66 8.67 -5.32 8.34 -6 8 C-2.25 1.125 -2.25 1.125 0 0 Z " fill="#433B30" transform="translate(418,131)"/>
<path d="M0 0 C1.98 0 3.96 0 6 0 C5.01 0.495 5.01 0.495 4 1 C4.33 1.99 4.66 2.98 5 4 C3.35 4 1.7 4 0 4 C0 2.68 0 1.36 0 0 Z " fill="#514632" transform="translate(611,451)"/>
</svg>
