<?xml version="1.0" encoding="utf-8"?>
<!-- Generator: Adobe Illustrator 25.1.0, SVG Export Plug-In . SVG Version: 6.00 Build 0)  -->
<svg version="1.1" baseProfile="tiny" id="Layer_1" xmlns="http://www.w3.org/2000/svg" xmlns:xlink="http://www.w3.org/1999/xlink"
	 x="0px" y="0px" viewBox="0 0 280 300" overflow="visible" xml:space="preserve">
<g>
	<polygon fill-rule="evenodd" fill="#FFDD74" points="227.62,255.9 52.38,255.9 52.38,44.1 227.62,44.1 227.62,255.9 	"/>
	<path fill-rule="evenodd" d="M107.43,205.86l0.35-0.71l0.47,0.85c1.14,4.04,8.42,5.61,10.33-0.51c0.83,0.87,1.18,2.14,2.26,2.95
		c2.77,2.06,7.73,1.31,8.62-3.01l0.42,0.48c0.95,1.24,0.7,1.62,1.84,2.5c5.34,4.12,9.1-2.93,9.17-3.01c0.52,2.43,2.4,4.27,5.5,4.14
		c1.32-0.06,2.56-0.62,3.33-1.27c1.15-0.97,0.96-1.7,2.05-2.82c1.46,5.83,9.42,4.93,10.28,0.35l0.32-0.69l0.5,0.87
		c1.7,4.76,8.28,4.7,10.14,0.07l0.26-0.87l0.52,0.7c1.14,5.11,8.62,4.8,10.44-0.6c1.18,1.93,1.02,2.84,3.21,3.77
		c5.94,2.55,10.29-4.32,5.81-8.96l-0.75-0.86c1.36-0.65,2.71-2.3,2.47-4.75c-0.25-2.64-2.34-3.16-2.56-4.07
		c-0.03-0.11-0.12-0.12-0.18-0.18c3.59-3.37,3.65-6.14-0.5-9.1c1.38-1.39,3.05-1.92,2.87-4.86c-0.14-2.28-1.64-3.66-3.52-4.21
		c0.45-0.45-0.09,0.03,0.65-0.52c3.28-2.45,4.1-6.21-0.08-8.34l-1.01-0.54c-0.05-0.13-0.18-0.1-0.25-0.16
		c2.2-0.64,4.04-1.89,3.82-4.75c-0.17-2.22-2.03-3.97-4.41-3.98c-5.62-0.03-6.1,7.3-0.58,8.76l-1.52,0.79
		c-0.47,0.25-0.85,0.52-1.21,0.86c-0.76,0.71-1.34,1.63-1.39,2.96c-0.11,3.22,1.93,3.58,3.37,4.89c-7.53,2.56-1.09,9.48-0.86,9.09
		c0.04-0.07,0.15,0.15,0.22,0.23c-3.21,1.23-4.87,5-0.49,8.9c-1.1,1.28-2.75,1.73-2.83,4.56c-0.06,2.35,1.13,3.87,2.5,4.51
		c-0.72,0.98-0.82,0.58-1.57,1.62l-1.23,1.95c-0.39-0.81-0.67-1.43-1.17-2.01l-1.47-1.71c2.35-1.04,3.43-4.78,1.54-7.13
		c-0.21-0.26-0.63-0.66-0.86-0.89l-0.95-0.91c1.41-1.08,2.75-2.32,2.58-4.89c-0.17-2.48-1.59-3.08-2.98-4.22
		c0.07-0.07,0.16-0.14,0.21-0.19l1.82-1.78c0.67-0.94,0.91-1.96,0.75-3.29c-0.21-1.68-1.14-2.49-2.37-3.4l-1.11-0.83
		c1.99-0.55,3.56-2.04,3.27-4.83c-0.37-3.42-3.04-2.92-3.47-4.24c-0.05-0.16-0.18-0.16-0.27-0.25c5.59-1.04,4.27-8.79-1.12-8.57
		c-4.77,0.19-6.36,7.06-0.52,8.65l-0.8,0.54c-3.82,2.38-4.85,6.96,0.27,8.75c-1.69,1.4-3.41,1.46-3.57,4.52
		c-0.16,3.07,1.38,3.12,2.85,4.89c-1.61,1.09-2.98,2.17-3.04,4.55c-0.07,2.59,1.26,3.43,2.59,4.55c-1.17,1.33-2.7,1.62-2.8,4.55
		c-0.08,2.39,1.16,3.92,2.48,4.56l-2.75,3.75c-1.32-2.55-0.74-1.73-2.68-3.5c2-2.01,3.55-4.57,1.59-7.57
		c-0.36-0.54-1.49-1.05-1.64-1.6c-0.03-0.12-0.14-0.12-0.21-0.19c1.4-1.25,2.74-2.24,2.55-4.87c-0.15-2.05-1.63-3.4-3.05-4.24
		c1.11-1.2,3.04-1.67,2.87-4.9c-0.13-2.45-1.63-3.64-3.59-4.27c1.61-1.21,3.55-1.62,3.4-4.81c-0.07-1.23-0.6-2.27-1.24-2.93
		c-0.47-0.47-0.63-0.5-1.23-0.85l-1.49-0.93c6.01-1.53,4.21-8.91-0.87-8.69c-5.04,0.22-6.27,7.31-0.53,8.67l-1.51,0.95
		c-3.76,2.17-3.01,6.78,0.93,8.4c-1.59,1.17-3.43,1.52-3.58,4.44c-0.17,3.28,1.77,3.65,2.87,4.9c-3.98,2.34-3.95,6.48-0.41,9.1
		c-0.94,1.06-1.04,0.43-1.93,1.79c-1.67,2.56-0.55,5.85,1.57,7.41c-1.5,1.38-1.72,1.55-2.53,3.51c-0.06-0.08-0.14-0.19-0.18-0.25
		l-2.68-3.06c4.75-5.18,2.04-6.71-0.33-9.4c3.48-2.76,3.55-6.52-0.44-9.1c1.2-1.41,3.1-1.72,2.87-4.89
		c-0.18-2.55-1.67-3.51-3.57-4.26c1.55-1.27,3.69-1.85,3.35-5.12c-0.3-2.9-2.12-3.12-4.13-4.31c6.2-1.87,4.47-8.6-0.28-8.79
		c-2.42-0.1-4.47,1.66-4.66,3.91c-0.27,3.08,1.52,4.15,3.79,4.79c-1.85,1.46-3.88,1.56-4,4.68c-0.1,2.81,1.58,3.72,3.38,4.75
		c-1.83,0.69-3.42,2-3.59,4.33c-0.2,2.72,1.56,3.57,2.88,4.9c-1.47,1.14-2.86,1.73-3.04,4.22c-0.17,2.38,1.27,3.9,2.57,4.88
		c-1.32,1.3-2.74,2.49-2.8,4.6c-0.07,2.3,1.13,3.67,2.53,4.31c-0.68,1.28,0.06,0.03-0.56,0.8c-0.07,0.09-0.3,0.33-0.37,0.41
		c-0.18,0.2-0.4,0.35-0.69,0.7c-0.72,0.9-0.65,0.97-0.89,1.98l-0.85-1.24c-0.23-0.39-0.22-0.49-0.5-0.89
		c-0.68-0.95-0.88-0.73-1.57-1.59c1.44-0.69,2.69-2.31,2.45-4.85c-0.24-2.56-1.68-2.94-2.77-4.23c3.52-3.11,3.8-7.12-0.5-8.92
		l0.44-0.44c1.39-1.33,2.6-2.41,2.48-4.63c-0.13-2.39-1.7-3.6-3.57-4.24c1.59-1.46,3.69-1.99,3.36-5.23
		c-0.29-2.79-2.39-3.1-4.1-4.26c6.05-1.75,4.61-8.81-0.59-8.76c-4.94,0.04-6.58,7.19-0.55,8.71l-0.52,0.31
		c-0.08,0.04-0.18,0.09-0.26,0.14l-2.03,1.19c-0.57,0.56-1.22,1.8-1.26,3.02c-0.09,2.79,1.8,3.32,3.33,4.94
		c-1.86,0.54-3.37,1.97-3.5,4.2c-0.15,2.58,1.44,3.4,2.8,4.86c-1.42,1.14-2.97,1.8-3.02,4.56c-0.05,2.46,1.37,3.34,2.61,4.55
		c-0.06,0.06-0.15,0.14-0.19,0.18c-0.04,0.04-0.14,0.13-0.19,0.18c-2.94,2.75-3.77,6.82,0.08,8.62l-0.93,1.07
		c-0.85,0.88-1.26,1.54-1.55,2.77l-2.96-3.79c1.4-0.63,2.71-2.32,2.49-4.77c-0.19-2.11-1.47-2.99-2.78-4.25
		c1.35-1.29,2.83-2.1,2.59-4.9c-0.22-2.63-1.56-3.11-3-4.21c0.35-0.35,0.01-0.02,0.58-0.54c2.18-1.96,3.31-4.63,0.97-7.21
		l-2.25-1.71c4.77-1.5,4.28-8.08-0.35-8.63l-1.97-0.04c-2.04,0.4-3.7,2-3.68,4.49c0.03,2.79,1.98,3.21,3.37,4.55
		c-3.67,1.25-4.46,4.67-2.7,7.16c0.79,1.12,1.18,1.17,1.98,1.94c-4.03,2.93-4.28,5.62-0.42,9.1c-1.05,1.33-2.68,1.93-2.78,4.56
		c-0.1,2.69,1.56,3.67,2.47,4.92c-1.88,0.77-1.23,0.98-2.54,2.85l-0.4,0.48c-0.19-0.89-0.49-1.56-1.04-2.2l-1.44-1.67
		c1.47-0.63,2.7-2.31,2.48-4.7c-0.21-2.2-1.45-2.89-2.78-4.25c1.3-1,2.79-2.45,2.58-4.89c-0.22-2.46-1.52-3.09-2.97-4.22
		c1.08-1.11,3.12-2.11,2.76-5.13c-0.31-2.61-2.33-3.33-3.46-4.36c2.06-0.55,3.7-2.51,3.22-5.13c-0.52-2.8-1.98-2.75-4.18-3.93
		c2.35-0.62,4.14-1.61,4.07-4.55c-0.06-2.39-2.08-4.19-4.38-4.26c-5.11-0.15-6.69,7.27-0.84,8.65c-0.99,0.92-1.71,0.83-2.67,1.91
		c-3.88,4.32,1.78,7.37,2.12,7.68c-1.89,0.52-3.42,1.92-3.55,4.25c-0.16,2.75,1.23,3.48,2.48,4.54l0.36,0.34
		c-1.56,1.09-3.01,2.14-3.03,4.57c-0.03,2.62,1.27,3.39,2.61,4.53c-1.11,1.32-2.75,1.69-2.8,4.55c-0.07,3.05,1.39,3.55,2.46,4.89
		c-1.94,1.11-1.9,2.24-2.89,3.33c-0.55-1.8-0.99-1.89-1.79-2.8l-0.76-1.06c3.46-1.63,3.19-5.77,0.55-8.18l-0.79-0.72
		c1.42-1.15,2.75-2.32,2.55-4.86c-0.19-2.45-1.58-3.08-3.04-4.24c1.26-1.37,3.04-1.8,2.87-4.91c-0.14-2.52-1.73-3.46-3.6-4.3
		c1.79-1.17,3.71-1.81,3.38-5.09c-0.3-2.92-2.18-3.11-4.22-4.28c6.46-1.69,4.35-8.69-0.28-8.81c-2.52-0.07-4.43,1.84-4.6,3.95
		c-0.22,2.8,1.55,4.22,3.75,4.73l-2.73,1.83c-1.92,2.12-1.97,5.86,2.13,7.52c-1.59,1.26-3.38,1.37-3.55,4.47
		c-0.18,3.25,1.82,3.65,2.86,4.89c-4.2,2.65-3.97,6.45-0.48,9.1c-0.72,0.77-1.17,0.73-1.87,1.8c-1.69,2.6-1.01,5.5,1.58,7.38
		c-0.97,0.9-1.85,1.62-2.31,3.09l-0.28,0.84l-0.52-0.79c-0.32-1.44-1.41-2.26-2.32-3.17c1.47-0.79,2.7-2.63,2.46-4.95
		c-0.27-2.67-1.71-2.98-2.77-4.21c3.69-2.89,3.66-6.31-0.44-9.1c1.03-1.2,3.04-1.74,2.87-4.89c-0.13-2.38-1.76-3.7-3.61-4.26
		c1.57-1.22,3.56-1.72,3.41-4.85c-0.15-3.23-3.02-3.91-3.93-4.7c5.96-1.78,4.22-8.74-0.86-8.67c-4.78,0.06-6.59,7.24-0.54,8.71
		c-0.45,0.38,0.04,0.03-0.76,0.51c-0.45,0.26-0.25,0.13-0.73,0.39c-1.39,0.76-2.45,1.73-2.49,3.79c-0.05,2.75,1.27,3.83,3.39,4.64
		c-1.71,1.1-3.41,1.89-3.6,4.44c-0.23,3.16,1.6,3.52,2.87,4.9c-3.83,2.85-4.44,5.8-0.47,9.1l-0.61,0.54
		c-3.5,3.2-2.54,7.06,0.32,8.38c-0.61,1.16-0.77,0.86-1.61,1.92c-0.61,0.78-0.66,1.07-0.93,1.87c-0.06-0.08-0.13-0.19-0.16-0.25
		c-2.03-3.14-0.91-1.23-2.69-3.37c1.41-0.77,2.66-2.31,2.43-4.88c-0.23-2.46-1.72-2.98-2.78-4.23c3.65-3.09,3.79-6.34-0.4-9.1
		c1.12-1.36,2.98-1.98,2.82-4.89c-0.14-2.38-1.63-3.62-3.55-4.23c1.55-1.43,3.68-1.96,3.34-5.24c-0.2-1.99-1.54-2.97-2.83-3.61
		l-1.29-0.66c6.23-1.64,4.46-8.83-0.59-8.74c-4.75,0.07-6.74,6.94-0.54,8.72l-1.55,0.83c-3.69,1.94-3.34,7.04,0.83,8.34
		c-0.71,0.61-1.68,1.02-2.45,1.93c-3.3,3.9,1.37,7.07,1.83,7.55c-1.61,1.13-2.84,1.76-3.07,4.22c-0.27,2.87,1.21,3.52,2.56,4.89
		l-1.97,1.96c-1.48,2.1-0.97,5.66,1.64,7.03c-0.41,0.63-0.09,0.15-0.56,0.64c-0.07,0.08-0.3,0.29-0.38,0.37
		c-2.81,2.85-2.02,6.53,0.42,8.29c2.11,1.53,5.79,1.44,7.62-0.95l1.22-1.99c0.88,1.57,0.56,1.6,1.91,2.69
		C102.19,210.91,106.81,209.14,107.43,205.86L107.43,205.86z"/>
	<path fill-rule="evenodd" d="M133.85,162.33l2.69,0c1.95-0.94,3.43-2.13,3.05-4.9c-0.29-2.12-2.06-3.65-4.4-3.68
		C130.28,153.69,128.72,160.33,133.85,162.33L133.85,162.33z"/>
	<path fill-rule="evenodd" d="M182.89,150.32c2.08-5.23-6.12-7.95-8.02-3.01C172.85,152.6,180.78,155.65,182.89,150.32
		L182.89,150.32z"/>
	<path fill-rule="evenodd" d="M171.97,150.32c1.86-5.7-6.41-7.56-8.04-3.06C161.81,153.12,170.35,155.28,171.97,150.32
		L171.97,150.32z"/>
	<path fill-rule="evenodd" d="M128.28,150.32c2.07-5.24-6.11-7.96-8.01-2.99C118.27,152.58,126.17,155.66,128.28,150.32
		L128.28,150.32z"/>
	<path fill-rule="evenodd" d="M193.67,150.67c2.36-5.15-5.37-8.52-7.78-3.55C183.45,152.14,191.36,155.69,193.67,150.67
		L193.67,150.67z"/>
	<path fill-rule="evenodd" d="M87.26,149.62c0.72,5.16,9.3,4.28,8.44-1.37C94.92,143.06,86.44,143.72,87.26,149.62L87.26,149.62z"/>
	<path fill-rule="evenodd" d="M139.21,150.32c2.21-5.42-6.43-7.52-8.07-2.97C129.17,152.83,137.13,155.42,139.21,150.32
		L139.21,150.32z"/>
	<path fill-rule="evenodd" d="M152.78,149.62c0.67,4.9,9.28,4.4,8.45-1.39C160.49,143.03,151.97,143.76,152.78,149.62L152.78,149.62
		z"/>
	<path fill-rule="evenodd" d="M109.11,149.62c0.61,4.97,9.17,4.38,8.42-1.31C116.83,142.99,108.38,143.72,109.11,149.62
		L109.11,149.62z"/>
	<path fill-rule="evenodd" d="M98.18,149.62c0.67,4.95,9.25,4.4,8.44-1.4C105.91,143.12,97.38,143.7,98.18,149.62L98.18,149.62z"/>
	<path fill-rule="evenodd" d="M141.94,149.97c1.12,4.83,9.62,3.61,8.31-2.05C149.12,143.06,140.58,144.1,141.94,149.97
		L141.94,149.97z"/>
	<path fill-rule="evenodd" d="M185.78,140.52c0.89,4.9,9.09,3.96,7.98-1.73C192.83,134.03,184.77,134.93,185.78,140.52
		L185.78,140.52z"/>
	<path fill-rule="evenodd" d="M95.26,141.22c2.24-4.81-5.43-7.88-7.48-3.27C85.38,143.35,93.14,145.79,95.26,141.22L95.26,141.22z"
		/>
	<path fill-rule="evenodd" d="M149.88,141.22c2.15-5.06-5.51-7.65-7.49-3.29C139.87,143.47,148.01,145.61,149.88,141.22
		L149.88,141.22z"/>
	<path fill-rule="evenodd" d="M131.17,140.52c0.34,1.96,2.44,3.58,4.95,3.06c1.96-0.41,3.46-2.16,3.06-4.63
		C138.39,134.08,130.18,134.8,131.17,140.52L131.17,140.52z"/>
	<path fill-rule="evenodd" d="M153.1,140.87c1.37,4.84,9.29,2.95,7.87-2.29c-0.52-1.92-2.68-3.3-4.95-2.8
		C154.08,136.2,152.39,138.39,153.1,140.87L153.1,140.87z"/>
	<path fill-rule="evenodd" d="M164.02,140.87c1.26,4.76,9.4,2.99,7.82-2.32C170.41,133.72,162.57,135.39,164.02,140.87
		L164.02,140.87z"/>
	<path fill-rule="evenodd" d="M174.93,140.87c1.37,4.77,9.36,3.02,7.82-2.34C181.42,133.9,173.34,135.33,174.93,140.87
		L174.93,140.87z"/>
	<path fill-rule="evenodd" d="M120.24,140.52c0.84,4.72,9.11,3.89,7.99-1.71C127.3,134.09,119.25,134.91,120.24,140.52
		L120.24,140.52z"/>
	<path fill-rule="evenodd" d="M109.42,140.87c1.42,4.83,9.25,3.02,7.83-2.34C116.06,134.02,107.81,135.36,109.42,140.87
		L109.42,140.87z"/>
	<path fill-rule="evenodd" d="M98.39,140.52c0.84,4.66,9,3.85,8.03-1.66c-0.35-2.03-2.5-3.52-4.72-3.14
		C99.69,136.07,97.96,138.07,98.39,140.52L98.39,140.52z"/>
	<path fill-rule="evenodd" d="M182.53,131.77c1.92-4.62-5.45-7.19-7.25-2.95C173.19,133.73,180.51,136.64,182.53,131.77
		L182.53,131.77z"/>
	<path fill-rule="evenodd" d="M164.41,132.12c2.12,4.3,9.11,1.61,7.05-3.33C169.66,124.49,162,127.23,164.41,132.12L164.41,132.12z"
		/>
	<path fill-rule="evenodd" d="M117,131.77c1.78-5.05-5.57-6.86-7.23-2.96C107.57,133.98,115.36,136.42,117,131.77L117,131.77z"/>
	<path fill-rule="evenodd" d="M127.92,131.77c1.95-4.58-5.7-7.4-7.33-2.65C118.96,133.87,125.91,136.52,127.92,131.77L127.92,131.77
		z"/>
	<path fill-rule="evenodd" d="M193.44,131.77c1.87-4.53-5.3-7.23-7.22-2.88C184.06,133.77,191.46,136.59,193.44,131.77
		L193.44,131.77z"/>
	<path fill-rule="evenodd" d="M153.23,131.42c1.13,4.72,8.85,3.19,7.54-2.04c-0.45-1.79-2.38-3.14-4.71-2.62
		C154.24,127.17,152.66,129.07,153.23,131.42L153.23,131.42z"/>
	<path fill-rule="evenodd" d="M131.4,131.42c1.08,4.69,8.81,3.32,7.52-1.97C137.89,125.21,130.18,126.08,131.4,131.42L131.4,131.42z
		"/>
	<path fill-rule="evenodd" d="M87.63,131.07c0.56,4.67,8.65,4.11,7.67-1.35C94.52,125.28,87.01,125.91,87.63,131.07L87.63,131.07z"
		/>
	<path fill-rule="evenodd" d="M98.65,131.42c0.9,4.17,8.51,3.48,7.58-1.72C105.4,125.03,97.47,125.94,98.65,131.42L98.65,131.42z"/>
	<path fill-rule="evenodd" d="M138.73,122.31c1.42-4.86-5.91-6.59-7.09-2.15C130.28,125.27,137.49,126.57,138.73,122.31
		L138.73,122.31z"/>
	<path fill-rule="evenodd" d="M94.9,122.66c1.87-4.71-5.19-7.02-6.82-2.96C86.12,124.61,93.25,126.83,94.9,122.66L94.9,122.66z"/>
	<path fill-rule="evenodd" d="M116.75,122.66c2.05-4.56-5.18-7-6.85-2.88C108.02,124.39,114.81,126.96,116.75,122.66L116.75,122.66z
		"/>
	<path fill-rule="evenodd" d="M175.2,121.96c0.66,4.33,8.15,3.66,7.27-1.35C181.65,115.96,174.44,116.99,175.2,121.96L175.2,121.96z
		"/>
	<path fill-rule="evenodd" d="M186.21,122.31c1.11,3.99,8.36,3.15,7.12-2.04C192.31,116,184.8,117.21,186.21,122.31L186.21,122.31z"
		/>
	<path fill-rule="evenodd" d="M105.82,122.66c2.04-4.75-5.23-6.7-6.83-2.9C97.03,124.45,104.03,126.83,105.82,122.66L105.82,122.66z
		"/>
	<path fill-rule="evenodd" d="M164.39,122.31c1.06,4.12,8.34,2.96,7.11-1.97C170.45,116.12,163.08,117.2,164.39,122.31
		L164.39,122.31z"/>
	<path fill-rule="evenodd" d="M120.62,121.96c0.73,4.43,7.95,3.4,7.28-1.37C127.28,116.21,119.79,116.92,120.62,121.96
		L120.62,121.96z"/>
	<path fill-rule="evenodd" d="M116.63,113.21c1.69-4.5-5.11-6.4-6.53-2.63C108.26,115.49,115.15,117.18,116.63,113.21L116.63,113.21
		z"/>
	<path fill-rule="evenodd" d="M182.09,113.66c2-4.2-4.47-7.18-6.37-3.32c-0.97,1.95-0.06,4.14,1.66,4.82
		C179.83,116.12,181.8,114.27,182.09,113.66L182.09,113.66z"/>
	<path fill-rule="evenodd" d="M131.75,112.86c0.93,4.25,7.86,2.99,6.84-1.63C137.69,107.15,130.71,108.11,131.75,112.86
		L131.75,112.86z"/>
	<path fill-rule="evenodd" d="M120.94,113.21c1.24,3.96,8.16,2.28,6.6-2.38C126.24,106.94,119.46,108.49,120.94,113.21
		L120.94,113.21z"/>
	<path fill-rule="evenodd" d="M88.07,112.86c0.82,3.8,7.9,3.28,6.8-1.66C93.88,106.76,87.1,108.38,88.07,112.86L88.07,112.86z"/>
	<path fill-rule="evenodd" d="M186.34,112.86c0.84,4.07,7.86,3.07,6.85-1.61C192.29,107.13,185.37,108.15,186.34,112.86
		L186.34,112.86z"/>
	<path fill-rule="evenodd" d="M171.23,113.21c1.66-4.59-5.22-6.23-6.53-2.65C162.92,115.39,169.85,117.05,171.23,113.21
		L171.23,113.21z"/>
	<path fill-rule="evenodd" d="M98.99,112.86c0.75,3.82,7.85,3.18,6.81-1.69C104.97,107.3,98.04,108.01,98.99,112.86L98.99,112.86z"
		/>
	<path fill-rule="evenodd" d="M88.43,104.11c1.6,3.71,7.99,1.64,6.09-2.67C92.95,97.9,86.58,99.83,88.43,104.11L88.43,104.11z"/>
	<path fill-rule="evenodd" d="M105.48,104.11c1.7-4.01-4.34-6.33-6.05-2.83C97.45,105.33,103.76,108.17,105.48,104.11L105.48,104.11
		z"/>
	<path fill-rule="evenodd" d="M120.98,103.4c0.63,4.14,7.37,3.19,6.51-1.34C126.77,98.27,120.29,98.88,120.98,103.4L120.98,103.4z"
		/>
	<path fill-rule="evenodd" d="M164.67,103.4c0.56,4.03,7.37,3.33,6.49-1.29C170.42,98.29,164.04,98.88,164.67,103.4L164.67,103.4z"
		/>
	<path fill-rule="evenodd" d="M132.13,104.11c1.57,3.81,7.77,1.6,6.08-2.64C136.79,97.89,130.38,99.85,132.13,104.11L132.13,104.11z
		"/>
	<path fill-rule="evenodd" d="M186.51,103.4c0.64,3.87,7.34,3.26,6.48-1.34C192.24,98.03,185.8,99.1,186.51,103.4L186.51,103.4z"/>
	<path fill-rule="evenodd" d="M175.58,103.4c0.57,3.83,7.38,3.26,6.48-1.31C181.28,98.11,174.91,99.01,175.58,103.4L175.58,103.4z"
		/>
	<path fill-rule="evenodd" d="M177.93,90.68c-4,1.24-2.19,7.11,2,5.77c1.49-0.48,2.53-2.27,1.78-4.14
		C181.15,90.89,179.48,90.2,177.93,90.68L177.93,90.68z"/>
	<path fill-rule="evenodd" d="M101.55,90.65c-3.94,1.12-2.31,6.98,1.85,5.83C107.1,95.44,105.66,89.47,101.55,90.65L101.55,90.65z"
		/>
	<path fill-rule="evenodd" d="M90.51,90.76c-4.22,1.69-1.73,7.04,2.21,5.63C96.09,95.18,94.51,89.16,90.51,90.76L90.51,90.76z"/>
	<path fill-rule="evenodd" d="M123.15,90.89c-0.92,0.39-1.35,0.06-1.84,1.48c-1.08,3.12,2.01,5.04,4.32,3.94
		C129.03,94.67,127,89.26,123.15,90.89L123.15,90.89z"/>
	<path fill-rule="evenodd" d="M188.84,90.7c-4.22,1.48-1.8,7.11,2.03,5.7C194.67,94.99,192.54,89.41,188.84,90.7L188.84,90.7z"/>
	<path fill-rule="evenodd" d="M134.22,90.72c-4.26,1.47-1.74,7.04,2.06,5.72C139.7,95.25,138.2,89.34,134.22,90.72L134.22,90.72z"/>
	<path fill-rule="evenodd" d="M178.28,81.56c-3.97,0.82-2.61,6.63,1.52,5.55C183.01,86.28,182.11,80.78,178.28,81.56L178.28,81.56z"
		/>
	<path fill-rule="evenodd" d="M123.45,81.69c-3.88,1.27-1.99,6.46,1.73,5.41C128.59,86.14,127.35,80.41,123.45,81.69L123.45,81.69z"
		/>
	<path fill-rule="evenodd" d="M101.71,81.64c-4.15,1.25-2.04,6.62,1.73,5.43C106.57,86.08,105.39,80.52,101.71,81.64L101.71,81.64z"
		/>
	<path fill-rule="evenodd" d="M134.32,81.72c-4.3,1.53-1.39,6.67,1.96,5.3C139.45,85.73,137.88,80.45,134.32,81.72L134.32,81.72z"/>
	<path fill-rule="evenodd" d="M188.95,81.71c-4.25,1.45-1.58,6.67,1.95,5.26C194.08,85.72,192.42,80.54,188.95,81.71L188.95,81.71z"
		/>
	<path fill-rule="evenodd" d="M101.1,72.77c-3.04,1.71-0.9,6.41,2.58,4.74C106.71,76.07,104.43,70.89,101.1,72.77L101.1,72.77z"/>
	<path fill-rule="evenodd" d="M177.53,72.83c-2.88,1.88-0.77,6.07,2.56,4.79C183.39,76.36,180.75,70.72,177.53,72.83L177.53,72.83z"
		/>
	<path fill-rule="evenodd" d="M188.43,72.89c-3.23,1.71-0.54,6.24,2.75,4.58C194.08,76,191.95,71.02,188.43,72.89L188.43,72.89z"/>
	<path fill-rule="evenodd" fill="#ED1C24" d="M101.81,63.32c-3.4,1.06-2.03,5.86,1.39,5.01C106.5,67.51,105.23,62.25,101.81,63.32
		L101.81,63.32z"/>
	<polygon fill-rule="evenodd" points="134.17,162.99 136.14,163.03 136.54,162.34 133.85,162.33 134.17,162.99 	"/>
	<polygon fill-rule="evenodd" points="108.26,202.51 107.46,202.56 107.98,203.35 108.26,202.51 	"/>
	<polygon fill-rule="evenodd" points="173.01,206.06 173.79,205.88 173.27,205.19 173.01,206.06 	"/>
	<polygon fill-rule="evenodd" points="107.43,205.86 108.25,206 107.78,205.15 107.43,205.86 	"/>
	<polygon fill-rule="evenodd" points="162.05,205.81 162.87,205.99 162.37,205.12 162.05,205.81 	"/>
	<path d="M95.13,223.62c-0.41-1.4-1.23-2.53-2.42-3.39c-1.2-0.87-2.57-1.3-4.1-1.3c-1.06,0-1.91,0.26-2.53,0.77
		c-0.63,0.52-0.94,1.21-0.94,2.09c0,0.64,0.35,1.26,1.04,1.85c0.69,0.58,1.81,1.19,3.35,1.84c2.69,1.14,4.54,2.16,5.57,3.05
		c1.03,0.9,1.54,1.94,1.54,3.14c0,1.58-0.73,2.83-2.19,3.76c-1.46,0.93-3.43,1.39-5.93,1.39c-1.36,0-2.68-0.25-3.96-0.76
		c-0.53-0.22-0.97-0.29-1.34-0.22c-0.36,0.08-0.63,0.29-0.83,0.66l-0.12,0.24h-0.89l0,0l-1.01-5.95l0,0h0.89
		c0.55,1.43,1.51,2.6,2.86,3.51c1.36,0.91,2.82,1.36,4.39,1.36c1.37,0,2.46-0.3,3.27-0.9c0.8-0.6,1.21-1.42,1.21-2.44
		c0-0.65-0.43-1.31-1.3-1.96c-0.86-0.65-2.26-1.38-4.19-2.2c-2.08-0.87-3.63-1.75-4.65-2.64c-1.01-0.89-1.51-1.8-1.51-2.74
		c0-1.47,0.62-2.66,1.85-3.59c1.23-0.93,2.81-1.4,4.76-1.4c1.43,0.01,2.8,0.26,4.13,0.75c0.39,0.15,0.79,0.18,1.18,0.1
		c0.4-0.08,0.69-0.24,0.86-0.5l0.25-0.36h0.89l0,0l0.74,5.86l0,0H95.13L95.13,223.62z M111.4,236.82c-3.46,0-6.31-0.89-8.51-2.66
		c-2.21-1.78-3.32-4.07-3.32-6.86c0-2.8,1.11-5.09,3.32-6.87c2.21-1.77,5.05-2.66,8.51-2.66c3.48,0,6.32,0.89,8.53,2.66
		c2.2,1.78,3.3,4.07,3.3,6.87c0,2.8-1.1,5.08-3.3,6.86C117.71,235.92,114.87,236.82,111.4,236.82L111.4,236.82z M111.4,235.64
		c2.32,0,4.15-0.75,5.5-2.24c1.35-1.5,2.03-3.53,2.03-6.11c0-2.57-0.68-4.61-2.03-6.11c-1.35-1.5-3.18-2.25-5.5-2.25
		c-2.3,0-4.13,0.75-5.49,2.25c-1.35,1.5-2.03,3.54-2.03,6.11c0,2.57,0.67,4.61,2.03,6.11C107.26,234.9,109.09,235.64,111.4,235.64
		L111.4,235.64z M128.45,232.37v-10.16c0-1.42-0.19-2.32-0.57-2.72c-0.37-0.4-1.27-0.64-2.67-0.71v-0.65h5.17l0,0h4.41
		c3.21,0,5.66,0.41,7.34,1.24c1.67,0.83,2.51,2.04,2.51,3.65c0,1.49-0.88,2.67-2.66,3.55c-0.34,0.18-0.73,0.34-1.15,0.48l0,0
		c0.74,0.2,1.42,0.45,2.02,0.74c2.01,0.94,3.02,2.15,3.02,3.64c0,1.81-0.85,3.1-2.54,3.87c-1.7,0.77-4.54,1.16-8.53,1.16h-4.41l0,0
		h-5.17v-0.66c1.4-0.07,2.3-0.3,2.67-0.71C128.26,234.68,128.45,233.78,128.45,232.37L128.45,232.37z M132.3,220.84v5.64l0,0h2.8
		c1.8,0,3.22-0.33,4.27-0.97c1.05-0.65,1.57-1.53,1.57-2.63c0-1.11-0.52-1.99-1.57-2.64c-1.05-0.65-2.48-0.97-4.27-0.97h-0.69
		c-0.88,0-1.45,0.1-1.73,0.3C132.43,219.77,132.3,220.19,132.3,220.84L132.3,220.84z M132.3,227.75v5.98c0,0.66,0.13,1.08,0.37,1.26
		c0.25,0.19,0.81,0.28,1.7,0.28h0.41c2.31,0,4.01-0.3,5.11-0.92c1.09-0.61,1.65-1.56,1.65-2.84c0-1.24-0.56-2.18-1.65-2.82
		c-1.1-0.63-2.71-0.95-4.83-0.95H132.3L132.3,227.75z M151.42,232.37v-10.16c0-1.43-0.19-2.34-0.57-2.74
		c-0.38-0.4-1.27-0.63-2.68-0.69v-0.65h5.17h5.18v0.65c-1.41,0.07-2.3,0.25-2.68,0.53c-0.38,0.29-0.57,0.93-0.57,1.92v5.48l0,0
		h10.61l0,0v-5.48c0-0.99-0.19-1.63-0.57-1.92c-0.38-0.29-1.28-0.46-2.68-0.53v-0.65h5.16h5.18v0.65c-1.41,0.06-2.3,0.29-2.68,0.69
		c-0.38,0.4-0.57,1.31-0.57,2.74v10.16c0,1.43,0.19,2.33,0.57,2.73c0.38,0.4,1.27,0.63,2.68,0.69v0.66h-5.17h-5.18v-0.66
		c1.4-0.07,2.3-0.25,2.68-0.53c0.38-0.28,0.57-0.92,0.57-1.92v-5.46l0,0h-10.61l0,0v5.46c0,0.99,0.19,1.63,0.57,1.92
		c0.37,0.29,1.27,0.46,2.68,0.53v0.66h-5.17h-5.18v-0.66c1.4-0.06,2.3-0.29,2.68-0.7C151.24,234.7,151.42,233.8,151.42,232.37
		L151.42,232.37z M178.02,233.34l8.7-15.64h0.42h0.42l8.96,16.12c0.45,0.81,0.85,1.33,1.22,1.56c0.36,0.23,0.99,0.36,1.87,0.41v0.66
		h-4.53h-4.54v-0.66c1.06,0,1.74-0.15,2.02-0.45c0.28-0.3,0.23-0.8-0.17-1.51l-1.96-3.55l0,0h-8.92l0,0l-1.54,2.82
		c-0.51,0.91-0.61,1.57-0.29,1.99c0.32,0.42,1.11,0.65,2.36,0.71v0.66h-3.68h-3.7v-0.66c0.88-0.1,1.52-0.3,1.91-0.59
		C176.99,234.92,177.45,234.3,178.02,233.34L178.02,233.34z M186,222.18l-3.82,6.91l0,0h7.65l0,0L186,222.18L186,222.18L186,222.18z
		"/>
</g>
</svg>
